<svg width="14" height="12" viewBox="0 0 14 12" fill="none" xmlns="http://www.w3.org/2000/svg">
<path d="M14.0001 5.99999C13.9952 5.47388 13.7832 4.97089 13.4101 4.59999L9.12007 0.299994C8.93271 0.113743 8.67926 0.00920105 8.41507 0.00920105C8.15089 0.00920105 7.89743 0.113743 7.71007 0.299994C7.61634 0.392957 7.54195 0.503557 7.49118 0.625417C7.44041 0.747276 7.41427 0.877981 7.41427 1.00999C7.41427 1.142 7.44041 1.27271 7.49118 1.39457C7.54195 1.51643 7.61634 1.62703 7.71007 1.71999L11.0001 4.99999H1.00007C0.734856 4.99999 0.480502 5.10535 0.292966 5.29288C0.10543 5.48042 7.24792e-05 5.73477 7.24792e-05 5.99999C7.24792e-05 6.2652 0.10543 6.51956 0.292966 6.70709C0.480502 6.89463 0.734856 6.99999 1.00007 6.99999H11.0001L7.71007 10.29C7.52177 10.477 7.41545 10.7311 7.41452 10.9964C7.41358 11.2618 7.51809 11.5167 7.70507 11.705C7.89205 11.8933 8.14617 11.9996 8.41154 12.0005C8.6769 12.0015 8.93177 11.897 9.12007 11.71L13.4101 7.40999C13.7857 7.03664 13.9978 6.52956 14.0001 5.99999V5.99999Z" fill="#1F7A8C"/>
</svg>
