<svg width="15" height="15" viewBox="0 0 15 15" fill="none" xmlns="http://www.w3.org/2000/svg">
<g clip-path="url(#clip0_98_234)">
<path d="M15 14.375C15 14.5408 14.9342 14.6998 14.817 14.817C14.6998 14.9342 14.5408 15 14.375 15H0.625031C0.45927 15 0.300299 14.9342 0.183089 14.817C0.0658787 14.6998 3.06487e-05 14.5408 3.06487e-05 14.375C3.06487e-05 14.2093 0.0658787 14.0503 0.183089 13.9331C0.300299 13.8159 0.45927 13.75 0.625031 13.75H14.375C14.5408 13.75 14.6998 13.8159 14.817 13.9331C14.9342 14.0503 15 14.2093 15 14.375ZM0.181906 5.34502C0.0472321 5.09522 -0.0151602 4.81284 0.00173092 4.52955C0.018622 4.24627 0.114128 3.97329 0.277531 3.74127C0.544567 3.34947 0.902183 3.02787 1.32003 2.80377L6.00816 0.363769C6.46895 0.124164 6.98067 -0.000930786 7.50003 -0.000930786C8.01939 -0.000930786 8.53112 0.124164 8.99191 0.363769L13.6794 2.80564C14.0973 3.02974 14.4549 3.35134 14.7219 3.74314C14.8853 3.97517 14.9808 4.24814 14.9977 4.53143C15.0146 4.81471 14.9522 5.0971 14.8175 5.34689C14.6725 5.62116 14.4551 5.8504 14.1888 6.00964C13.9226 6.16888 13.6178 6.25202 13.3075 6.25002H13.125V11.25H13.75C13.9158 11.25 14.0748 11.3159 14.192 11.4331C14.3092 11.5503 14.375 11.7093 14.375 11.875C14.375 12.0408 14.3092 12.1998 14.192 12.317C14.0748 12.4342 13.9158 12.5 13.75 12.5H1.25003C1.08427 12.5 0.925299 12.4342 0.808089 12.317C0.690879 12.1998 0.625031 12.0408 0.625031 11.875C0.625031 11.7093 0.690879 11.5503 0.808089 11.4331C0.925299 11.3159 1.08427 11.25 1.25003 11.25H1.87503V6.25002H1.69253C1.382 6.25196 1.07691 6.16859 0.810524 6.009C0.544138 5.84941 0.326692 5.61973 0.181906 5.34502ZM3.12503 11.25H5.00003V6.25002H3.12503V11.25ZM6.25003 6.25002V11.25H8.75003V6.25002H6.25003ZM11.875 6.25002H10V11.25H11.875V6.25002ZM1.28941 4.76564C1.32862 4.83794 1.38698 4.89806 1.45808 4.9394C1.52919 4.98074 1.6103 5.00171 1.69253 5.00002H13.3075C13.3898 5.00171 13.4709 4.98074 13.542 4.9394C13.6131 4.89806 13.6714 4.83794 13.7107 4.76564C13.7392 4.71787 13.753 4.66272 13.7504 4.60713C13.7477 4.55153 13.7287 4.49796 13.6957 4.45314C13.5442 4.22809 13.3408 4.04286 13.1025 3.91314L8.41503 1.47127C8.13254 1.32466 7.81893 1.24813 7.50066 1.24813C7.18238 1.24813 6.86878 1.32466 6.58628 1.47127L1.89878 3.91314C1.66065 4.04327 1.45724 4.22868 1.30566 4.45377C1.27259 4.4984 1.25341 4.55179 1.25052 4.60726C1.24763 4.66273 1.26115 4.71782 1.28941 4.76564Z" fill="white"/>
</g>
<defs>
<clipPath id="clip0_98_234">
<rect width="15" height="15" fill="white"/>
</clipPath>
</defs>
</svg>
