<svg width="200" height="200" viewBox="0 0 200 200" fill="none" xmlns="http://www.w3.org/2000/svg">
<g clip-path="url(#clip0_54_404)">
<path d="M185 18.0248C180.315 14.1076 174.826 11.2697 168.921 9.71287C163.016 8.15599 156.84 7.91824 150.833 9.0165L118.983 14.7998C111.63 16.1502 104.944 19.9334 100 25.5415C95.043 19.9237 88.338 16.1396 80.9667 14.7998L49.1667 9.0165C43.1596 7.91728 36.9844 8.15191 31.0781 9.70379C25.1719 11.2557 19.6789 14.0869 14.988 17.9969C10.2972 21.907 6.52322 26.8004 3.93318 32.3307C1.34315 37.861 0.00040677 43.8931 0 49.9998L0 139.941C0.000478799 149.698 3.42481 159.145 9.67611 166.636C15.9274 174.127 24.6092 179.187 34.2083 180.933L86.5917 190.458C95.458 192.069 104.542 192.069 113.408 190.458L165.833 180.933C175.425 179.178 184.097 174.115 190.34 166.625C196.583 159.135 200.001 149.692 200 139.941V49.9998C200.004 43.8952 198.662 37.8648 196.069 32.3381C193.476 26.8114 189.697 21.9243 185 18.0248ZM91.6667 174.4C90.9667 174.3 90.2667 174.183 89.5667 174.058L37.1917 164.542C31.4314 163.493 26.2216 160.457 22.4707 155.961C18.7198 151.466 16.6658 145.796 16.6667 139.941V49.9998C16.6667 43.3694 19.3006 37.0106 23.989 32.3222C28.6774 27.6338 35.0363 24.9998 41.6667 24.9998C43.1758 25.0034 44.6816 25.1401 46.1667 25.4082L78 31.2415C81.8301 31.9424 85.2939 33.9621 87.7904 36.9502C90.2868 39.9383 91.6582 43.7061 91.6667 47.5998V174.4ZM183.333 139.941C183.334 145.796 181.28 151.466 177.529 155.961C173.778 160.457 168.569 163.493 162.808 164.542L110.433 174.058C109.733 174.183 109.033 174.3 108.333 174.4V47.5998C108.333 43.6966 109.702 39.917 112.203 36.9199C114.703 33.9228 118.176 31.8985 122.017 31.1998L153.858 25.3665C157.464 24.7104 161.17 24.8553 164.714 25.7908C168.258 26.7262 171.553 28.4295 174.365 30.7799C177.178 33.1303 179.439 36.0703 180.988 39.3917C182.538 42.7131 183.339 46.3346 183.333 49.9998V139.941Z" fill="#1F7A8C"/>
</g>
<defs>
<clipPath id="clip0_54_404">
<rect width="200" height="200" fill="white"/>
</clipPath>
</defs>
</svg>
