<svg width="15" height="15" viewBox="0 0 15 15" fill="none" xmlns="http://www.w3.org/2000/svg">
<path d="M14.6336 11.3999L9.74606 1.42181C9.54034 1.00165 9.22086 0.64764 8.82393 0.400035C8.42701 0.152429 7.96857 0.0211639 7.50075 0.0211639C7.03293 0.0211639 6.57449 0.152429 6.17757 0.400035C5.78064 0.64764 5.46116 1.00165 5.25544 1.42181L0.367311 11.3999C0.180558 11.7811 0.0939185 12.2035 0.115556 12.6274C0.137193 13.0513 0.266394 13.4627 0.490986 13.8228C0.715578 14.183 1.02817 14.48 1.39929 14.6859C1.77042 14.8919 2.18787 14.9999 2.61231 14.9999H12.3879C12.8124 15 13.23 14.8921 13.6012 14.6862C13.9724 14.4803 14.2851 14.1832 14.5097 13.8231C14.7344 13.4629 14.8636 13.0515 14.8853 12.6275C14.907 12.2036 14.8203 11.7811 14.6336 11.3999ZM12.2504 9.37494H2.75044L4.28169 6.24994H10.7192L12.2504 9.37494ZM6.37544 1.97181C6.47833 1.76182 6.63807 1.58489 6.8365 1.46115C7.03492 1.33741 7.26409 1.27181 7.49794 1.27181C7.73179 1.27181 7.96095 1.33741 8.15938 1.46115C8.35781 1.58489 8.51754 1.76182 8.62044 1.97181L10.1061 4.99994H4.89419L6.37544 1.97181ZM13.4467 13.1593C13.3359 13.3412 13.1797 13.4911 12.9934 13.5943C12.8071 13.6976 12.5971 13.7505 12.3842 13.7481H2.61231C2.39988 13.7485 2.19085 13.6948 2.00494 13.592C1.81904 13.4892 1.6624 13.3407 1.54981 13.1606C1.43722 12.9804 1.3724 12.7746 1.36146 12.5624C1.35053 12.3503 1.39384 12.1388 1.48731 11.9481L2.13856 10.6249H12.8617L13.5104 11.9499C13.6062 12.1398 13.6509 12.3513 13.6401 12.5637C13.6294 12.776 13.5636 12.982 13.4492 13.1612L13.4467 13.1593Z" fill="white"/>
</svg>
