<svg width="200" height="200" viewBox="0 0 200 200" fill="none" xmlns="http://www.w3.org/2000/svg">
<g clip-path="url(#clip0_54_1026)">
<path d="M187.499 33.1336H161.782C160.134 33.134 158.523 33.6229 157.153 34.5386C155.783 35.4543 154.715 36.7557 154.085 38.2782C153.454 39.8007 153.289 41.4759 153.611 43.0922C153.932 44.7085 154.725 46.1932 155.891 47.3586L164.941 56.4086L135.057 86.2836C133.469 87.8011 131.358 88.6479 129.161 88.6479C126.965 88.6479 124.853 87.8011 123.266 86.2836L121.849 84.8586C117.087 80.3092 110.755 77.7705 104.17 77.7705C97.5841 77.7705 91.2521 80.3092 86.4905 84.8586L43.9905 127.359C42.4246 128.929 41.5467 131.057 41.5498 133.275C41.5529 135.492 42.4369 137.618 44.0072 139.184C45.5775 140.749 47.7055 141.627 49.9231 141.624C52.1408 141.621 54.2663 140.737 55.8322 139.167L98.3322 96.6669C99.919 95.1476 102.031 94.2994 104.228 94.2994C106.425 94.2994 108.537 95.1476 110.124 96.6669L111.541 98.0919C116.304 102.638 122.635 105.174 129.22 105.174C135.804 105.174 142.135 102.638 146.899 98.0919L176.782 68.2086L185.832 77.2586C187.002 78.4048 188.483 79.1812 190.091 79.4907C191.699 79.8002 193.362 79.6291 194.873 78.9988C196.385 78.3685 197.677 77.3069 198.588 75.9466C199.5 74.5864 199.99 72.9877 199.999 71.3503V45.6336C199.999 42.3184 198.682 39.139 196.338 36.7948C193.993 34.4506 190.814 33.1336 187.499 33.1336Z" fill="#1F7A8C"/>
<path d="M191.667 183.133H41.6667C35.0363 183.133 28.6774 180.499 23.989 175.811C19.3006 171.123 16.6667 164.764 16.6667 158.133V8.33333C16.6667 6.1232 15.7887 4.00358 14.2259 2.44078C12.6631 0.877974 10.5435 0 8.33333 0C6.1232 0 4.00358 0.877974 2.44078 2.44078C0.877974 4.00358 0 6.1232 0 8.33333L0 158.133C0.0132321 169.18 4.40735 179.77 12.2185 187.582C20.0296 195.393 30.62 199.787 41.6667 199.8H191.667C193.877 199.8 195.996 198.922 197.559 197.359C199.122 195.796 200 193.677 200 191.467C200 189.257 199.122 187.137 197.559 185.574C195.996 184.011 193.877 183.133 191.667 183.133Z" fill="#1F7A8C"/>
</g>
<defs>
<clipPath id="clip0_54_1026">
<rect width="200" height="200" fill="white"/>
</clipPath>
</defs>
</svg>
