<svg width="200" height="200" viewBox="0 0 200 200" fill="none" xmlns="http://www.w3.org/2000/svg">
<g clip-path="url(#clip0_54_1020)">
<path d="M100 0C80.2219 0 60.8879 5.8649 44.443 16.853C27.9981 27.8412 15.1809 43.459 7.61209 61.7317C0.0433286 80.0043 -1.93701 100.111 1.92152 119.509C5.78004 138.907 15.3041 156.725 29.2894 170.711C43.2746 184.696 61.0929 194.22 80.491 198.079C99.8891 201.937 119.996 199.957 138.268 192.388C156.541 184.819 172.159 172.002 183.147 155.557C194.135 139.112 200 119.778 200 100C199.971 73.4872 189.426 48.0684 170.679 29.321C151.932 10.5736 126.513 0.0286757 100 0V0ZM100 183.333C83.5183 183.333 67.4066 178.446 53.7025 169.289C39.9984 160.132 29.3174 147.117 23.0101 131.89C16.7028 116.663 15.0525 99.9076 18.2679 83.7425C21.4834 67.5774 29.4201 52.7288 41.0745 41.0744C52.7289 29.4201 67.5774 21.4833 83.7425 18.2679C99.9076 15.0525 116.663 16.7027 131.89 23.01C147.118 29.3173 160.132 39.9984 169.289 53.7025C178.446 67.4066 183.333 83.5182 183.333 100C183.309 122.094 174.522 143.276 158.899 158.899C143.276 174.522 122.094 183.309 100 183.333V183.333Z" fill="#1F7A8C"/>
<path d="M99.9984 50C97.7883 50 95.6687 50.878 94.1059 52.4408C92.5431 54.0036 91.6651 56.1232 91.6651 58.3333V94.3749L63.5734 111.975C61.6948 113.148 60.3593 115.02 59.8608 117.179C59.3623 119.337 59.7415 121.605 60.9151 123.483C62.0887 125.362 63.9605 126.697 66.1187 127.196C68.2769 127.694 70.5448 127.315 72.4234 126.142L104.423 106.142C105.632 105.384 106.627 104.329 107.311 103.077C107.995 101.825 108.347 100.418 108.332 98.9916V58.3333C108.332 56.1232 107.454 54.0036 105.891 52.4408C104.328 50.878 102.209 50 99.9984 50Z" fill="#1F7A8C"/>
</g>
<defs>
<clipPath id="clip0_54_1020">
<rect width="200" height="200" fill="white"/>
</clipPath>
</defs>
</svg>
