<svg width="70" height="70" viewBox="0 0 70 70" fill="none" xmlns="http://www.w3.org/2000/svg">
<g clip-path="url(#clip0_60_745)">
<path d="M30.6236 49.5831C29.8566 49.5837 29.097 49.433 28.3884 49.1397C27.6797 48.8465 27.0358 48.4163 26.4936 47.8739L15.4569 37.0851C14.9038 36.5437 14.5885 35.8046 14.5803 35.0307C14.5721 34.2567 14.8717 33.5111 15.4132 32.9581C15.9546 32.405 16.6937 32.0896 17.4676 32.0814C18.2416 32.0732 18.9871 32.3728 19.5402 32.9143L30.6032 43.7264L50.454 24.1847C51.0138 23.6922 51.741 23.4327 52.4861 23.4597C53.2313 23.4866 53.9378 23.7979 54.4605 24.3296C54.9833 24.8613 55.2825 25.5731 55.2968 26.3186C55.3111 27.0641 55.0393 27.7867 54.5373 28.3381L34.7244 47.9001C34.1851 48.4365 33.5453 48.8613 32.8416 49.1501C32.1379 49.4388 31.3842 49.586 30.6236 49.5831ZM69.9986 55.4164V35.9914C70.1074 27.0006 66.811 18.3015 60.7712 11.6406C54.7314 4.97978 46.3954 0.850327 37.4369 0.0813841C32.4367 -0.268448 27.4197 0.459792 22.7253 2.21683C18.031 3.97387 13.7688 6.71871 10.2271 10.2657C6.68539 13.8126 3.94686 18.0789 2.19679 22.7758C0.446709 27.4728 -0.274092 32.4909 0.0831517 37.4906C1.37232 56.0231 17.7377 69.9997 38.1573 69.9997H55.4152C59.2816 69.9951 62.9882 68.4572 65.7221 65.7233C68.456 62.9893 69.9939 59.2827 69.9986 55.4164ZM37.0402 5.90305C44.5257 6.56524 51.4833 10.0357 56.5151 15.6172C61.5468 21.1986 64.2799 28.4775 64.1652 35.9914V55.4164C64.1652 57.737 63.2434 59.9626 61.6024 61.6036C59.9615 63.2445 57.7359 64.1664 55.4152 64.1664H38.1573C20.5582 64.1664 6.99857 52.7914 5.90482 37.0881C5.61768 33.0881 6.15849 29.0719 7.49348 25.2903C8.82846 21.5088 10.9289 18.0432 13.6637 15.11C16.3984 12.1768 19.7086 9.83913 23.3875 8.24294C27.0664 6.64675 31.035 5.82637 35.0452 5.83305C35.7073 5.83305 36.3752 5.8593 37.0402 5.90305Z" fill="#1F7A8C"/>
</g>
<defs>
<clipPath id="clip0_60_745">
<rect width="70" height="70" fill="white"/>
</clipPath>
</defs>
</svg>
