<svg width="200" height="200" viewBox="0 0 200 200" fill="none" xmlns="http://www.w3.org/2000/svg">
<g clip-path="url(#clip0_54_408)">
<path d="M158.333 8.33203H41.6667C30.62 8.34526 20.0296 12.7394 12.2185 20.5505C4.40735 28.3617 0.0132321 38.9521 0 49.9987L0 116.665C0.0132321 127.712 4.40735 138.302 12.2185 146.114C20.0296 153.925 30.62 158.319 41.6667 158.332H91.6667V174.999H58.3333C56.1232 174.999 54.0036 175.877 52.4408 177.439C50.878 179.002 50 181.122 50 183.332C50 185.542 50.878 187.662 52.4408 189.225C54.0036 190.787 56.1232 191.665 58.3333 191.665H141.667C143.877 191.665 145.996 190.787 147.559 189.225C149.122 187.662 150 185.542 150 183.332C150 181.122 149.122 179.002 147.559 177.439C145.996 175.877 143.877 174.999 141.667 174.999H108.333V158.332H158.333C169.38 158.319 179.97 153.925 187.781 146.114C195.593 138.302 199.987 127.712 200 116.665V49.9987C199.987 38.9521 195.593 28.3617 187.781 20.5505C179.97 12.7394 169.38 8.34526 158.333 8.33203ZM41.6667 24.9987H158.333C164.964 24.9987 171.323 27.6326 176.011 32.321C180.699 37.0094 183.333 43.3683 183.333 49.9987V108.332H16.6667V49.9987C16.6667 43.3683 19.3006 37.0094 23.989 32.321C28.6774 27.6326 35.0363 24.9987 41.6667 24.9987ZM158.333 141.665H41.6667C36.5145 141.644 31.4948 140.031 27.2942 137.048C23.0936 134.065 19.9174 129.856 18.2 124.999H181.8C180.083 129.856 176.906 134.065 172.706 137.048C168.505 140.031 163.486 141.644 158.333 141.665Z" fill="#1F7A8C"/>
</g>
<defs>
<clipPath id="clip0_54_408">
<rect width="200" height="200" fill="white"/>
</clipPath>
</defs>
</svg>
