<svg width="25" height="24" viewBox="0 0 25 24" fill="none" xmlns="http://www.w3.org/2000/svg">
<g clip-path="url(#clip0_111_314)">
<path d="M5.97159 17.0002C6.80806 17.0002 7.48616 16.3286 7.48616 15.5002C7.48616 14.6717 6.80806 14.0002 5.97159 14.0002C5.13512 14.0002 4.45703 14.6717 4.45703 15.5002C4.45703 16.3286 5.13512 17.0002 5.97159 17.0002Z" fill="#1F7A8C"/>
<path d="M19.6024 3H5.46651C4.12805 3.00159 2.84486 3.52888 1.89842 4.46622C0.951985 5.40356 0.419572 6.67441 0.417969 8L0.417969 16C0.419572 17.3256 0.951985 18.5964 1.89842 19.5338C2.84486 20.4711 4.12805 20.9984 5.46651 21H19.6024C20.9409 20.9984 22.2241 20.4711 23.1705 19.5338C24.117 18.5964 24.6494 17.3256 24.651 16V8C24.6494 6.67441 24.117 5.40356 23.1705 4.46622C22.2241 3.52888 20.9409 3.00159 19.6024 3ZM5.46651 5H19.6024C20.4058 5 21.1763 5.31607 21.7444 5.87868C22.3124 6.44129 22.6316 7.20435 22.6316 8H2.43739C2.43739 7.20435 2.75653 6.44129 3.3246 5.87868C3.89267 5.31607 4.66314 5 5.46651 5ZM19.6024 19H5.46651C4.66314 19 3.89267 18.6839 3.3246 18.1213C2.75653 17.5587 2.43739 16.7956 2.43739 16V10H22.6316V16C22.6316 16.7956 22.3124 17.5587 21.7444 18.1213C21.1763 18.6839 20.4058 19 19.6024 19Z" fill="#1F7A8C"/>
</g>
<defs>
<clipPath id="clip0_111_314">
<rect width="24.233" height="24" fill="white" transform="translate(0.417969)"/>
</clipPath>
</defs>
</svg>
