<svg width="190" height="190" viewBox="0 0 190 190" fill="none" xmlns="http://www.w3.org/2000/svg">
<g clip-path="url(#clip0_362_198)">
<path d="M126.667 63.3344C125.182 61.8502 123.169 61.0165 121.07 61.0165C118.971 61.0165 116.957 61.8502 115.473 63.3344L95.0002 83.8069L74.5278 63.3344C73.0347 61.8923 71.0349 61.0943 68.9592 61.1124C66.8835 61.1304 64.8979 61.963 63.4301 63.4308C61.9622 64.8986 61.1297 66.8842 61.1116 68.9599C61.0936 71.0357 61.8915 73.0354 63.3336 74.5285L83.8061 95.001L63.3336 115.474C61.8915 116.967 61.0936 118.966 61.1116 121.042C61.1297 123.118 61.9622 125.103 63.4301 126.571C64.8979 128.039 66.8835 128.872 68.9592 128.89C71.0349 128.908 73.0347 128.11 74.5278 126.668L95.0002 106.195L115.473 126.668C116.966 128.11 118.966 128.908 121.041 128.89C123.117 128.872 125.103 128.039 126.57 126.571C128.038 125.103 128.871 123.118 128.889 121.042C128.907 118.966 128.109 116.967 126.667 115.474L106.194 95.001L126.667 74.5285C128.151 73.0439 128.985 71.0307 128.985 68.9315C128.985 66.8322 128.151 64.819 126.667 63.3344Z" fill="#D33D3D"/>
<path d="M95 0C76.2108 0 57.8435 5.57165 42.2209 16.0104C26.5982 26.4491 14.4218 41.2861 7.23149 58.6451C0.0411622 76.0041 -1.84015 95.1054 1.82544 113.534C5.49104 131.962 14.5389 148.889 27.8249 162.175C41.1109 175.461 58.0383 184.509 76.4665 188.175C94.8947 191.84 113.996 189.959 131.355 182.769C148.714 175.578 163.551 163.402 173.99 147.779C184.428 132.157 190 113.789 190 95C189.973 69.8128 179.955 45.665 162.145 27.8549C144.335 10.0449 120.187 0.0272419 95 0V0ZM95 174.167C79.3424 174.167 64.0363 169.524 51.0174 160.825C37.9985 152.126 27.8515 139.762 21.8596 125.296C15.8676 110.83 14.2999 94.9122 17.3545 79.5554C20.4092 64.1985 27.9491 50.0924 39.0208 39.0207C50.0924 27.9491 64.1986 20.4092 79.5554 17.3545C94.9122 14.2998 110.83 15.8676 125.296 21.8595C139.762 27.8515 152.126 37.9985 160.825 51.0174C169.524 64.0363 174.167 79.3423 174.167 95C174.144 115.989 165.796 136.112 150.954 150.954C136.112 165.795 115.989 174.144 95 174.167V174.167Z" fill="#D33D3D"/>
</g>
<defs>
<clipPath id="clip0_362_198">
<rect width="190" height="190" fill="white"/>
</clipPath>
</defs>
</svg>
