<svg width="30" height="30" viewBox="0 0 30 30" fill="none" xmlns="http://www.w3.org/2000/svg">
<g clip-path="url(#clip0_31_42)">
<path d="M23.75 1.21191H6.25C4.59301 1.21384 3.00445 1.85293 1.83277 2.98899C0.661102 4.12506 0.00198482 5.66535 0 7.27199L0 21.8162C0.00198482 23.4228 0.661102 24.9631 1.83277 26.0992C3.00445 27.2352 4.59301 27.8743 6.25 27.8762H23.75C25.407 27.8743 26.9956 27.2352 28.1672 26.0992C29.3389 24.9631 29.998 23.4228 30 21.8162V7.27199C29.998 5.66535 29.3389 4.12506 28.1672 2.98899C26.9956 1.85293 25.407 1.21384 23.75 1.21191V1.21191ZM6.25 3.63594H23.75C24.4985 3.63737 25.2294 3.85594 25.8487 4.26353C26.468 4.67112 26.9473 5.24907 27.225 5.92302L17.6525 15.2058C16.948 15.8862 15.9943 16.2681 15 16.2681C14.0057 16.2681 13.052 15.8862 12.3475 15.2058L2.775 5.92302C3.05269 5.24907 3.53202 4.67112 4.15131 4.26353C4.7706 3.85594 5.50152 3.63737 6.25 3.63594V3.63594ZM23.75 25.4522H6.25C5.25544 25.4522 4.30161 25.0691 3.59835 24.3872C2.89509 23.7053 2.5 22.7805 2.5 21.8162V9.09001L10.58 16.9196C11.7533 18.0544 13.3428 18.6916 15 18.6916C16.6572 18.6916 18.2467 18.0544 19.42 16.9196L27.5 9.09001V21.8162C27.5 22.7805 27.1049 23.7053 26.4017 24.3872C25.6984 25.0691 24.7446 25.4522 23.75 25.4522Z" fill="#024A65"/>
</g>
<defs>
<clipPath id="clip0_31_42">
<rect width="30" height="29.0884" fill="white"/>
</clipPath>
</defs>
</svg>
