<svg width="200" height="200" viewBox="0 0 200 200" fill="none" xmlns="http://www.w3.org/2000/svg">
<g clip-path="url(#clip0_27_65)">
<path d="M180.958 153.025C171.413 164.598 158.921 173.379 144.8 178.443C130.678 183.507 115.452 184.665 100.728 181.795C86.0032 178.925 72.3264 172.134 61.1407 162.137C49.955 152.141 41.6752 139.31 37.1749 125H125C127.21 125 129.33 124.122 130.892 122.559C132.455 120.996 133.333 118.876 133.333 116.666C133.333 114.456 132.455 112.337 130.892 110.774C129.33 109.211 127.21 108.333 125 108.333H33.7583C33.1916 102.792 33.1916 97.2075 33.7583 91.6664H125C127.21 91.6664 129.33 90.7884 130.892 89.2256C132.455 87.6628 133.333 85.5432 133.333 83.3331C133.333 81.1229 132.455 79.0033 130.892 77.4405C129.33 75.8777 127.21 74.9997 125 74.9997H37.1749C41.6752 60.689 49.955 47.8585 61.1407 37.8622C72.3264 27.8658 86.0032 21.0743 100.728 18.2043C115.452 15.3343 130.678 16.4923 144.8 21.5561C158.921 26.6199 171.413 35.4017 180.958 46.9748C181.655 47.8185 182.512 48.5167 183.479 49.0294C184.446 49.5422 185.504 49.8595 186.594 49.9631C187.683 50.0668 188.783 49.9549 189.829 49.6338C190.875 49.3126 191.848 48.7885 192.692 48.0914C193.535 47.3943 194.234 46.5379 194.746 45.5709C195.259 44.604 195.576 43.5456 195.68 42.456C195.784 41.3665 195.672 40.2672 195.351 39.2209C195.029 38.1746 194.505 37.2018 193.808 36.3581C182.08 22.1439 166.65 11.4502 149.222 5.45976C131.795 -0.530692 113.051 -1.58453 95.0622 2.41478C77.0735 6.4141 60.5413 15.3107 47.294 28.1208C34.0467 40.9309 24.6005 57.1553 19.9999 74.9997H8.33327C6.12313 74.9997 4.00352 75.8777 2.44072 77.4405C0.877913 79.0033 -6.10352e-05 81.1229 -6.10352e-05 83.3331C-6.10352e-05 85.5432 0.877913 87.6628 2.44072 89.2256C4.00352 90.7884 6.12313 91.6664 8.33327 91.6664H17.0916C16.8583 94.4247 16.6666 97.183 16.6666 99.9997C16.6666 102.816 16.8583 105.575 17.0916 108.333H8.33327C6.12313 108.333 4.00352 109.211 2.44072 110.774C0.877913 112.337 -6.10352e-05 114.456 -6.10352e-05 116.666C-6.10352e-05 118.876 0.877913 120.996 2.44072 122.559C4.00352 124.122 6.12313 125 8.33327 125H19.9999C24.5953 142.853 34.0409 159.087 47.2915 171.905C60.542 184.723 77.0807 193.624 95.0771 197.624C113.073 201.624 131.826 200.567 149.258 194.569C166.691 188.571 182.124 177.867 193.85 163.641C195.258 161.937 195.931 159.744 195.722 157.543C195.512 155.343 194.437 153.316 192.733 151.908C191.029 150.5 188.836 149.827 186.635 150.036C184.435 150.246 182.408 151.321 181 153.025H180.958Z" fill="#1F7A8C"/>
</g>
<defs>
<clipPath id="clip0_27_65">
<rect width="200" height="200" fill="white"/>
</clipPath>
</defs>
</svg>
