<svg width="22" height="22" viewBox="0 0 22 22" fill="none" xmlns="http://www.w3.org/2000/svg">
<g clip-path="url(#clip0_33_47)">
<path d="M21.3317 8.63394C20.5041 7.27886 19.4603 6.06843 18.2416 5.0507L20.8083 2.48403C20.9752 2.31114 21.0676 2.07959 21.0655 1.83924C21.0635 1.5989 20.9671 1.36898 20.7971 1.19903C20.6271 1.02907 20.3972 0.932665 20.1569 0.930577C19.9165 0.928488 19.685 1.02088 19.5121 1.18786L16.7208 3.98278C14.9905 2.95503 13.0124 2.41937 10.9999 2.43361C5.32484 2.43361 2.09084 6.31844 0.668175 8.63394C0.228659 9.34483 -0.00415039 10.1641 -0.00415039 10.9999C-0.00415039 11.8356 0.228659 12.6549 0.668175 13.3658C1.4957 14.7209 2.53954 15.9313 3.75826 16.949L1.19159 19.5157C1.10404 19.6003 1.03421 19.7014 0.986165 19.8132C0.938124 19.9251 0.912836 20.0454 0.911779 20.1671C0.910721 20.2888 0.933914 20.4095 0.980005 20.5222C1.0261 20.6348 1.09416 20.7372 1.18023 20.8232C1.2663 20.9093 1.36865 20.9774 1.4813 21.0234C1.59396 21.0695 1.71466 21.0927 1.83638 21.0917C1.95809 21.0906 2.07838 21.0653 2.19021 21.0173C2.30205 20.9692 2.4032 20.8994 2.48776 20.8119L5.28542 18.0142C7.01359 19.0418 8.98937 19.5784 10.9999 19.5661C16.675 19.5661 19.909 15.6813 21.3317 13.3658C21.7712 12.6549 22.004 11.8356 22.004 10.9999C22.004 10.1641 21.7712 9.34483 21.3317 8.63394V8.63394ZM2.23018 12.406C1.96905 11.9835 1.83074 11.4966 1.83074 10.9999C1.83074 10.5031 1.96905 10.0162 2.23018 9.59369C3.45301 7.60819 6.21676 4.26694 10.9999 4.26694C12.5218 4.25842 14.0224 4.62521 15.3688 5.33486L13.5235 7.18011C12.6434 6.59583 11.5883 6.33402 10.5372 6.43912C9.4861 6.54422 8.50372 7.00974 7.75676 7.7567C7.0098 8.50366 6.54428 9.48604 6.43918 10.5372C6.33409 11.5883 6.59589 12.6434 7.18018 13.5234L5.06267 15.6409C3.93985 14.7332 2.98169 13.6389 2.23018 12.406V12.406ZM13.7499 10.9999C13.7499 11.7292 13.4602 12.4287 12.9445 12.9444C12.4287 13.4601 11.7293 13.7499 10.9999 13.7499C10.5916 13.7483 10.1889 13.6543 9.82201 13.4749L13.4749 9.82194C13.6543 10.1888 13.7483 10.5915 13.7499 10.9999V10.9999ZM8.24993 10.9999C8.24993 10.2705 8.53966 9.57104 9.05538 9.05532C9.57111 8.53959 10.2706 8.24986 10.9999 8.24986C11.4083 8.25144 11.811 8.34546 12.1778 8.52486L8.52493 12.1778C8.34552 11.8109 8.25151 11.4082 8.24993 10.9999ZM19.7697 12.406C18.5468 14.3915 15.7831 17.7328 10.9999 17.7328C9.47801 17.7413 7.97746 17.3745 6.63109 16.6649L8.47634 14.8196C9.3564 15.4039 10.4115 15.6657 11.4626 15.5606C12.5137 15.4555 13.4961 14.99 14.2431 14.243C14.99 13.4961 15.4556 12.5137 15.5607 11.4626C15.6658 10.4114 15.404 9.35634 14.8197 8.47628L16.9372 6.35878C18.06 7.26654 19.0182 8.36082 19.7697 9.59369C20.0308 10.0162 20.1691 10.5031 20.1691 10.9999C20.1691 11.4966 20.0308 11.9835 19.7697 12.406V12.406Z" fill="#1F7A8C"/>
</g>
<defs>
<clipPath id="clip0_33_47">
<rect width="22" height="22" fill="white"/>
</clipPath>
</defs>
</svg>
