<svg width="17" height="19" viewBox="0 0 17 19" fill="none" xmlns="http://www.w3.org/2000/svg">
<path d="M9.45 18.25C8.11667 18.25 6.875 18.0333 5.725 17.6C4.59167 17.15 3.6 16.525 2.75 15.725C1.91667 14.9083 1.26667 13.95 0.8 12.85C0.333333 11.75 0.1 10.55 0.1 9.25C0.1 7.95 0.333333 6.75 0.8 5.65C1.26667 4.55 1.925 3.6 2.775 2.8C3.625 1.98333 4.61667 1.35833 5.75 0.924999C6.88333 0.474999 8.125 0.249999 9.475 0.249999C10.9083 0.249999 12.2167 0.499999 13.4 1C14.5833 1.48333 15.5833 2.20833 16.4 3.175L14.3 5.15C13.6667 4.46667 12.9583 3.95833 12.175 3.625C11.3917 3.275 10.5417 3.1 9.625 3.1C8.70833 3.1 7.86667 3.25 7.1 3.55C6.35 3.85 5.69167 4.275 5.125 4.825C4.575 5.375 4.14167 6.025 3.825 6.775C3.525 7.525 3.375 8.35 3.375 9.25C3.375 10.15 3.525 10.975 3.825 11.725C4.14167 12.475 4.575 13.125 5.125 13.675C5.69167 14.225 6.35 14.65 7.1 14.95C7.86667 15.25 8.70833 15.4 9.625 15.4C10.5417 15.4 11.3917 15.2333 12.175 14.9C12.9583 14.55 13.6667 14.025 14.3 13.325L16.4 15.325C15.5833 16.275 14.5833 17 13.4 17.5C12.2167 18 10.9 18.25 9.45 18.25Z" fill="#1F7A8C"/>
</svg>
