<svg width="200" height="200" viewBox="0 0 200 200" fill="none" xmlns="http://www.w3.org/2000/svg">
<g clip-path="url(#clip0_54_418)">
<path d="M186.058 153.52C192.124 162.137 199.999 172.095 199.999 179.17C199.999 184.695 197.804 189.994 193.897 193.901C189.99 197.808 184.691 200.003 179.166 200.003C173.641 200.003 168.341 197.808 164.434 193.901C160.527 189.994 158.333 184.695 158.333 179.17C158.333 172.712 166.341 162.437 172.433 153.595C173.196 152.499 174.211 151.602 175.393 150.981C176.576 150.359 177.89 150.031 179.226 150.023C180.561 150.016 181.879 150.33 183.068 150.938C184.257 151.547 185.282 152.432 186.058 153.52ZM178.749 115.537L106.483 187.803C98.662 195.605 88.0665 199.986 77.02 199.986C65.9735 199.986 55.378 195.605 47.5575 187.803L12.2075 152.445C4.39367 144.631 0.00390625 134.033 0.00390625 122.982C0.00390625 111.932 4.39367 101.334 12.2075 93.52L59.7825 45.9366L35.9825 21.8533C34.471 20.2735 33.6409 18.1629 33.6713 15.9767C33.7016 13.7905 34.5899 11.7038 36.1447 10.1665C37.6994 8.62929 39.796 7.76464 41.9825 7.75904C44.1689 7.75345 46.2699 8.60736 47.8325 10.1366L71.5658 34.17L84.4659 21.2533L77.4408 14.2283C75.9229 12.6566 75.0829 10.5516 75.1019 8.36664C75.1209 6.18166 75.9973 4.09156 77.5424 2.54649C79.0874 1.00142 81.1775 0.125015 83.3625 0.106028C85.5475 0.0870411 87.6525 0.926995 89.2242 2.44498L197.558 110.778C198.353 111.547 198.988 112.467 199.425 113.483C199.862 114.5 200.092 115.593 200.101 116.7C200.111 117.806 199.9 118.904 199.481 119.928C199.062 120.952 198.443 121.883 197.661 122.665C196.878 123.447 195.948 124.066 194.924 124.485C193.9 124.904 192.802 125.115 191.696 125.105C190.589 125.096 189.496 124.866 188.479 124.429C187.462 123.992 186.543 123.358 185.774 122.562L178.749 115.537ZM166.966 103.753L96.2492 33.0366L83.2742 46.02L122.591 85.8367C123.444 86.5946 124.133 87.5197 124.614 88.5546C125.095 89.5896 125.358 90.7124 125.388 91.8533C125.417 92.9943 125.212 94.1291 124.784 95.1874C124.357 96.2457 123.717 97.205 122.904 98.0057C122.09 98.8064 121.121 99.4316 120.056 99.8423C118.991 100.253 117.854 100.441 116.713 100.394C115.573 100.347 114.454 100.066 113.427 99.5685C112.4 99.0713 111.485 98.3684 110.741 97.5033L71.4992 57.795L23.9992 105.295C21.6773 107.617 19.8354 110.373 18.5788 113.406C17.3221 116.44 16.6753 119.691 16.6753 122.974C16.6753 126.258 17.3221 129.509 18.5788 132.542C19.8354 135.576 21.6773 138.332 23.9992 140.653L59.3492 176.012C64.0431 180.691 70.4006 183.318 77.0284 183.318C83.6561 183.318 90.0136 180.691 94.7075 176.012L166.966 103.753Z" fill="#1F7A8C"/>
</g>
<defs>
<clipPath id="clip0_54_418">
<rect width="200" height="200" fill="white"/>
</clipPath>
</defs>
</svg>
