<svg width="70" height="70" viewBox="0 0 70 70" fill="none" xmlns="http://www.w3.org/2000/svg">
<g clip-path="url(#clip0_9_11)">
<path d="M39.3745 18.9581C39.3745 20.1184 38.9136 21.2312 38.0931 22.0516C37.2727 22.8721 36.1599 23.3331 34.9995 23.3331C33.8392 23.3331 32.7264 22.8721 31.9059 22.0516C31.0855 21.2312 30.6245 20.1184 30.6245 18.9581C30.6245 17.7977 31.0855 16.6849 31.9059 15.8645C32.7264 15.044 33.8392 14.5831 34.9995 14.5831C36.1599 14.5831 37.2727 15.044 38.0931 15.8645C38.9136 16.6849 39.3745 17.7977 39.3745 18.9581V18.9581ZM69.9995 55.4164V35.9914C70.1083 27.0006 66.8119 18.3015 60.7721 11.6406C54.7323 4.97978 46.3964 0.850327 37.4379 0.0813841C32.4377 -0.268448 27.4207 0.459792 22.7263 2.21683C18.0319 3.97387 13.7697 6.71871 10.228 10.2657C6.68635 13.8126 3.94782 18.0789 2.19775 22.7758C0.44767 27.4728 -0.273131 32.4909 0.084113 37.4906C1.37328 56.0231 17.7387 69.9997 38.1583 69.9997H55.4162C59.2825 69.9951 62.9892 68.4572 65.7231 65.7233C68.457 62.9893 69.9949 59.2827 69.9995 55.4164V55.4164ZM37.0412 5.90305C44.5267 6.56524 51.4843 10.0357 56.516 15.6172C61.5478 21.1986 64.2809 28.4775 64.1662 35.9914V55.4164C64.1662 57.737 63.2443 59.9626 61.6034 61.6036C59.9624 63.2445 57.7368 64.1664 55.4162 64.1664H38.1583C20.5591 64.1664 6.99953 52.7914 5.90578 37.0881C5.61864 33.0881 6.15946 29.0719 7.49444 25.2903C8.82942 21.5088 10.9299 18.0432 13.6646 15.11C16.3993 12.1768 19.7096 9.83913 23.3885 8.24294C27.0674 6.64675 31.0359 5.82637 35.0462 5.83305C35.7083 5.83305 36.3762 5.8593 37.0412 5.90305ZM40.8329 52.4997V34.9997C40.8329 33.4526 40.2183 31.9689 39.1243 30.8749C38.0304 29.781 36.5466 29.1664 34.9995 29.1664H32.0829C31.3093 29.1664 30.5675 29.4737 30.0205 30.0207C29.4735 30.5676 29.1662 31.3095 29.1662 32.0831C29.1662 32.8566 29.4735 33.5985 30.0205 34.1454C30.5675 34.6924 31.3093 34.9997 32.0829 34.9997H34.9995V52.4997C34.9995 53.2733 35.3068 54.0151 35.8538 54.5621C36.4008 55.1091 37.1426 55.4164 37.9162 55.4164C38.6897 55.4164 39.4316 55.1091 39.9786 54.5621C40.5256 54.0151 40.8329 53.2733 40.8329 52.4997Z" fill="#BFDBF7"/>
</g>
<defs>
<clipPath id="clip0_9_11">
<rect width="70" height="70" fill="white"/>
</clipPath>
</defs>
</svg>
