<svg width="17" height="16" viewBox="0 0 17 16" fill="none" xmlns="http://www.w3.org/2000/svg">
<path d="M12.8147 2.768C12.6248 2.768 12.4392 2.8243 12.2814 2.92979C12.1235 3.03528 12.0004 3.18521 11.9278 3.36062C11.8551 3.53604 11.8361 3.72906 11.8732 3.91529C11.9102 4.10151 12.0016 4.27256 12.1359 4.40682C12.2701 4.54108 12.4412 4.63251 12.6274 4.66955C12.8136 4.7066 13.0067 4.68758 13.1821 4.61492C13.3575 4.54226 13.5074 4.41922 13.6129 4.26135C13.7184 4.10348 13.7747 3.91787 13.7747 3.728C13.7747 3.47339 13.6736 3.22921 13.4935 3.04918C13.3135 2.86914 13.0693 2.768 12.8147 2.768V2.768ZM16.4947 4.704C16.4792 4.04024 16.3548 3.38352 16.1267 2.76C15.9233 2.22651 15.6067 1.74342 15.1987 1.344C14.8026 0.933941 14.3184 0.619341 13.7827 0.424C13.1608 0.188929 12.5034 0.061768 11.8387 0.048C10.9907 -4.47035e-08 10.7187 0 8.54271 0C6.36671 0 6.09471 -4.47035e-08 5.24671 0.048C4.58203 0.061768 3.92458 0.188929 3.30271 0.424C2.76805 0.621319 2.28426 0.935648 1.88671 1.344C1.47665 1.74014 1.16205 2.22435 0.966709 2.76C0.731638 3.38187 0.604477 4.03932 0.590709 4.704C0.542709 5.552 0.542709 5.824 0.542709 8C0.542709 10.176 0.542709 10.448 0.590709 11.296C0.604477 11.9607 0.731638 12.6181 0.966709 13.24C1.16205 13.7756 1.47665 14.2599 1.88671 14.656C2.28426 15.0644 2.76805 15.3787 3.30271 15.576C3.92458 15.8111 4.58203 15.9382 5.24671 15.952C6.09471 16 6.36671 16 8.54271 16C10.7187 16 10.9907 16 11.8387 15.952C12.5034 15.9382 13.1608 15.8111 13.7827 15.576C14.3184 15.3807 14.8026 15.0661 15.1987 14.656C15.6085 14.2581 15.9254 13.7746 16.1267 13.24C16.3548 12.6165 16.4792 11.9598 16.4947 11.296C16.4947 10.448 16.5427 10.176 16.5427 8C16.5427 5.824 16.5427 5.552 16.4947 4.704V4.704ZM15.0547 11.2C15.0489 11.7078 14.9569 12.211 14.7827 12.688C14.655 13.0362 14.4498 13.3507 14.1827 13.608C13.9232 13.8724 13.6093 14.0771 13.2627 14.208C12.7857 14.3822 12.2825 14.4742 11.7747 14.48C10.9747 14.52 10.6787 14.528 8.57471 14.528C6.47071 14.528 6.17471 14.528 5.37471 14.48C4.84742 14.4899 4.32239 14.4087 3.82271 14.24C3.49133 14.1025 3.19179 13.8982 2.94271 13.64C2.67718 13.383 2.47458 13.0682 2.35071 12.72C2.15539 12.2361 2.04706 11.7216 2.03071 11.2C2.03071 10.4 1.98271 10.104 1.98271 8C1.98271 5.896 1.98271 5.6 2.03071 4.8C2.0343 4.28084 2.12907 3.76636 2.31071 3.28C2.45155 2.94233 2.66772 2.64133 2.94271 2.4C3.18576 2.12493 3.48614 1.90648 3.82271 1.76C4.31035 1.58403 4.82431 1.49206 5.34271 1.488C6.14271 1.488 6.43871 1.44 8.54271 1.44C10.6467 1.44 10.9427 1.44 11.7427 1.488C12.2505 1.49382 12.7537 1.5858 13.2307 1.76C13.5943 1.89492 13.9205 2.11428 14.1827 2.4C14.4449 2.64574 14.6497 2.94619 14.7827 3.28C14.9605 3.76715 15.0525 4.28142 15.0547 4.8C15.0947 5.6 15.1027 5.896 15.1027 8C15.1027 10.104 15.0947 10.4 15.0547 11.2ZM8.54271 3.896C7.73136 3.89758 6.93868 4.13962 6.26483 4.59153C5.59099 5.04345 5.06621 5.68496 4.75682 6.435C4.44742 7.18505 4.36729 8.00997 4.52654 8.80554C4.6858 9.60111 5.0773 10.3316 5.65157 10.9048C6.22584 11.4779 6.95712 11.868 7.753 12.0257C8.54888 12.1834 9.37364 12.1017 10.1231 11.7908C10.8725 11.48 11.513 10.954 11.9636 10.2792C12.4142 9.6045 12.6547 8.81135 12.6547 8C12.6558 7.46008 12.5501 6.92529 12.3437 6.42636C12.1373 5.92744 11.8344 5.47425 11.4522 5.09284C11.0701 4.71143 10.6163 4.40934 10.1169 4.20394C9.61763 3.99854 9.08262 3.89389 8.54271 3.896V3.896ZM8.54271 10.664C8.01582 10.664 7.50076 10.5078 7.06267 10.215C6.62458 9.92231 6.28313 9.50625 6.08149 9.01947C5.87986 8.53269 5.82711 7.99705 5.9299 7.48028C6.03269 6.96351 6.28641 6.48883 6.65898 6.11627C7.03154 5.7437 7.50622 5.48998 8.02299 5.38719C8.53975 5.2844 9.0754 5.33715 9.56218 5.53878C10.049 5.74042 10.465 6.08187 10.7577 6.51996C11.0505 6.95805 11.2067 7.47311 11.2067 8C11.2067 8.34984 11.1378 8.69626 11.0039 9.01947C10.87 9.34268 10.6738 9.63636 10.4264 9.88373C10.1791 10.1311 9.88539 10.3273 9.56218 10.4612C9.23897 10.5951 8.89255 10.664 8.54271 10.664V10.664Z" fill="#024A65"/>
</svg>
