<svg width="70" height="70" viewBox="0 0 70 70" fill="none" xmlns="http://www.w3.org/2000/svg">
<path d="M64.1664 44.2866V23.3333C64.1617 19.467 62.6238 15.7603 59.8899 13.0264C57.156 10.2925 53.4493 8.7546 49.583 8.74997H20.4163C16.55 8.7546 12.8434 10.2925 10.1095 13.0264C7.37559 15.7603 5.83765 19.467 5.83302 23.3333V44.2866C3.88853 44.9715 2.24918 46.3225 1.20532 48.1003C0.161461 49.878 -0.219538 51.9679 0.129803 53.9997C0.479144 56.0314 1.53628 57.874 3.11397 59.201C4.69167 60.528 6.68811 61.2539 8.74968 61.25H61.2497C63.3113 61.2539 65.3077 60.528 66.8854 59.201C68.4631 57.874 69.5202 56.0314 69.8696 53.9997C70.2189 51.9679 69.8379 49.878 68.7941 48.1003C67.7502 46.3225 66.1108 44.9715 64.1664 44.2866ZM20.4163 14.5833H49.583C51.9037 14.5833 54.1293 15.5052 55.7702 17.1461C57.4111 18.7871 58.333 21.0127 58.333 23.3333V43.75H46.2259C45.3776 43.7494 44.5394 43.9339 43.7697 44.2905C42.9999 44.6472 42.3173 45.1674 41.7693 45.815L41.0489 46.6666H28.9476L28.2301 45.815C27.6821 45.1674 26.9994 44.6472 26.2297 44.2905C25.46 43.9339 24.6218 43.7494 23.7734 43.75H11.6663V23.3333C11.6663 21.0127 12.5882 18.7871 14.2292 17.1461C15.8701 15.5052 18.0957 14.5833 20.4163 14.5833ZM61.2497 55.4166H8.74968C7.97613 55.4166 7.23427 55.1093 6.68729 54.5624C6.14031 54.0154 5.83302 53.2735 5.83302 52.5C5.83302 51.7264 6.14031 50.9846 6.68729 50.4376C7.23427 49.8906 7.97613 49.5833 8.74968 49.5833H23.7764L24.4938 50.435C25.0415 51.0822 25.7237 51.6022 26.4929 51.9588C27.2621 52.3154 28.0998 52.5001 28.9476 52.5H41.0489C41.8972 52.5005 42.7354 52.3161 43.5051 51.9594C44.2748 51.6028 44.9575 51.0825 45.5055 50.435L46.2259 49.5833H61.2497C62.0232 49.5833 62.7651 49.8906 63.3121 50.4376C63.8591 50.9846 64.1664 51.7264 64.1664 52.5C64.1664 53.2735 63.8591 54.0154 63.3121 54.5624C62.7651 55.1093 62.0232 55.4166 61.2497 55.4166Z" fill="#1F7A8C"/>
</svg>
