<svg width="70" height="70" viewBox="0 0 70 70" fill="none" xmlns="http://www.w3.org/2000/svg">
<path d="M64.1662 44.2866V23.3333C64.1616 19.467 62.6237 15.7603 59.8898 13.0264C57.1559 10.2925 53.4492 8.7546 49.5829 8.74997H20.4162C16.5499 8.7546 12.8433 10.2925 10.1094 13.0264C7.37547 15.7603 5.83753 19.467 5.83289 23.3333V44.2866C3.88841 44.9715 2.24906 46.3225 1.2052 48.1003C0.161339 49.878 -0.21966 51.9679 0.129681 53.9997C0.479022 56.0314 1.53616 57.874 3.11385 59.201C4.69155 60.528 6.68798 61.2539 8.74956 61.25H61.2496C63.3111 61.2539 65.3076 60.528 66.8853 59.201C68.463 57.874 69.5201 56.0314 69.8694 53.9997C70.2188 51.9679 69.8378 49.878 68.7939 48.1003C67.7501 46.3225 66.1107 44.9715 64.1662 44.2866ZM20.4162 14.5833H49.5829C51.9035 14.5833 54.1291 15.5052 55.7701 17.1461C57.411 18.7871 58.3329 21.0127 58.3329 23.3333V43.75H46.2258C45.3775 43.7494 44.5392 43.9339 43.7695 44.2905C42.9998 44.6472 42.3172 45.1674 41.7691 45.815L41.0487 46.6666H28.9475L28.23 45.815C27.682 45.1674 26.9993 44.6472 26.2296 44.2905C25.4599 43.9339 24.6216 43.7494 23.7733 43.75H11.6662V23.3333C11.6662 21.0127 12.5881 18.7871 14.229 17.1461C15.87 15.5052 18.0956 14.5833 20.4162 14.5833ZM61.2496 55.4166H8.74956C7.97601 55.4166 7.23415 55.1093 6.68717 54.5624C6.14018 54.0154 5.83289 53.2735 5.83289 52.5C5.83289 51.7264 6.14018 50.9846 6.68717 50.4376C7.23415 49.8906 7.97601 49.5833 8.74956 49.5833H23.7762L24.4937 50.435C25.0414 51.0822 25.7236 51.6022 26.4928 51.9588C27.262 52.3154 28.0996 52.5001 28.9475 52.5H41.0487C41.8971 52.5005 42.7353 52.3161 43.505 51.9594C44.2747 51.6028 44.9574 51.0825 45.5054 50.435L46.2258 49.5833H61.2496C62.0231 49.5833 62.765 49.8906 63.312 50.4376C63.8589 50.9846 64.1662 51.7264 64.1662 52.5C64.1662 53.2735 63.8589 54.0154 63.312 54.5624C62.765 55.1093 62.0231 55.4166 61.2496 55.4166Z" fill="#BFDBF7"/>
</svg>
