<svg width="200" height="200" viewBox="0 0 200 200" fill="none" xmlns="http://www.w3.org/2000/svg">
<g clip-path="url(#clip0_54_916)">
<path d="M16.6667 91.6667H108.333C112.754 91.6667 116.993 89.9107 120.118 86.7851C123.244 83.6595 125 79.4203 125 75V16.6667C125 12.2464 123.244 8.00716 120.118 4.88155C116.993 1.75595 112.754 0 108.333 0L16.6667 0C12.2464 0 8.00716 1.75595 4.88155 4.88155C1.75595 8.00716 0 12.2464 0 16.6667L0 75C0 79.4203 1.75595 83.6595 4.88155 86.7851C8.00716 89.9107 12.2464 91.6667 16.6667 91.6667ZM16.6667 16.6667H108.333V75H16.6667V16.6667Z" fill="#1F7A8C"/>
<path d="M183.335 -6.10352e-05H158.335C153.914 -6.10352e-05 149.675 1.75589 146.55 4.88149C143.424 8.0071 141.668 12.2463 141.668 16.6666V74.9999C141.668 79.4202 143.424 83.6594 146.55 86.785C149.675 89.9107 153.914 91.6666 158.335 91.6666H183.335C187.755 91.6666 191.994 89.9107 195.12 86.785C198.245 83.6594 200.001 79.4202 200.001 74.9999V16.6666C200.001 12.2463 198.245 8.0071 195.12 4.88149C191.994 1.75589 187.755 -6.10352e-05 183.335 -6.10352e-05V-6.10352e-05ZM183.335 74.9999H158.335V16.6666H183.335V74.9999Z" fill="#1F7A8C"/>
<path d="M41.6667 108.336H16.6667C12.2464 108.336 8.00716 110.092 4.88155 113.218C1.75595 116.343 0 120.582 0 125.003L0 183.336C0 187.756 1.75595 191.995 4.88155 195.121C8.00716 198.247 12.2464 200.003 16.6667 200.003H41.6667C46.0869 200.003 50.3262 198.247 53.4518 195.121C56.5774 191.995 58.3333 187.756 58.3333 183.336V125.003C58.3333 120.582 56.5774 116.343 53.4518 113.218C50.3262 110.092 46.0869 108.336 41.6667 108.336ZM41.6667 183.336H16.6667V125.003H41.6667V183.336Z" fill="#1F7A8C"/>
<path d="M183.333 108.336H91.6667C87.2464 108.336 83.0072 110.092 79.8816 113.218C76.756 116.343 75 120.582 75 125.003V183.336C75 187.756 76.756 191.995 79.8816 195.121C83.0072 198.247 87.2464 200.003 91.6667 200.003H183.333C187.754 200.003 191.993 198.247 195.118 195.121C198.244 191.995 200 187.756 200 183.336V125.003C200 120.582 198.244 116.343 195.118 113.218C191.993 110.092 187.754 108.336 183.333 108.336ZM183.333 183.336H91.6667V125.003H183.333V183.336Z" fill="#1F7A8C"/>
</g>
<defs>
<clipPath id="clip0_54_916">
<rect width="200" height="200" fill="white"/>
</clipPath>
</defs>
</svg>
