<svg width="24" height="24" viewBox="0 0 24 24" fill="none" xmlns="http://www.w3.org/2000/svg">
<g clip-path="url(#clip0_409_177)">
<path d="M17.9942 2.28607C16.7736 1.19561 15.2788 0.458655 13.6706 0.154503C12.0623 -0.14965 10.4016 -0.00947863 8.86709 0.559931C7.33259 1.12934 5.98241 2.10643 4.96186 3.38604C3.94132 4.66566 3.28904 6.19935 3.07523 7.82207C2.88321 9.24492 3.03679 10.6931 3.52295 12.044C4.00912 13.3949 4.81357 14.6089 5.86823 15.5831C6.52043 16.155 7.04671 16.8562 7.41372 17.6422C7.78072 18.4282 7.98045 19.2818 8.00023 20.1491V20.3101C8.00129 21.2884 8.3904 22.2263 9.08218 22.9181C9.77396 23.6099 10.7119 23.999 11.6902 24.0001H12.3102C13.2886 23.999 14.2265 23.6099 14.9183 22.9181C15.6101 22.2263 15.9992 21.2884 16.0002 20.3101V19.7611C16.0152 18.9945 16.1956 18.2403 16.529 17.5499C16.8625 16.8595 17.3411 16.2493 17.9322 15.7611C18.8908 14.9215 19.6601 13.8878 20.189 12.7286C20.718 11.5693 20.9945 10.3108 21.0004 9.03654C21.0062 7.76229 20.7413 6.50134 20.223 5.33723C19.7048 4.17311 18.9451 3.13241 17.9942 2.28407V2.28607ZM12.3102 22.0001H11.6902C11.2422 21.9995 10.8126 21.8213 10.4958 21.5045C10.179 21.1877 10.0008 20.7581 10.0002 20.3101C10.0002 20.3101 9.99323 20.0501 9.99223 20.0001H14.0002V20.3101C13.9997 20.7581 13.8215 21.1877 13.5047 21.5045C13.1878 21.8213 12.7583 21.9995 12.3102 22.0001V22.0001ZM16.6102 14.2591C15.4717 15.2466 14.6494 16.5478 14.2462 18.0001H13.0002V10.8161C13.5831 10.61 14.0881 10.2288 14.4461 9.72477C14.8041 9.2207 14.9977 8.61833 15.0002 8.00007C15.0002 7.73486 14.8949 7.4805 14.7073 7.29296C14.5198 7.10543 14.2655 7.00007 14.0002 7.00007C13.735 7.00007 13.4807 7.10543 13.2931 7.29296C13.1056 7.4805 13.0002 7.73486 13.0002 8.00007C13.0002 8.26529 12.8949 8.51964 12.7073 8.70718C12.5198 8.89471 12.2655 9.00007 12.0002 9.00007C11.735 9.00007 11.4807 8.89471 11.2931 8.70718C11.1056 8.51964 11.0002 8.26529 11.0002 8.00007C11.0002 7.73486 10.8949 7.4805 10.7073 7.29296C10.5198 7.10543 10.2655 7.00007 10.0002 7.00007C9.73502 7.00007 9.48066 7.10543 9.29313 7.29296C9.10559 7.4805 9.00023 7.73486 9.00023 8.00007C9.0028 8.61833 9.19632 9.2207 9.55432 9.72477C9.91233 10.2288 10.4173 10.61 11.0002 10.8161V18.0001H9.67823C9.22722 16.5093 8.38135 15.1683 7.23023 14.1191C6.25319 13.2087 5.55696 12.0378 5.2237 10.7446C4.89045 9.45134 4.93408 8.08979 5.34944 6.82057C5.76481 5.55134 6.53457 4.42742 7.5679 3.58143C8.60123 2.73545 9.85499 2.2027 11.1812 2.04607C11.4562 2.01538 11.7326 2.00002 12.0092 2.00007C13.7268 1.99497 15.3849 2.6287 16.6612 3.77807C17.4009 4.43767 17.992 5.24696 18.3952 6.1523C18.7984 7.05763 19.0046 8.03834 19 9.02939C18.9955 10.0204 18.7803 10.9992 18.3689 11.9008C17.9574 12.8024 17.3589 13.6063 16.6132 14.2591H16.6102Z" fill="white"/>
</g>
<defs>
<clipPath id="clip0_409_177">
<rect width="24" height="24" fill="white"/>
</clipPath>
</defs>
</svg>
