<svg width="17" height="16" viewBox="0 0 17 16" fill="none" xmlns="http://www.w3.org/2000/svg">
<path d="M4.1284 15.2V4.94459H0.606791V15.2H4.1284ZM2.36805 3.54354C3.5961 3.54354 4.3605 2.75605 4.3605 1.77194C4.33762 0.765638 3.59615 0 2.39136 0C1.18675 0 0.399017 0.765654 0.399017 1.77194C0.399017 2.75609 1.16323 3.54354 2.34506 3.54354H2.36794H2.36805ZM6.0776 15.2H9.59921V9.47287C9.59921 9.16637 9.62209 8.86018 9.71509 8.64107C9.96968 8.02868 10.5491 7.39441 11.5219 7.39441C12.7963 7.39441 13.3061 8.33487 13.3061 9.7135V15.1999H16.8275V9.31957C16.8275 6.16951 15.0901 4.70382 12.7731 4.70382C10.8733 4.70382 10.0392 5.73167 9.57578 6.43174H9.59929V4.94437H6.07768C6.1239 5.90668 6.07768 15.1998 6.07768 15.1998L6.0776 15.2Z" fill="#BFDBF7"/>
</svg>
