<svg width="15" height="15" viewBox="0 0 15 15" fill="none" xmlns="http://www.w3.org/2000/svg">
<g clip-path="url(#clip0_98_219)">
<path d="M14.2682 5.73198L11.8438 3.3076C11.7259 3.19375 11.568 3.13076 11.4042 3.13218C11.2403 3.1336 11.0835 3.19933 10.9677 3.31521C10.8518 3.43109 10.786 3.58785 10.7846 3.75173C10.7832 3.9156 10.8462 4.07347 10.96 4.19135L13.3844 6.61573C13.4564 6.68918 13.5194 6.77102 13.5719 6.85948C13.5625 6.85948 13.555 6.85448 13.5457 6.85448L3.74316 6.87448C3.5774 6.87448 3.41843 6.94032 3.30122 7.05753C3.18401 7.17474 3.11816 7.33372 3.11816 7.49948C3.11816 7.66524 3.18401 7.82421 3.30122 7.94142C3.41843 8.05863 3.5774 8.12448 3.74316 8.12448L13.5419 8.10448C13.5594 8.10448 13.5738 8.09573 13.5907 8.09448C13.5352 8.2002 13.4649 8.29744 13.3819 8.38323L10.9575 10.8076C10.8978 10.8653 10.8502 10.9342 10.8175 11.0105C10.7847 11.0867 10.7675 11.1687 10.7668 11.2517C10.766 11.3347 10.7818 11.417 10.8133 11.4938C10.8447 11.5706 10.8911 11.6404 10.9498 11.6991C11.0085 11.7578 11.0783 11.8042 11.1551 11.8356C11.2319 11.867 11.3142 11.8829 11.3972 11.8821C11.4802 11.8814 11.5622 11.8642 11.6384 11.8314C11.7147 11.7987 11.7836 11.751 11.8413 11.6914L14.2657 9.26698C14.7343 8.79816 14.9976 8.16239 14.9976 7.49948C14.9976 6.83657 14.7343 6.2008 14.2657 5.73198H14.2682Z" fill="white"/>
<path d="M4.375 13.75H3.125C2.62772 13.75 2.15081 13.5525 1.79917 13.2008C1.44754 12.8492 1.25 12.3723 1.25 11.875V3.125C1.25 2.62772 1.44754 2.15081 1.79917 1.79917C2.15081 1.44754 2.62772 1.25 3.125 1.25H4.375C4.54076 1.25 4.69973 1.18415 4.81694 1.06694C4.93415 0.949732 5 0.79076 5 0.625C5 0.45924 4.93415 0.300269 4.81694 0.183058C4.69973 0.065848 4.54076 0 4.375 0L3.125 0C2.2965 0.000992411 1.50222 0.330551 0.916387 0.916387C0.330551 1.50222 0.000992411 2.2965 0 3.125L0 11.875C0.000992411 12.7035 0.330551 13.4978 0.916387 14.0836C1.50222 14.6694 2.2965 14.999 3.125 15H4.375C4.54076 15 4.69973 14.9342 4.81694 14.8169C4.93415 14.6997 5 14.5408 5 14.375C5 14.2092 4.93415 14.0503 4.81694 13.9331C4.69973 13.8158 4.54076 13.75 4.375 13.75Z" fill="white"/>
</g>
<defs>
<clipPath id="clip0_98_219">
<rect width="15" height="15" fill="white"/>
</clipPath>
</defs>
</svg>
