<svg width="128" height="34" viewBox="0 0 128 34" fill="none" xmlns="http://www.w3.org/2000/svg">
<path d="M16.1698 34C13.8639 34 11.7166 33.6232 9.72781 32.8696C7.76783 32.087 6.05286 31 4.58288 29.6087C3.14172 28.1884 2.01762 26.5217 1.21057 24.6087C0.403524 22.6957 0 20.6087 0 18.3478C0 16.087 0.403524 14 1.21057 12.087C2.01762 10.1739 3.15613 8.52174 4.62611 7.13043C6.09609 5.71014 7.81107 4.62319 9.77104 3.86957C11.731 3.08696 13.8783 2.69565 16.213 2.69565C18.6918 2.69565 20.9544 3.13043 23.0009 4C25.0473 4.84058 26.7767 6.10145 28.189 7.78261L24.5573 11.2174C23.462 10.029 22.237 9.14493 20.8824 8.56522C19.5277 7.95652 18.0577 7.65217 16.4724 7.65217C14.8871 7.65217 13.4316 7.91304 12.1057 8.43478C10.8087 8.95652 9.67016 9.69565 8.69017 10.6522C7.73901 11.6087 6.98961 12.7391 6.44197 14.0435C5.92315 15.3478 5.66374 16.7826 5.66374 18.3478C5.66374 19.913 5.92315 21.3478 6.44197 22.6522C6.98961 23.9565 7.73901 25.087 8.69017 26.0435C9.67016 27 10.8087 27.7391 12.1057 28.2609C13.4316 28.7826 14.8871 29.0435 16.4724 29.0435C18.0577 29.0435 19.5277 28.7536 20.8824 28.1739C22.237 27.5652 23.462 26.6522 24.5573 25.4348L28.189 28.913C26.7767 30.5652 25.0473 31.8261 23.0009 32.6957C20.9544 33.5652 18.6774 34 16.1698 34Z" fill="#1F7A8C"/>
<path d="M43.0209 33.8696C40.4556 33.8696 38.2074 33.3623 36.2763 32.3478C34.3739 31.3043 32.8895 29.8841 31.8231 28.087C30.7855 26.2899 30.2666 24.2464 30.2666 21.9565C30.2666 19.6377 30.7711 17.5942 31.7799 15.8261C32.8175 14.029 34.2298 12.6232 36.0169 11.6087C37.8327 10.5942 39.8936 10.087 42.1994 10.087C44.4476 10.087 46.4508 10.5797 48.209 11.5652C49.9673 12.5507 51.3508 13.942 52.3596 15.7391C53.3684 17.5362 53.8728 19.6522 53.8728 22.087C53.8728 22.3188 53.8584 22.5797 53.8295 22.8696C53.8295 23.1594 53.8151 23.4348 53.7863 23.6957H34.5469V20.087H50.9328L48.8143 21.2174C48.8432 19.8841 48.5693 18.7101 47.9929 17.6957C47.4164 16.6812 46.6238 15.8841 45.615 15.3043C44.635 14.7246 43.4965 14.4348 42.1994 14.4348C40.8736 14.4348 39.7062 14.7246 38.6974 15.3043C37.7174 15.8841 36.9392 16.6957 36.3627 17.7391C35.8151 18.7536 35.5413 19.9565 35.5413 21.3478V22.2174C35.5413 23.6087 35.8583 24.8406 36.4924 25.913C37.1265 26.9855 38.0201 27.8116 39.173 28.3913C40.3259 28.971 41.6518 29.2609 43.1506 29.2609C44.4476 29.2609 45.615 29.058 46.6526 28.6522C47.6902 28.2464 48.6126 27.6087 49.4196 26.7391L52.3163 30.087C51.2787 31.3043 49.9673 32.2464 48.382 32.913C46.8255 33.5507 45.0385 33.8696 43.0209 33.8696Z" fill="#1F7A8C"/>
<path d="M59.064 33.5652V10.3478H64.2089V16.7391L63.6036 14.8696C64.2954 13.3043 65.3763 12.1159 66.8462 11.3043C68.345 10.4928 70.2041 10.087 72.4235 10.087V15.2609C72.1929 15.2029 71.9767 15.1739 71.775 15.1739C71.5732 15.1449 71.3715 15.1304 71.1697 15.1304C69.1233 15.1304 67.4948 15.7391 66.2842 16.9565C65.0736 18.1449 64.4683 19.9275 64.4683 22.3043V33.5652H59.064Z" fill="#1F7A8C"/>
<path d="M86.5427 33.8696C84.0062 33.8696 82.0463 33.2174 80.6628 31.913C79.2793 30.5797 78.5875 28.6232 78.5875 26.0435V5.21739H83.9918V25.913C83.9918 27.0145 84.2656 27.8696 84.8133 28.4783C85.3897 29.087 86.1824 29.3913 87.1912 29.3913C88.4018 29.3913 89.4106 29.0725 90.2176 28.4348L91.7308 32.3044C91.0967 32.8261 90.3185 33.2174 89.3962 33.4783C88.4738 33.7391 87.5227 33.8696 86.5427 33.8696ZM74.7828 14.8696V10.5217H90.1744V14.8696H74.7828Z" fill="#1F7A8C"/>
<path d="M96.1766 33.5652V10.3478H101.581V33.5652H96.1766ZM98.9004 6.52174C97.8915 6.52174 97.0557 6.2029 96.3928 5.56522C95.7586 4.92754 95.4416 4.15942 95.4416 3.26087C95.4416 2.33333 95.7586 1.56522 96.3928 0.956519C97.0557 0.318839 97.8915 0 98.9004 0C99.9092 0 100.731 0.304347 101.365 0.913041C102.028 1.49275 102.359 2.23188 102.359 3.13043C102.359 4.08696 102.042 4.89855 101.408 5.56522C100.774 6.2029 99.938 6.52174 98.9004 6.52174Z" fill="#1F7A8C"/>
<path d="M122.898 33.5652V28.8696L122.596 27.8696V19.6522C122.596 18.058 122.12 16.8261 121.169 15.9565C120.218 15.058 118.777 14.6087 116.845 14.6087C115.548 14.6087 114.266 14.8116 112.998 15.2174C111.758 15.6232 110.706 16.1884 109.841 16.913L107.723 12.9565C108.962 12 110.432 11.2899 112.133 10.8261C113.862 10.3333 115.649 10.087 117.494 10.087C120.837 10.087 123.417 10.8986 125.233 12.5217C127.078 14.1159 128 16.5942 128 19.9565V33.5652H122.898ZM115.635 33.8696C113.906 33.8696 112.392 33.5797 111.095 33C109.798 32.3913 108.789 31.5652 108.069 30.5217C107.377 29.4493 107.031 28.2464 107.031 26.913C107.031 25.6087 107.334 24.4348 107.939 23.3913C108.573 22.3478 109.596 21.5217 111.009 20.913C112.421 20.3043 114.295 20 116.629 20H123.331V23.6087H117.018C115.174 23.6087 113.934 23.913 113.3 24.5217C112.666 25.1015 112.349 25.8261 112.349 26.6957C112.349 27.6812 112.738 28.4638 113.516 29.0435C114.295 29.6232 115.375 29.913 116.759 29.913C118.085 29.913 119.267 29.6087 120.304 29C121.371 28.3913 122.135 27.4928 122.596 26.3043L123.504 29.5652C122.985 30.9275 122.048 31.9855 120.693 32.7391C119.367 33.4928 117.681 33.8696 115.635 33.8696Z" fill="#1F7A8C"/>
<path d="M98.9007 6.52174C97.8919 6.52174 97.056 6.2029 96.3931 5.56522C95.759 4.92754 95.4419 4.15942 95.4419 3.26087C95.4419 2.33333 95.759 1.56522 96.3931 0.956519C97.056 0.318839 97.8919 0 98.9007 0C99.9095 0 100.731 0.304347 101.365 0.913042C102.028 1.49275 102.359 2.23188 102.359 3.13043C102.359 4.08696 102.042 4.89855 101.408 5.56522C100.774 6.2029 99.9383 6.52174 98.9007 6.52174Z" fill="#BFDBF7"/>
</svg>
