<svg width="200" height="200" viewBox="0 0 200 200" fill="none" xmlns="http://www.w3.org/2000/svg">
<g clip-path="url(#clip0_22_93)">
<path d="M99.9905 99.9999C106.583 99.9999 113.028 98.0449 118.51 94.3822C123.991 90.7195 128.264 85.5135 130.786 79.4227C133.309 73.3318 133.97 66.6296 132.683 60.1635C131.397 53.6975 128.222 47.7581 123.561 43.0963C118.899 38.4346 112.96 35.2599 106.494 33.9737C100.027 32.6875 93.3253 33.3476 87.2344 35.8706C81.1435 38.3935 75.9376 42.6659 72.2749 48.1475C68.6121 53.6292 66.6572 60.0738 66.6572 66.6665C66.6572 75.5071 70.1691 83.9856 76.4203 90.2368C82.6715 96.488 91.15 99.9999 99.9905 99.9999ZM99.9905 49.9999C103.287 49.9999 106.509 50.9774 109.25 52.8087C111.991 54.6401 114.127 57.243 115.388 60.2885C116.65 63.3339 116.98 66.685 116.337 69.918C115.694 73.1511 114.106 76.1208 111.776 78.4517C109.445 80.7825 106.475 82.3699 103.242 83.013C100.009 83.6561 96.6579 83.326 93.6124 82.0645C90.567 80.8031 87.964 78.6669 86.1327 75.926C84.3013 73.1852 83.3238 69.9629 83.3238 66.6665C83.3238 62.2463 85.0798 58.007 88.2054 54.8814C91.331 51.7558 95.5702 49.9999 99.9905 49.9999ZM172.157 76.3082L166.166 74.3165C167.244 64.9826 166.337 55.5261 163.504 46.5673C160.671 37.6084 155.976 29.3496 149.728 22.3323C143.479 15.315 135.818 9.69787 127.247 5.84916C118.675 2.00044 109.387 0.00710694 99.9905 -0.00012207C90.4718 0.00355267 81.0645 2.04733 72.4023 5.9935C63.7401 9.93968 56.0244 15.6966 49.7749 22.8763C43.5253 30.0561 38.8873 38.4919 36.1731 47.6155C33.4589 56.739 32.7317 66.3383 34.0405 75.7665C26.0658 77.2535 18.6915 81.0158 12.8072 86.5999C8.73361 90.4728 5.49525 95.1379 3.29115 100.308C1.08706 105.479 -0.0361755 111.046 -0.00949976 116.667V150.625C0.00801353 159.636 2.93877 168.4 8.34542 175.609C13.7521 182.818 21.3448 188.085 29.9905 190.625L53.9072 198.125C57.9244 199.375 62.1083 200.007 66.3155 200C70.1321 199.995 73.9304 199.474 77.6072 198.45L125.774 184.2C130.065 183.029 134.591 183.029 138.882 184.2L158.774 190.867C163.676 192.06 168.786 192.125 173.717 191.056C178.648 189.987 183.272 187.813 187.241 184.698C191.21 181.582 194.419 177.606 196.628 173.069C198.836 168.533 199.986 163.554 199.991 158.508V115.6C199.972 106.978 197.287 98.5735 192.304 91.5377C187.321 84.5019 180.284 79.1795 172.157 76.2999V76.3082ZM64.6405 31.3499C69.276 26.6956 74.7849 23.0026 80.8512 20.4826C86.9175 17.9627 93.4217 16.6655 99.9905 16.6655C106.559 16.6655 113.064 17.9627 119.13 20.4826C125.196 23.0026 130.705 26.6956 135.341 31.3499C144.692 40.7594 149.948 53.4817 149.965 66.7477C149.982 80.0137 144.759 92.7495 135.432 102.183L105.824 130.975C104.278 132.49 102.201 133.339 100.036 133.339C97.8721 133.339 95.7942 132.49 94.2488 130.975L64.6405 102.308C55.2694 92.8781 50.0097 80.1235 50.0097 66.829C50.0097 53.5345 55.2694 40.78 64.6405 31.3499V31.3499ZM183.324 158.508C183.329 161.032 182.758 163.524 181.655 165.794C180.552 168.064 178.945 170.053 176.957 171.608C175.079 173.118 172.891 174.196 170.549 174.765C168.207 175.334 165.769 175.38 163.407 174.9L143.866 168.333C136.474 166.21 128.64 166.163 121.224 168.2L73.0238 182.433C68.3928 183.711 63.4918 183.627 58.9072 182.192L34.7905 174.692C29.5709 173.182 24.9818 170.02 21.7122 165.681C18.4425 161.341 16.6687 156.058 16.6572 150.625V116.667C16.6384 113.298 17.3089 109.961 18.6274 106.862C19.9458 103.762 21.8844 100.964 24.3238 98.6415C28.1426 95.0021 33.0073 92.6528 38.2322 91.9249C41.5914 100.251 46.5937 107.816 52.9405 114.167L82.6655 142.942C87.3114 147.491 93.5549 150.038 100.057 150.038C106.559 150.038 112.803 147.491 117.449 142.942L147.141 114.083C153.788 107.409 158.939 99.3947 162.249 90.5749L166.724 92.0582C171.577 93.7972 175.775 96.9912 178.746 101.204C181.717 105.417 183.316 110.445 183.324 115.6V158.508Z" fill="#1F7A8C"/>
</g>
<defs>
<clipPath id="clip0_22_93">
<rect width="200" height="200" fill="white"/>
</clipPath>
</defs>
</svg>
