<svg width="15" height="15" viewBox="0 0 15 15" fill="none" xmlns="http://www.w3.org/2000/svg">
<g clip-path="url(#clip0_98_231)">
<path d="M11.875 12.5002H3.125C2.2965 12.4992 1.50222 12.1696 0.916387 11.5838C0.330551 10.998 0.000992411 10.2037 0 9.37518L0 5.62518C0.000992411 4.79669 0.330551 4.00241 0.916387 3.41657C1.50222 2.83073 2.2965 2.50118 3.125 2.50018H11.875C12.7035 2.50118 13.4978 2.83073 14.0836 3.41657C14.6694 4.00241 14.999 4.79669 15 5.62518V9.37518C14.999 10.2037 14.6694 10.998 14.0836 11.5838C13.4978 12.1696 12.7035 12.4992 11.875 12.5002ZM3.125 3.75018C2.62772 3.75018 2.15081 3.94773 1.79917 4.29936C1.44754 4.65099 1.25 5.1279 1.25 5.62518V9.37518C1.25 9.87246 1.44754 10.3494 1.79917 10.701C2.15081 11.0526 2.62772 11.2502 3.125 11.2502H11.875C12.3723 11.2502 12.8492 11.0526 13.2008 10.701C13.5525 10.3494 13.75 9.87246 13.75 9.37518V5.62518C13.75 5.1279 13.5525 4.65099 13.2008 4.29936C12.8492 3.94773 12.3723 3.75018 11.875 3.75018H3.125ZM7.5 10.0002C7.00555 10.0002 6.5222 9.85356 6.11107 9.57886C5.69995 9.30415 5.37952 8.91371 5.1903 8.45689C5.00108 8.00008 4.95157 7.49741 5.04804 7.01246C5.1445 6.5275 5.3826 6.08205 5.73223 5.73242C6.08186 5.38278 6.52732 5.14468 7.01227 5.04822C7.49723 4.95176 7.99989 5.00126 8.45671 5.19048C8.91352 5.3797 9.30397 5.70013 9.57867 6.11126C9.85338 6.52238 10 7.00573 10 7.50018C10 8.16322 9.73661 8.79911 9.26777 9.26795C8.79893 9.73679 8.16304 10.0002 7.5 10.0002ZM7.5 6.25018C7.25277 6.25018 7.0111 6.32349 6.80554 6.46085C6.59998 6.5982 6.43976 6.79342 6.34515 7.02183C6.25054 7.25024 6.22579 7.50157 6.27402 7.74405C6.32225 7.98652 6.4413 8.20925 6.61612 8.38407C6.79093 8.55888 7.01366 8.67793 7.25614 8.72616C7.49861 8.7744 7.74995 8.74964 7.97835 8.65503C8.20676 8.56042 8.40199 8.40021 8.53934 8.19465C8.67669 7.98908 8.75 7.74741 8.75 7.50018C8.75 7.16866 8.6183 6.85072 8.38388 6.6163C8.14946 6.38188 7.83152 6.25018 7.5 6.25018ZM3.125 5.00018C3.00139 5.00018 2.88055 5.03684 2.77777 5.10551C2.67499 5.17419 2.59488 5.2718 2.54758 5.38601C2.50027 5.50021 2.48789 5.62588 2.51201 5.74711C2.53612 5.86835 2.59565 5.97972 2.68306 6.06712C2.77047 6.15453 2.88183 6.21406 3.00307 6.23817C3.12431 6.26229 3.24997 6.24991 3.36418 6.20261C3.47838 6.1553 3.57599 6.0752 3.64467 5.97241C3.71334 5.86963 3.75 5.7488 3.75 5.62518C3.75 5.45942 3.68415 5.30045 3.56694 5.18324C3.44973 5.06603 3.29076 5.00018 3.125 5.00018ZM11.25 5.62518C11.25 5.7488 11.2867 5.86963 11.3553 5.97241C11.424 6.0752 11.5216 6.1553 11.6358 6.20261C11.75 6.24991 11.8757 6.26229 11.9969 6.23817C12.1182 6.21406 12.2295 6.15453 12.3169 6.06712C12.4044 5.97972 12.4639 5.86835 12.488 5.74711C12.5121 5.62588 12.4997 5.50021 12.4524 5.38601C12.4051 5.2718 12.325 5.17419 12.2222 5.10551C12.1195 5.03684 11.9986 5.00018 11.875 5.00018C11.7092 5.00018 11.5503 5.06603 11.4331 5.18324C11.3158 5.30045 11.25 5.45942 11.25 5.62518ZM3.125 8.75018C3.00139 8.75018 2.88055 8.78684 2.77777 8.85551C2.67499 8.92419 2.59488 9.0218 2.54758 9.13601C2.50027 9.25021 2.48789 9.37588 2.51201 9.49711C2.53612 9.61835 2.59565 9.72972 2.68306 9.81712C2.77047 9.90453 2.88183 9.96406 3.00307 9.98817C3.12431 10.0123 3.24997 9.99991 3.36418 9.95261C3.47838 9.9053 3.57599 9.8252 3.64467 9.72241C3.71334 9.61963 3.75 9.4988 3.75 9.37518C3.75 9.20942 3.68415 9.05045 3.56694 8.93324C3.44973 8.81603 3.29076 8.75018 3.125 8.75018ZM11.25 9.37518C11.25 9.4988 11.2867 9.61963 11.3553 9.72241C11.424 9.8252 11.5216 9.9053 11.6358 9.95261C11.75 9.99991 11.8757 10.0123 11.9969 9.98817C12.1182 9.96406 12.2295 9.90453 12.3169 9.81712C12.4044 9.72972 12.4639 9.61835 12.488 9.49711C12.5121 9.37588 12.4997 9.25021 12.4524 9.13601C12.4051 9.0218 12.325 8.92419 12.2222 8.85551C12.1195 8.78684 11.9986 8.75018 11.875 8.75018C11.7092 8.75018 11.5503 8.81603 11.4331 8.93324C11.3158 9.05045 11.25 9.20942 11.25 9.37518Z" fill="#1F7A8C"/>
</g>
<defs>
<clipPath id="clip0_98_231">
<rect width="15" height="15" fill="white"/>
</clipPath>
</defs>
</svg>
