<svg width="200" height="200" viewBox="0 0 200 200" fill="none" xmlns="http://www.w3.org/2000/svg">
<g clip-path="url(#clip0_27_69)">
<path d="M192.658 7.35016C189.67 4.32622 185.953 2.12395 181.866 0.956127C177.778 -0.211697 173.459 -0.3056 169.325 0.68349L35.9912 28.7668C28.3126 29.8199 21.0806 32.9958 15.1095 37.9369C9.13842 42.8781 4.66544 49.3881 2.19429 56.734C-0.276865 64.0799 -0.648028 71.9698 1.1226 79.5153C2.89322 87.0607 6.7353 93.962 12.2162 99.4418L26.5328 113.75C27.3077 114.525 27.9222 115.445 28.3412 116.457C28.7601 117.469 28.9754 118.554 28.9745 119.65V146.05C28.9929 149.762 29.8474 153.422 31.4745 156.758L31.4078 156.817L31.6245 157.033C34.0663 161.943 38.0544 165.913 42.9745 168.333L43.1912 168.55L43.2495 168.483C46.5858 170.111 50.2459 170.965 53.9578 170.983H80.3578C82.5666 170.982 84.6857 171.857 86.2495 173.417L100.558 187.725C104.396 191.605 108.963 194.688 113.998 196.794C119.032 198.901 124.434 199.991 129.891 200C134.439 199.994 138.956 199.252 143.266 197.8C150.545 195.41 157.011 191.034 161.935 185.164C166.859 179.295 170.044 172.167 171.133 164.583L199.258 30.9585C200.298 26.7888 200.237 22.4203 199.08 18.2815C197.923 14.1427 195.71 10.3757 192.658 7.35016ZM38.3328 101.983L24.0078 87.6752C20.6722 84.4198 18.3343 80.2805 17.2685 75.7431C16.2028 71.2057 16.4535 66.4584 17.9912 62.0585C19.482 57.5445 22.2379 53.5537 25.9311 50.5607C29.6244 47.5677 34.0996 45.6984 38.8245 45.1752L170.833 17.3835L45.6245 142.608V119.65C45.6371 116.37 44.9992 113.119 43.7476 110.087C42.496 107.054 40.6556 104.3 38.3328 101.983ZM154.758 161.733C154.118 166.336 152.208 170.67 149.242 174.247C146.276 177.825 142.372 180.505 137.967 181.986C133.563 183.468 128.832 183.693 124.307 182.635C119.782 181.578 115.641 179.28 112.35 176L98.0162 161.667C95.7026 159.341 92.9507 157.496 89.9197 156.24C86.8887 154.984 83.6387 154.342 80.3578 154.35H57.3995L182.625 29.1668L154.758 161.733Z" fill="#1F7A8C"/>
</g>
<defs>
<clipPath id="clip0_27_69">
<rect width="200" height="200" fill="white"/>
</clipPath>
</defs>
</svg>
