<svg width="40" height="40" viewBox="0 0 40 40" fill="none" xmlns="http://www.w3.org/2000/svg">
<g clip-path="url(#clip0_88_316)">
<path d="M21.666 1.66683C21.666 1.2248 21.8416 0.800875 22.1541 0.488315C22.4667 0.175754 22.8906 0.000159172 23.3326 0.000159172C27.7514 0.00501183 31.9878 1.76252 35.1124 4.88707C38.2369 8.01163 39.9944 12.248 39.9993 16.6668C39.9993 17.1089 39.8237 17.5328 39.5111 17.8453C39.1986 18.1579 38.7746 18.3335 38.3326 18.3335C37.8906 18.3335 37.4667 18.1579 37.1541 17.8453C36.8415 17.5328 36.6659 17.1089 36.6659 16.6668C36.662 13.1318 35.2559 9.74275 32.7563 7.24312C30.2567 4.7435 26.8676 3.33746 23.3326 3.33349C22.8906 3.33349 22.4667 3.1579 22.1541 2.84534C21.8416 2.53278 21.666 2.10885 21.666 1.66683ZM23.3326 10.0002C25.1007 10.0002 26.7964 10.7025 28.0467 11.9528C29.2969 13.203 29.9993 14.8987 29.9993 16.6668C29.9993 17.1089 30.1749 17.5328 30.4874 17.8453C30.8 18.1579 31.2239 18.3335 31.666 18.3335C32.108 18.3335 32.5319 18.1579 32.8445 17.8453C33.157 17.5328 33.3326 17.1089 33.3326 16.6668C33.33 14.0155 32.2756 11.4735 30.4008 9.59868C28.526 7.72389 25.984 6.66947 23.3326 6.66683C22.8906 6.66683 22.4667 6.84242 22.1541 7.15498C21.8416 7.46754 21.666 7.89147 21.666 8.33349C21.666 8.77552 21.8416 9.19944 22.1541 9.512C22.4667 9.82456 22.8906 10.0002 23.3326 10.0002ZM38.4876 27.8985C39.4535 28.867 39.9958 30.179 39.9958 31.5468C39.9958 32.9146 39.4535 34.2266 38.4876 35.1952L36.9709 36.9435C23.321 50.0118 -9.89566 16.8035 2.97099 3.11016L4.88765 1.44349C5.85727 0.504621 7.15754 -0.014759 8.50715 -0.00228276C9.85677 0.0101935 11.1472 0.553523 12.0993 1.51016C12.151 1.56183 15.2393 5.57349 15.2393 5.57349C16.1557 6.53621 16.6658 7.81504 16.6636 9.14417C16.6615 10.4733 16.1472 11.7504 15.2276 12.7102L13.2976 15.1368C14.3657 17.732 15.9361 20.0906 17.9185 22.077C19.9009 24.0634 22.2563 25.6385 24.8493 26.7118L27.291 24.7702C28.2508 23.8514 29.5277 23.3377 30.8564 23.3358C32.1852 23.3339 33.4635 23.844 34.4259 24.7602C34.4259 24.7602 38.4359 27.8468 38.4876 27.8985ZM36.1943 30.3218C36.1943 30.3218 32.2059 27.2535 32.1543 27.2018C31.8109 26.8614 31.347 26.6704 30.8635 26.6704C30.3799 26.6704 29.916 26.8614 29.5726 27.2018C29.5276 27.2485 26.166 29.9268 26.166 29.9268C25.9394 30.1071 25.6698 30.2253 25.3837 30.2698C25.0976 30.3142 24.8048 30.2833 24.5343 30.1802C21.1751 28.9294 18.1239 26.9714 15.5874 24.4386C13.0509 21.9059 11.0883 18.8575 9.83265 15.5002C9.72131 15.2259 9.68501 14.927 9.72749 14.6341C9.76996 14.3411 9.88967 14.0648 10.0743 13.8335C10.0743 13.8335 12.7526 10.4702 12.7976 10.4268C13.1381 10.0835 13.3291 9.61952 13.3291 9.13599C13.3291 8.65247 13.1381 8.18852 12.7976 7.84516C12.746 7.79516 9.67765 3.80349 9.67765 3.80349C9.32915 3.491 8.87432 3.32365 8.40639 3.33574C7.93847 3.34782 7.49289 3.53843 7.16098 3.86849L5.24432 5.53516C-4.159 16.8418 24.626 44.0302 34.5343 34.6668L36.0526 32.9168C36.4084 32.5873 36.6221 32.1323 36.6486 31.648C36.675 31.1637 36.5121 30.6882 36.1943 30.3218Z" fill="#374957"/>
</g>
<defs>
<clipPath id="clip0_88_316">
<rect width="40" height="40" fill="white"/>
</clipPath>
</defs>
</svg>
