<svg width="30" height="30" viewBox="0 0 30 30" fill="none" xmlns="http://www.w3.org/2000/svg">
<g clip-path="url(#clip0_31_36)">
<path d="M16.2498 1.21224C16.2498 0.890795 16.3815 0.582514 16.616 0.355217C16.8504 0.127921 17.1683 0.000226564 17.4998 0.000226564C20.8139 0.00375546 23.9912 1.28183 26.3346 3.55403C28.6781 5.82624 29.9962 8.90699 29.9998 12.1204C29.9998 12.4418 29.8681 12.7501 29.6337 12.9774C29.3993 13.2047 29.0813 13.3324 28.7498 13.3324C28.4183 13.3324 28.1004 13.2047 27.8659 12.9774C27.6315 12.7501 27.4998 12.4418 27.4998 12.1204C27.4968 9.54969 26.4423 7.08512 24.5676 5.26737C22.6929 3.44962 20.1511 2.42714 17.4998 2.42426C17.1683 2.42426 16.8504 2.29656 16.616 2.06927C16.3815 1.84197 16.2498 1.53369 16.2498 1.21224V1.21224ZM17.4998 7.27232C18.8259 7.27232 20.0977 7.78309 21.0354 8.69228C21.973 9.60147 22.4998 10.8346 22.4998 12.1204C22.4998 12.4418 22.6315 12.7501 22.8659 12.9774C23.1004 13.2047 23.4183 13.3324 23.7498 13.3324C24.0813 13.3324 24.3993 13.2047 24.6337 12.9774C24.8681 12.7501 24.9998 12.4418 24.9998 12.1204C24.9978 10.1923 24.207 8.34372 22.8009 6.98036C21.3948 5.61699 19.4884 4.85021 17.4998 4.84829C17.1683 4.84829 16.8504 4.97598 16.616 5.20328C16.3815 5.43057 16.2498 5.73885 16.2498 6.0603C16.2498 6.38175 16.3815 6.69003 16.616 6.91732C16.8504 7.14462 17.1683 7.27232 17.4998 7.27232V7.27232ZM28.8661 20.2881C29.5905 20.9925 29.9972 21.9466 29.9972 22.9412C29.9972 23.9359 29.5905 24.89 28.8661 25.5943L27.7286 26.8657C17.4911 36.3692 -7.42138 12.2198 2.22861 2.26185L3.66611 1.04983C4.39332 0.367076 5.36852 -0.0106221 6.38073 -0.00154923C7.39295 0.00752363 8.36078 0.402638 9.07485 1.09831C9.1136 1.13588 11.4298 4.0532 11.4298 4.0532C12.1171 4.7533 12.4997 5.68328 12.4981 6.64983C12.4965 7.61638 12.1107 8.54514 11.4211 9.24305L9.9736 11.0077C10.7747 12.895 11.9524 14.6102 13.4392 16.0547C14.926 17.4992 16.6926 18.6447 18.6373 19.4252L20.4686 18.0132C21.1885 17.345 22.1462 16.9715 23.1427 16.9701C24.1392 16.9687 25.098 17.3397 25.8198 18.0059C25.8198 18.0059 28.8273 20.2506 28.8661 20.2881ZM27.1461 22.0504C27.1461 22.0504 24.1548 19.8191 24.1161 19.7815C23.8586 19.5339 23.5106 19.395 23.148 19.395C22.7853 19.395 22.4373 19.5339 22.1798 19.7815C22.1461 19.8155 19.6248 21.7632 19.6248 21.7632C19.4549 21.8943 19.2527 21.9802 19.0381 22.0125C18.8236 22.0449 18.604 22.0224 18.4011 21.9474C15.8817 21.0379 13.5933 19.6139 11.6909 17.7721C9.78851 15.9302 8.3166 13.7135 7.37485 11.272C7.29135 11.0725 7.26413 10.8551 7.29598 10.6421C7.32784 10.4291 7.41762 10.2282 7.5561 10.06C7.5561 10.06 9.56485 7.6141 9.5986 7.58259C9.85393 7.3329 9.9972 6.99551 9.9972 6.64389C9.9972 6.29226 9.85393 5.95487 9.5986 5.70518C9.55985 5.66882 7.2586 2.76604 7.2586 2.76604C6.99723 2.5388 6.65611 2.4171 6.30516 2.42589C5.95422 2.43468 5.62003 2.57329 5.3711 2.81331L3.93361 4.02533C-3.11889 12.2476 18.4698 32.0192 25.9011 25.2101L27.0398 23.9375C27.3067 23.6979 27.467 23.367 27.4868 23.0148C27.5066 22.6627 27.3844 22.3168 27.1461 22.0504V22.0504Z" fill="#024A65"/>
</g>
<defs>
<clipPath id="clip0_31_36">
<rect width="30" height="29.0884" fill="white"/>
</clipPath>
</defs>
</svg>
