<svg width="56" height="56" viewBox="0 0 56 56" fill="none" xmlns="http://www.w3.org/2000/svg">
<g clip-path="url(#clip0_41_73)">
<path d="M55.3158 52.0187L41.3882 38.091C45.1836 33.4491 47.0497 27.5259 46.6005 21.5467C46.1512 15.5674 43.421 9.98959 38.9745 5.9669C34.5281 1.94421 28.7055 -0.215563 22.7113 -0.0656887C16.7171 0.0841856 11.0098 2.53224 6.76992 6.77212C2.53005 11.012 0.0819883 16.7193 -0.0678859 22.7135C-0.21776 28.7077 1.94202 34.5303 5.96471 38.9767C9.9874 43.4232 15.5652 46.1534 21.5445 46.6027C27.5237 47.0519 33.4469 45.1858 38.0888 41.3904L52.0165 55.318C52.4566 55.7431 53.046 55.9783 53.6578 55.9729C54.2696 55.9676 54.8548 55.7222 55.2874 55.2896C55.72 54.857 55.9654 54.2718 55.9707 53.66C55.9761 53.0482 55.7409 52.4588 55.3158 52.0187ZM23.3328 42.0017C19.6409 42.0017 16.0319 40.9069 12.9622 38.8558C9.89246 36.8047 7.49991 33.8893 6.08707 30.4784C4.67424 27.0676 4.30457 23.3143 5.02483 19.6933C5.74509 16.0724 7.52292 12.7463 10.1335 10.1357C12.7441 7.52512 16.0702 5.74729 19.6911 5.02703C23.3121 4.30677 27.0654 4.67643 30.4762 6.08927C33.8871 7.50211 36.8025 9.89466 38.8536 12.9644C40.9047 16.0341 41.9995 19.6431 41.9995 23.335C41.9939 28.284 40.0255 33.0287 36.526 36.5282C33.0265 40.0277 28.2818 41.9961 23.3328 42.0017Z" fill="white"/>
</g>
<defs>
<clipPath id="clip0_41_73">
<rect width="56" height="56" fill="white"/>
</clipPath>
</defs>
</svg>
