<svg width="70" height="70" viewBox="0 0 70 70" fill="none" xmlns="http://www.w3.org/2000/svg">
<g clip-path="url(#clip0_10_18)">
<path d="M35 70C28.0777 70 21.3108 67.9473 15.5551 64.1014C9.79934 60.2556 5.3133 54.7893 2.66423 48.3939C0.015165 41.9985 -0.677952 34.9612 0.672531 28.1719C2.02301 21.3825 5.35644 15.1461 10.2513 10.2513C15.1461 5.35644 21.3825 2.02301 28.1719 0.672531C34.9612 -0.677952 41.9985 0.015165 48.3939 2.66423C54.7893 5.3133 60.2556 9.79934 64.1014 15.5551C67.9473 21.3108 70 28.0777 70 35C69.99 44.2795 66.2993 53.1761 59.7377 59.7377C53.1761 66.2993 44.2795 69.99 35 70ZM35 5.83335C29.2314 5.83335 23.5923 7.54394 18.7959 10.7488C13.9994 13.9537 10.2611 18.5089 8.05353 23.8384C5.84597 29.1679 5.26838 35.0324 6.39378 40.6901C7.51918 46.3479 10.297 51.5449 14.3761 55.624C18.4551 59.703 23.6521 62.4809 29.3099 63.6063C34.9677 64.7317 40.8321 64.1541 46.1616 61.9465C51.4911 59.7389 56.0463 56.0006 59.2512 51.2041C62.4561 46.4077 64.1667 40.7686 64.1667 35C64.1582 27.2671 61.0826 19.8534 55.6146 14.3854C50.1466 8.91748 42.7329 5.84184 35 5.83335ZM51.5258 45.9258C52.1037 45.4114 52.4535 44.6886 52.4984 43.9162C52.5432 43.1439 52.2794 42.3854 51.765 41.8075C51.2506 41.2297 50.5277 40.8798 49.7554 40.835C48.983 40.7901 48.2245 41.0539 47.6467 41.5683C44.0811 44.5704 39.6507 46.3565 35 46.6667C30.3521 46.3567 25.924 44.5728 22.3592 41.5742C21.7821 41.059 21.024 40.7942 20.2517 40.8379C19.4794 40.8817 18.756 41.2304 18.2408 41.8075C17.7257 42.3846 17.4608 43.1427 17.5046 43.915C17.5483 44.6873 17.8971 45.4107 18.4742 45.9258C23.1055 49.8824 28.9165 52.1941 35 52.5C41.0835 52.1941 46.8946 49.8824 51.5258 45.9258ZM17.5 29.1667C17.5 32.0833 20.1104 32.0833 23.3333 32.0833C26.5563 32.0833 29.1667 32.0833 29.1667 29.1667C29.1667 27.6196 28.5521 26.1359 27.4581 25.0419C26.3642 23.9479 24.8804 23.3333 23.3333 23.3333C21.7863 23.3333 20.3025 23.9479 19.2086 25.0419C18.1146 26.1359 17.5 27.6196 17.5 29.1667ZM40.8333 29.1667C40.8333 32.0833 43.4438 32.0833 46.6667 32.0833C49.8896 32.0833 52.5 32.0833 52.5 29.1667C52.5 27.6196 51.8854 26.1359 50.7915 25.0419C49.6975 23.9479 48.2138 23.3333 46.6667 23.3333C45.1196 23.3333 43.6359 23.9479 42.5419 25.0419C41.4479 26.1359 40.8333 27.6196 40.8333 29.1667Z" fill="#1F7A8C"/>
</g>
<defs>
<clipPath id="clip0_10_18">
<rect width="70" height="70" fill="white"/>
</clipPath>
</defs>
</svg>
