<svg width="17" height="14" viewBox="0 0 17 14" fill="none" xmlns="http://www.w3.org/2000/svg">
<path d="M16.8993 2.16058C16.2819 2.42145 15.6289 2.59391 14.9607 2.67258C15.6657 2.26243 16.1939 1.6172 16.4475 0.856578C15.7851 1.24063 15.0599 1.51122 14.3036 1.65658C13.798 1.12264 13.1248 0.767215 12.3895 0.646059C11.6542 0.524903 10.8984 0.644865 10.2407 0.987129C9.58292 1.32939 9.06041 1.8746 8.75509 2.53725C8.44978 3.19989 8.37892 3.94249 8.55365 4.64858C7.21426 4.5826 5.9041 4.24294 4.70829 3.65167C3.51247 3.06039 2.45775 2.23073 1.61263 1.21658C1.31621 1.72071 1.16046 2.29164 1.16085 2.87258C1.1598 3.41208 1.29574 3.94347 1.55657 4.41943C1.81741 4.89539 2.19504 5.30115 2.65584 5.60058C2.12025 5.58639 1.59611 5.44642 1.12799 5.19258V5.23258C1.13201 5.98849 1.40399 6.71985 1.89792 7.30295C2.39186 7.88605 3.07744 8.28509 3.83868 8.43258C3.54565 8.51943 3.24141 8.56522 2.93512 8.56858C2.7231 8.56617 2.51161 8.54744 2.30263 8.51258C2.51941 9.16283 2.93892 9.73109 3.50278 10.1383C4.06665 10.5455 4.74683 10.7714 5.44867 10.7846C4.26353 11.6928 2.80031 12.1885 1.29228 12.1926C1.01771 12.1935 0.743351 12.1774 0.470856 12.1446C2.01055 13.1128 3.80485 13.6268 5.6376 13.6246C6.90233 13.6374 8.15701 13.4046 9.32834 12.9398C10.4997 12.4751 11.5642 11.7877 12.4597 10.9178C13.3552 10.0479 14.0637 9.01289 14.5439 7.8733C15.0241 6.73371 15.2663 5.51236 15.2564 4.28058C15.2564 4.14458 15.2564 4.00058 15.2564 3.85658C15.901 3.38843 16.4569 2.81452 16.8993 2.16058Z" fill="#BFDBF7"/>
</svg>
