<svg width="693" height="399" viewBox="0 0 693 399" fill="none" xmlns="http://www.w3.org/2000/svg">
<path opacity="0.35" d="M627.273 232.657H524.048V139.628H559.692C572.5 139.628 582.949 129.179 582.949 116.371C582.949 103.562 572.5 93.1135 559.692 93.1135H524.048H513.683V46.5989H526.744C539.552 46.5989 550.001 36.15 550.001 23.3417C550.001 10.5333 539.552 0.0843506 526.744 0.0843506H513.683H511.492H373.044H368.325H223.725H190.609C177.8 0.0843506 167.351 10.5333 167.351 23.3417C167.351 36.15 177.8 46.5989 190.609 46.5989H251.027C263.872 46.5989 274.284 57.0116 274.284 69.8562C274.284 82.7009 263.872 93.1135 251.027 93.1135H111.736C101.877 93.1135 93.8719 101.119 93.8719 110.978C93.8719 120.837 101.877 128.842 111.736 128.842H205.102C215.387 128.842 223.725 137.18 223.725 147.465C223.725 157.75 215.387 166.088 205.102 166.088H55.9524C43.144 166.088 32.6951 176.536 32.6951 189.345C32.6951 202.153 43.144 212.602 55.9524 212.602H223.725V259.117H113.253C92.6922 259.117 76.0076 275.801 76.0076 296.362C76.0076 316.923 92.6922 333.607 113.253 333.607H223.725H272.768H300.322H524.048H627.273C655.08 333.607 677.664 311.024 677.664 283.217C677.664 255.24 655.08 232.657 627.273 232.657Z" fill="#395D77"/>
<path opacity="0.35" d="M614.886 139.628C602.078 139.628 591.629 129.179 591.629 116.371C591.629 103.562 602.078 93.1134 614.886 93.1134C627.694 93.1134 638.143 103.562 638.143 116.371C638.143 129.179 627.779 139.628 614.886 139.628Z" fill="#395D77"/>
<path d="M594.072 93.0293H456.551C443.742 93.0293 433.293 82.5804 433.293 69.7721C433.293 56.9637 443.742 46.5148 456.551 46.5148H594.156V93.0293H594.072Z" fill="#1B3B52"/>
<path d="M693 232.657H519.413C493.712 232.657 472.898 211.844 472.898 186.143C472.898 160.442 493.712 139.628 519.413 139.628H693V232.657Z" fill="#1B3B52"/>
<path opacity="0.35" d="M132.381 46.5146H129.095C116.287 46.5146 105.838 36.0657 105.838 23.2573C105.838 10.4489 116.287 0 129.095 0H132.381C145.19 0 155.639 10.4489 155.639 23.2573C155.639 36.1499 145.274 46.5146 132.381 46.5146Z" fill="#395D77"/>
<path d="M636.963 347.933H80.7264C76.0918 347.933 72.2998 351.725 72.2998 356.359C72.2998 360.994 76.0918 364.786 80.7264 364.786H209.484C204.85 364.786 201.058 368.578 201.058 373.212C201.058 377.847 204.85 381.639 209.484 381.639H173.84C169.205 381.639 165.413 385.431 165.413 390.065C165.413 394.7 169.205 398.492 173.84 398.492H494.217C498.852 398.492 502.644 394.7 502.644 390.065C502.644 385.431 498.852 381.639 494.217 381.639H515.621C520.256 381.639 524.047 377.847 524.047 373.212C524.047 368.578 520.256 364.786 515.621 364.786H637.048C641.682 364.786 645.474 360.994 645.474 356.359C645.39 351.64 641.598 347.933 636.963 347.933Z" fill="#1F7A8C"/>
<path d="M655.67 381.639H349.533C344.899 381.639 341.107 377.847 341.107 373.212C341.107 368.578 344.899 364.786 349.533 364.786H655.67C660.305 364.786 664.097 368.578 664.097 373.212C664.097 377.847 660.305 381.639 655.67 381.639Z" fill="#1B3B52"/>
<path d="M244.033 381.639H8.42656C3.79195 381.639 0 377.847 0 373.212C0 368.578 3.79195 364.786 8.42656 364.786H244.033C248.668 364.786 252.46 368.578 252.46 373.212C252.46 377.847 248.668 381.639 244.033 381.639Z" fill="#1B3B52"/>
<path d="M314.479 172.66H115.612V326.024H314.479V172.66Z" fill="#1F7A8C"/>
<path d="M299.261 310.843V187.815L130.73 187.815L130.73 310.843H299.261Z" fill="#022B3A"/>
<path d="M115.612 172.66H102.13V326.024H115.612V172.66Z" fill="#6C9C36"/>
<path d="M438.939 306.221H383.493C367.651 306.221 354.842 293.413 354.842 277.571C354.842 261.729 367.651 248.921 383.493 248.921H438.939C454.781 248.921 467.59 261.729 467.59 277.571C467.59 293.329 454.781 306.221 438.939 306.221Z" fill="#E63E35"/>
<path d="M421.496 306.221H144.263C128.421 306.221 115.612 293.413 115.612 277.571C115.612 261.729 128.421 248.921 144.263 248.921H421.496C437.338 248.921 450.147 261.729 450.147 277.571C450.147 293.329 437.338 306.221 421.496 306.221Z" fill="#C61D34"/>
<path d="M120.247 293.16C125.387 300.997 134.235 306.221 144.263 306.221H421.496C431.608 306.221 440.456 300.997 445.512 293.16H120.247Z" fill="#AF142E"/>
<path d="M600.982 221.534H402.115V326.024H600.982V221.534Z" fill="#1F7A8C"/>
<path d="M585.763 310.843V236.689L417.232 236.689V310.843H585.763Z" fill="#022B3A"/>
<path d="M402.115 221.534H388.633V326.024H402.115V221.534Z" fill="#6C9C38"/>
<path d="M440.035 326.024H426.552V356.359H440.035V326.024Z" fill="#593422"/>
<path d="M440.035 326.024H426.552V331.585H440.035V326.024Z" fill="#022B3A"/>
<path d="M450.147 326.024H440.035V356.359H450.147V326.024Z" fill="#022B3A"/>
<path d="M566.433 326.024H552.951V356.359H566.433V326.024Z" fill="#1F7A8C"/>
<path d="M566.433 326.024H552.951V331.585H566.433V326.024Z" fill="#022B3A"/>
<path d="M576.545 326.024H566.433V356.359H576.545V326.024Z" fill="#022B3A"/>
<path d="M153.532 326.024H140.049V356.359H153.532V326.024Z" fill="#593422"/>
<path d="M153.532 326.024H140.049V331.585H153.532V326.024Z" fill="#022B3A"/>
<path d="M163.644 326.024H153.532V356.359H163.644V326.024Z" fill="#022B3A"/>
<path d="M279.93 326.024H266.448V356.359H279.93V326.024Z" fill="#022B3A"/>
<path d="M279.93 326.024H266.448V331.585H279.93V326.024Z" fill="#022B3A"/>
<path d="M290.042 326.024H279.93V356.359H290.042V326.024Z" fill="#022B3A"/>
<path d="M388.633 305.8H102.13V326.024H388.633V305.8Z" fill="#6C9C38"/>
<path d="M352.988 278.919C352.988 264.173 364.954 252.291 379.616 252.291H382.228V248.921H371.527C355.685 248.921 342.876 261.729 342.876 277.571V326.024H352.988V278.919Z" fill="#1F7A8C"/>
<path d="M373.971 248.921H253.302C237.46 248.921 224.652 261.729 224.652 277.571V356.359H345.32V277.571C345.32 261.729 358.129 248.921 373.971 248.921Z" fill="#F0EC95"/>
<path d="M287.683 256.083C305.042 256.083 319.114 254.235 319.114 251.954C319.114 249.674 305.042 247.825 287.683 247.825C270.324 247.825 256.252 249.674 256.252 251.954C256.252 254.235 270.324 256.083 287.683 256.083Z" fill="#1F7A8C"/>
<path d="M212.686 257.179C230.045 257.179 244.117 255.33 244.117 253.05C244.117 250.769 230.045 248.921 212.686 248.921C195.328 248.921 181.255 250.769 181.255 253.05C181.255 255.33 195.328 257.179 212.686 257.179Z" fill="#1F7A8C"/>
<path d="M347.932 356.359V277.571C347.932 263.667 359.308 252.291 373.212 252.291H376.667V248.921H373.212C357.37 248.921 344.562 261.729 344.562 277.571V356.359H347.932Z" fill="#CEC67A"/>
<path d="M388.633 248.921H375.824V252.291H388.633V248.921Z" fill="#CEC67A"/>
<path d="M255.83 356.359H243.19V285.997C243.19 282.543 246.055 279.678 249.51 279.678C252.965 279.678 255.83 282.543 255.83 285.997V356.359Z" fill="#CEC67A"/>
<path d="M279.509 356.359H266.869V285.997C266.869 282.543 269.734 279.678 273.189 279.678C276.644 279.678 279.509 282.543 279.509 285.997V356.359Z" fill="#CEC67A"/>
<path d="M303.103 356.359H290.463V285.997C290.463 282.543 293.328 279.678 296.783 279.678C300.238 279.678 303.103 282.543 303.103 285.997V356.359Z" fill="#CEC67A"/>
<path d="M326.782 356.359H314.142V285.997C314.142 282.543 317.007 279.678 320.462 279.678C323.917 279.678 326.782 282.543 326.782 285.997V356.359Z" fill="#CEC67A"/>
<path d="M304.451 217.068C297.205 208.979 287.261 204.681 277.234 204.26C277.149 204.26 277.065 204.26 276.897 204.26H233.416L264.341 251.027H307.991C311.193 251.027 313.889 248.583 314.142 245.381C314.9 235.438 311.698 225.158 304.451 217.068Z" fill="#CBDDAF"/>
<path d="M236.955 238.134C244.202 246.224 254.145 250.521 264.173 250.943C267.459 251.111 270.324 248.583 270.577 245.297C271.335 235.354 268.133 225.073 260.886 216.984C253.64 208.894 243.696 204.597 233.669 204.175C230.382 204.007 227.517 206.535 227.264 209.821C226.59 219.849 229.708 230.045 236.955 238.134Z" fill="#EFF9E1"/>
<path d="M270.661 244.539C270.661 244.791 270.661 245.044 270.661 245.381C270.408 248.583 267.712 251.027 264.425 251.027H308.075C311.277 251.027 313.973 248.583 314.226 245.381C314.226 245.128 314.226 244.876 314.226 244.539H270.661Z" fill="#A4B783"/>
<path d="M230.803 217.068C223.557 208.979 213.613 204.681 203.586 204.26C203.501 204.26 203.417 204.26 203.249 204.26H159.768L190.693 251.027H234.343C237.545 251.027 240.241 248.583 240.494 245.381C241.168 235.438 238.05 225.158 230.803 217.068Z" fill="#CBDDAF"/>
<path d="M163.307 238.134C170.554 246.224 180.497 250.521 190.524 250.943C193.811 251.111 196.676 248.583 196.929 245.297C197.687 235.354 194.485 225.073 187.238 216.984C179.991 208.894 170.048 204.597 160.02 204.175C156.734 204.007 153.869 206.535 153.616 209.821C152.858 219.849 156.06 230.045 163.307 238.134Z" fill="#EFF9E1"/>
<path d="M197.013 244.539C197.013 244.791 197.013 245.044 197.013 245.381C196.76 248.583 194.064 251.027 190.777 251.027H234.427C237.629 251.027 240.326 248.583 240.578 245.381C240.578 245.128 240.578 244.876 240.578 244.539H197.013Z" fill="#A4B783"/>
<path d="M471.971 89.1531C472.646 84.0972 469.949 78.957 465.146 77.5245C460.343 76.0919 454.95 80.0524 454.023 86.5409C453.854 87.7206 453.854 88.9003 454.023 89.9958C454.107 101.877 456.551 113.422 460.933 124.039C463.798 123.281 466.663 122.522 469.443 121.68C468.095 111.399 468.769 101.287 471.213 91.8496C471.55 91.0069 471.803 90.08 471.971 89.1531Z" fill="#6C9C38"/>
<path d="M469.781 98.0852C471.045 96.2313 473.404 95.3887 475.426 96.3999C477.364 97.3268 477.954 100.192 476.353 102.551C476.016 102.973 475.679 103.394 475.342 103.647C471.803 107.439 471.887 111.146 467.337 113.253C466.663 112.158 465.989 111.062 465.314 109.967C468.769 107.017 467.253 102.888 469.275 99.0964C469.359 98.7593 469.528 98.4222 469.781 98.0852Z" fill="#022B3A"/>
<path d="M465.146 77.2717C463.882 76.9346 460.848 76.9347 458.826 78.62C459.669 78.1986 460.933 78.2829 461.017 78.2829C466.073 78.7042 469.106 84.0972 468.432 89.1532C468.264 90.0801 468.011 91.007 467.674 91.8496C465.23 101.287 464.556 111.399 465.904 121.68C464.135 122.185 462.365 122.691 460.595 123.112C460.68 123.365 460.848 123.702 460.933 123.955C463.798 123.196 466.663 122.438 469.443 121.595C468.095 111.315 468.769 101.203 471.213 91.7654C471.55 90.9227 471.803 89.9958 471.971 89.0689C472.645 84.0972 469.949 78.7042 465.146 77.2717Z" fill="#022B3A"/>
<path d="M455.287 139.881H474.752C480.651 135.499 484.527 127.325 484.527 117.972H445.428C445.512 127.325 449.472 135.499 455.287 139.881Z" fill="#F9F9F9"/>
<path d="M458.236 89.2373L456.382 89.6586L458.152 90.5013C458.573 90.6698 459.079 90.417 459.079 89.9114V89.8272C458.995 89.4901 458.573 89.153 458.236 89.2373Z" fill="#3A7741"/>
<path d="M463.208 86.5408L461.691 85.3611L462.112 87.2992C462.197 87.7205 462.786 87.9733 463.123 87.6362L463.208 87.5519C463.545 87.2149 463.545 86.7936 463.208 86.5408Z" fill="#3A7741"/>
<path d="M461.27 101.624L459.416 102.13L461.185 102.973C461.607 103.141 462.112 102.888 462.112 102.383V102.214C462.112 101.877 461.691 101.54 461.27 101.624Z" fill="#3A7741"/>
<path d="M469.781 98.0851C469.528 98.4222 469.359 98.8435 469.191 99.1806C468.18 101.034 467 102.888 465.652 104.574V111.231C467.843 110.051 469.865 108.618 471.803 106.933C471.887 105.079 472.056 102.973 472.056 102.046C472.056 100.95 473.067 98.0009 473.825 95.8942C472.309 95.8942 470.708 96.6526 469.781 98.0851Z" fill="#022B3A"/>
<path d="M471.55 117.972C471.971 119.91 472.14 121.932 472.14 124.039C472.14 129.938 470.455 135.415 467.59 139.881H474.836C480.735 135.499 484.611 127.325 484.611 117.972H471.55Z" fill="#022B3A"/>
<path d="M469.275 139.038H402.115V149.15H469.275V139.038Z" fill="#A57767"/>
<path d="M524.048 139.038H469.275V149.15H524.048V139.038Z" fill="#1F7A8C"/>
<path d="M372.117 170.638H337.736C324.928 170.638 314.479 160.189 314.479 147.38C314.479 134.572 324.928 124.123 337.736 124.123H372.117C384.925 124.123 395.374 134.572 395.374 147.38C395.374 160.189 384.925 170.638 372.117 170.638Z" fill="#1B3B52"/>
</svg>
