<svg width="472" height="420" viewBox="0 0 472 420" fill="none" xmlns="http://www.w3.org/2000/svg">
<path d="M151.064 17.2222C107.791 49.7803 136.889 107.306 91.3776 138.399C61.0594 159.106 28.503 146.988 9.57955 174.553C-1.13694 190.199 -0.458679 207.91 0.490884 218.163C9.98651 318.168 100.331 446.003 226.08 415.376C351.829 384.749 294.584 303.52 381.876 273.892C417.756 261.707 456.349 251.787 469.575 190.532C477.714 152.847 465.505 96.7864 430.846 83.2705C398.697 70.7533 378.146 104.31 341.452 92.2589C304.622 80.1412 311.337 40.3924 270.438 15.8906C236.729 -4.28343 182.875 -6.74692 151.064 17.2222Z" fill="#022B3A"/>
<path d="M383.029 319.966C369.328 335.679 364.241 353.789 370.82 366.506C372.177 369.169 374.415 372.898 378.349 374.229C396.458 380.355 427.93 330.619 415.721 318.568C411.583 314.506 405.004 311.11 398.561 311.643C389.676 312.309 384.25 318.501 383.029 319.966Z" fill="#022B3A"/>
<path opacity="0.79" d="M87.8508 284.345C126.396 284.345 157.644 254.715 157.644 218.164C157.644 181.613 126.396 151.982 87.8508 151.982C49.3053 151.982 18.058 181.613 18.058 218.164C18.058 254.715 49.3053 284.345 87.8508 284.345Z" fill="url(#paint0_radial_6_88)"/>
<path d="M332.906 174.154C332.906 174.154 343.215 171.69 362.885 152.382C382.554 133.073 415.653 116.095 427.794 154.845C434.984 177.749 429.897 229.615 406.361 235.075C390.558 238.804 373.873 226.353 363.36 216.033C352.847 205.713 332.838 200.586 332.838 200.586V174.154H332.906Z" fill="#E1E5F2"/>
<path d="M332.906 174.154V200.653C332.906 200.653 352.914 205.779 363.427 216.1C366.615 219.229 370.414 222.624 374.551 225.621C377.467 222.158 383.165 214.635 385.132 209.109C394.085 183.142 389.066 153.513 366.276 149.186C365.123 150.251 363.97 151.316 362.885 152.382C343.215 171.69 332.906 174.154 332.906 174.154Z" fill="#BFDBF7"/>
<path opacity="0.8" d="M342.808 178.282C342.808 178.282 376.382 169.027 398.765 147.055" stroke="#442753" stroke-width="4" stroke-miterlimit="10" stroke-linecap="round" stroke-linejoin="round"/>
<path opacity="0.8" d="M343.758 185.339C343.758 185.339 392.728 179.014 411.245 171.091" stroke="#442753" stroke-width="4" stroke-miterlimit="10" stroke-linecap="round" stroke-linejoin="round"/>
<path opacity="0.8" d="M343.961 198.655C343.961 198.655 371.363 205.247 398.765 221.16" stroke="#442753" stroke-width="4" stroke-miterlimit="10" stroke-linecap="round" stroke-linejoin="round"/>
<path opacity="0.8" d="M343.961 193.329C343.961 193.329 391.575 197.457 411.245 197.457" stroke="#442753" stroke-width="4" stroke-miterlimit="10" stroke-linecap="round" stroke-linejoin="round"/>
<path d="M233.88 105.908C233.88 105.908 237.068 93.2578 242.358 88.2642C247.649 83.2706 256.398 81.8058 274.779 85.1349C293.092 88.4639 306.454 94.5894 306.454 101.58C306.454 104.909 293.16 116.162 289.904 116.162C286.649 116.162 243.104 104.71 233.88 105.908Z" fill="#E1E5F2"/>
<path d="M264.47 94.4562C248.734 94.4562 241.748 101.314 239.103 106.041C253.889 107.506 287.123 116.162 289.904 116.162C292.346 116.162 300.621 109.637 304.419 105.109C298.179 97.7187 280.07 94.4562 264.47 94.4562Z" fill="#BFDBF7"/>
<path opacity="0.8" d="M249.616 102.446C249.616 102.446 253.075 94.4562 259.925 91.1272" stroke="#442753" stroke-width="4" stroke-miterlimit="10" stroke-linecap="round" stroke-linejoin="round"/>
<path opacity="0.8" d="M275.796 94.4562C267.996 96.7866 261.892 105.109 261.892 105.109" stroke="#442753" stroke-width="4" stroke-miterlimit="10" stroke-linecap="round" stroke-linejoin="round"/>
<path opacity="0.8" d="M275.796 106.907C275.796 106.907 281.901 99.7161 292.075 99.7161" stroke="#442753" stroke-width="4" stroke-miterlimit="10" stroke-linecap="round" stroke-linejoin="round"/>
<path d="M233.88 105.908C233.88 105.908 237.068 93.2578 242.358 88.2642C247.649 83.2706 256.398 81.8058 274.779 85.1349C293.092 88.4639 306.454 94.5894 306.454 101.58C306.454 104.909 293.16 116.162 289.904 116.162C286.649 116.162 243.104 104.71 233.88 105.908Z" stroke="#E1E5F2" stroke-width="6" stroke-miterlimit="10" stroke-linecap="round" stroke-linejoin="round"/>
<path d="M332.906 174.154C332.906 174.154 343.215 171.69 362.885 152.382C382.554 133.073 415.653 116.095 427.794 154.845C434.984 177.749 429.897 229.615 406.361 235.075C390.558 238.804 373.873 226.353 363.36 216.033C352.847 205.713 332.838 200.586 332.838 200.586V174.154H332.906Z" stroke="#E1E5F2" stroke-width="6" stroke-miterlimit="10" stroke-linecap="round" stroke-linejoin="round"/>
<path d="M216.177 277.687C216.177 277.687 232.795 298.66 241.273 306.982C249.751 315.305 315.882 299.659 323.342 292.335C330.803 285.011 332.838 268.366 293.499 259.044C293.567 259.044 257.958 288.207 216.177 277.687Z" fill="#E1E5F2"/>
<path d="M233.744 298.86C259.179 297.861 305.979 293.999 327.073 279.019C324.835 272.028 315.814 264.371 293.499 259.111C293.499 259.111 260.129 286.409 220.111 278.619C219.433 279.218 218.823 279.751 218.28 280.35C221.468 284.278 227.911 292.202 233.744 298.86Z" fill="#BFDBF7"/>
<path opacity="0.8" d="M243.579 288.34C243.579 288.34 252.396 294.931 255.72 301.589" stroke="#442753" stroke-width="4" stroke-miterlimit="10" stroke-linecap="round" stroke-linejoin="round"/>
<path opacity="0.8" d="M259.925 287.541C259.925 287.541 267.386 293.2 270.506 299.126" stroke="#442753" stroke-width="4" stroke-miterlimit="10" stroke-linecap="round" stroke-linejoin="round"/>
<path opacity="0.8" d="M271.93 283.346C271.93 283.346 280.273 287.075 285.156 294.931" stroke="#442753" stroke-width="4" stroke-miterlimit="10" stroke-linecap="round" stroke-linejoin="round"/>
<path opacity="0.8" d="M282.24 279.884C282.24 279.884 297.229 284.079 300.282 290.004" stroke="#442753" stroke-width="4" stroke-miterlimit="10" stroke-linecap="round" stroke-linejoin="round"/>
<path opacity="0.8" d="M294.584 273.892C294.584 273.892 310.523 277.487 313.643 283.413" stroke="#442753" stroke-width="4" stroke-miterlimit="10" stroke-linecap="round" stroke-linejoin="round"/>
<path d="M216.177 277.687C216.177 277.687 232.795 298.66 241.273 306.982C249.751 315.305 315.882 299.659 323.342 292.335C330.803 285.011 332.838 268.366 293.499 259.044C293.567 259.044 257.958 288.207 216.177 277.687Z" stroke="#E1E5F2" stroke-width="6" stroke-miterlimit="10" stroke-linecap="round" stroke-linejoin="round"/>
<path d="M69.0631 209.109C69.0631 209.109 73.1326 227.152 87.783 225.754C98.703 224.755 101.348 202.184 85.0022 193.595C68.5883 185.073 69.0631 209.109 69.0631 209.109Z" fill="#F4E834"/>
<path d="M69.0631 209.109C69.0631 209.109 73.1326 227.152 87.783 225.754C98.703 224.755 101.348 202.184 85.0022 193.595C68.5883 185.073 69.0631 209.109 69.0631 209.109Z" fill="#F4E834" stroke="#D3A548" stroke-width="6" stroke-miterlimit="10"/>
<path d="M81.8143 214.568C85.6351 214.568 88.7325 211.528 88.7325 207.777C88.7325 204.026 85.6351 200.986 81.8143 200.986C77.9935 200.986 74.8961 204.026 74.8961 207.777C74.8961 211.528 77.9935 214.568 81.8143 214.568Z" fill="#F4E834"/>
<path opacity="0.66" d="M81.8144 213.769C85.1857 213.769 87.9187 211.086 87.9187 207.777C87.9187 204.467 85.1857 201.785 81.8144 201.785C78.443 201.785 75.71 204.467 75.71 207.777C75.71 211.086 78.443 213.769 81.8144 213.769Z" fill="#F99338"/>
<path d="M343.215 180.545C335.551 129.811 283.8 95.2552 227.708 103.445C217.195 104.976 207.292 107.906 198.204 111.9C187.555 116.628 174.939 113.964 167.275 105.309C163.884 101.447 160.696 98.0516 159 96.5868C154.185 92.4588 148.623 88.2642 142.247 84.6023C139.059 82.738 135.668 81.0069 132.073 79.4755C128.479 77.9442 124.68 76.546 120.746 75.4807C119.729 75.2143 118.779 74.948 117.762 74.6817C116.745 74.4819 115.727 74.2156 114.71 74.0159C113.692 73.8161 112.607 73.683 111.59 73.4832C110.572 73.2835 109.487 73.2169 108.402 73.0837C104.129 72.6177 99.7882 72.5511 95.3795 73.0172C90.9708 73.4166 86.5621 74.3488 82.2891 75.8802L81.4752 76.1465L81.0682 76.2796L80.8647 76.3462C80.3221 76.5459 80.6613 76.4128 80.5256 76.4794L80.4578 76.546L79.1013 77.1452L77.7448 77.7444L77.0665 78.0773C76.863 78.2105 76.5239 78.3436 76.3204 78.4768C75.2352 79.0095 74.2178 79.6087 73.2004 80.1413C72.183 80.7406 71.3013 81.3398 70.3517 81.939C66.6891 84.4691 63.2978 87.3321 60.3813 90.4614C57.4648 93.6573 54.8196 97.0529 52.5813 100.515C50.3431 104.044 48.3761 107.706 46.7483 111.501L46.477 112.233L46.2057 112.966L45.6631 114.297C45.5275 114.697 45.324 115.229 45.1205 115.762L44.6457 117.227C44.3066 118.226 44.1031 119.158 43.764 120.156C43.4927 121.155 43.2892 122.087 43.0179 123.086C41.2544 130.876 40.9831 138.533 41.6614 145.724C42.4075 152.848 44.0353 159.506 46.1379 165.298C48.2405 171.157 50.8179 176.218 53.3953 180.545C55.9726 184.873 58.55 188.402 60.7883 191.198C61.8735 192.596 62.9587 193.795 63.8404 194.86C64.3152 195.393 64.7222 195.859 65.1291 196.258C63.3657 200.986 61.0596 210.307 67.0961 216.166C72.6578 221.626 74.4213 201.052 86.4265 199.188C90.2247 198.589 91.1743 193.662 87.3082 189.867C84.0526 186.671 76.3204 186.138 69.47 190.865C69.4022 190.732 69.2665 190.666 69.1987 190.532C68.3848 189.534 67.4352 188.335 66.4857 187.004C64.5187 184.34 62.2126 180.945 59.9744 176.883C57.7361 172.822 55.5657 168.095 53.87 162.702C52.1066 157.309 50.8857 151.316 50.4787 144.991C50.0718 138.599 50.6144 131.875 52.3779 125.217C52.6492 124.418 52.8527 123.552 53.124 122.753C53.3953 121.954 53.6666 121.089 53.9379 120.29L54.4126 119.091C54.5483 118.692 54.6839 118.292 54.8874 117.893L55.43 116.561L55.7013 116.028L55.9726 115.429C57.4648 112.233 59.2961 109.104 61.3309 106.108C63.3657 103.112 65.7396 100.315 68.2491 97.7853C70.8265 95.2552 73.6074 92.9914 76.5917 91.1272C77.3378 90.6611 78.0839 90.195 78.83 89.7956C79.5761 89.4627 80.2543 89.0632 81.0004 88.7303C81.2039 88.6637 81.3395 88.5305 81.543 88.4639L82.2213 88.1976L83.6456 87.665L85.0021 87.1323L85.1378 87.0657L85.4769 86.9992L86.0873 86.7994C89.4108 85.7341 92.8699 85.1349 96.329 84.9352C99.7882 84.7354 103.315 84.8686 106.774 85.4012C107.656 85.5344 108.47 85.6675 109.352 85.8007C110.233 86.0004 111.047 86.1336 111.929 86.3333C112.743 86.5331 113.625 86.7328 114.439 86.9992C115.252 87.1989 116.066 87.4652 116.88 87.7315C120.136 88.7968 123.324 90.0619 126.308 91.4601C129.292 92.9249 132.141 94.4562 134.854 96.1873C140.28 99.583 144.96 103.378 149.098 107.173C150.386 108.305 152.625 110.968 155.202 114.098C162.663 123.219 163.07 136.003 156.151 145.524C142.722 164.033 136.279 186.804 139.805 210.174C147.47 260.908 199.221 295.464 255.313 287.274C311.405 279.085 350.88 231.347 343.215 180.545Z" fill="#E1E5F2"/>
<path d="M161.713 253.318C161.713 253.318 162.324 255.981 172.633 252.186C182.943 248.391 191.557 235.807 191.557 235.807L167.411 244.729L154.727 246.926L161.713 253.318Z" fill="#12CC9B"/>
<path d="M159.475 99.7161C159.475 99.7161 167.885 116.827 182.061 120.156C196.101 123.486 203.969 112.366 216.245 106.84C205.597 108.904 192.778 114.83 192.778 114.83C192.778 114.83 176.364 116.961 165.579 105.043C154.795 93.1912 159.475 99.7161 159.475 99.7161Z" fill="#12CC9B"/>
<g opacity="0.76">
<path opacity="0.76" d="M343.215 180.545C336.907 139.065 301.163 108.438 257.619 103.112C286.784 115.762 325.241 124.085 325.581 178.282C326.055 244.996 277.763 279.951 226.012 283.346C215.703 284.012 205.19 280.683 195.49 279.551C213.397 287.341 234.016 290.337 255.381 287.275C311.541 279.085 350.88 231.347 343.215 180.545Z" fill="#022B3A"/>
</g>
<path d="M213.532 209.109C224.77 209.109 233.88 199.719 233.88 188.136C233.88 176.552 224.77 167.163 213.532 167.163C202.294 167.163 193.184 176.552 193.184 188.136C193.184 199.719 202.294 209.109 213.532 209.109Z" fill="#442753"/>
<path d="M208.106 191.465C212.751 191.465 216.517 187.589 216.517 182.809C216.517 178.029 212.751 174.154 208.106 174.154C203.461 174.154 199.696 178.029 199.696 182.809C199.696 187.589 203.461 191.465 208.106 191.465Z" fill="#BFDBF7"/>
<path d="M221.129 200.653C223.863 200.653 226.08 198.387 226.08 195.593C226.08 192.798 223.863 190.532 221.129 190.532C218.394 190.532 216.177 192.798 216.177 195.593C216.177 198.387 218.394 200.653 221.129 200.653Z" fill="#BFDBF7"/>
<path d="M278.849 192.596C278.509 191.797 276.61 187.669 272.134 185.339C264.402 181.278 255.313 185.739 250.701 187.936C247.445 189.534 243.511 191.398 243.308 194.261C243.104 197.324 247.038 198.722 247.377 201.651C247.038 204.648 243.104 206.046 243.308 209.109C243.511 211.972 247.445 213.902 250.701 215.434C255.245 217.631 264.402 222.092 272.134 218.03C276.61 215.7 278.509 211.572 278.849 210.773C279.391 209.508 280.273 205.58 280.273 201.651C280.273 197.723 279.391 193.861 278.849 192.596Z" fill="#E1E5F2"/>
<path opacity="0.8" d="M251.786 196.724C251.786 196.724 263.656 193.861 271.184 193.861" stroke="#442753" stroke-width="4" stroke-miterlimit="10" stroke-linecap="round" stroke-linejoin="round"/>
<path opacity="0.8" d="M251.786 202.783C251.786 202.783 263.384 201.185 268.471 203.516" stroke="#442753" stroke-width="4" stroke-miterlimit="10" stroke-linecap="round" stroke-linejoin="round"/>
<path d="M278.849 192.596C278.509 191.797 276.61 187.669 272.134 185.339C264.402 181.278 255.313 185.739 250.701 187.936C247.445 189.534 243.511 191.398 243.308 194.261C243.104 197.324 247.038 198.722 247.377 201.651C247.038 204.648 243.104 206.046 243.308 209.109C243.511 211.972 247.445 213.902 250.701 215.434C255.245 217.631 264.402 222.092 272.134 218.03C276.61 215.7 278.509 211.572 278.849 210.773C279.391 209.508 280.273 205.58 280.273 201.651C280.273 197.723 279.391 193.861 278.849 192.596Z" stroke="#E1E5F2" stroke-width="6" stroke-miterlimit="10" stroke-linecap="round" stroke-linejoin="round"/>
<path d="M343.215 180.545C335.551 129.811 283.8 95.2552 227.708 103.445C217.195 104.976 207.292 107.906 198.204 111.9C187.555 116.628 174.939 113.964 167.275 105.309C163.884 101.447 160.696 98.0516 159 96.5868C154.185 92.4588 148.623 88.2642 142.247 84.6023C139.059 82.738 135.668 81.0069 132.073 79.4755C128.479 77.9442 124.68 76.546 120.746 75.4807C119.729 75.2143 118.779 74.948 117.762 74.6817C116.745 74.4819 115.727 74.2156 114.71 74.0159C113.692 73.8161 112.607 73.683 111.59 73.4832C110.572 73.2835 109.487 73.2169 108.402 73.0837C104.129 72.6177 99.7882 72.5511 95.3795 73.0172C90.9708 73.4166 86.5621 74.3488 82.2891 75.8802L81.4752 76.1465L81.0682 76.2796L80.8647 76.3462C80.3221 76.546 80.6613 76.4128 80.5256 76.4794L80.4578 76.546L79.1013 77.1452L77.7447 77.7444L77.0665 78.0773C76.863 78.2105 76.5239 78.3436 76.3204 78.4768C75.2352 79.0095 74.2178 79.6087 73.2004 80.1413C72.183 80.7406 71.3013 81.3398 70.3517 81.939C66.6891 84.4691 63.2978 87.3321 60.3813 90.4614C57.4648 93.6573 54.8196 97.0529 52.5813 100.515C50.3431 104.044 48.3761 107.706 46.7483 111.501L46.477 112.233L46.2057 112.966L45.6631 114.297C45.5275 114.697 45.324 115.229 45.1205 115.762L44.6457 117.227C44.3066 118.226 44.1031 119.158 43.764 120.156C43.4927 121.155 43.2892 122.087 43.0179 123.086C41.2544 130.876 40.9831 138.533 41.6614 145.724C42.4075 152.848 44.0353 159.506 46.1379 165.298C48.2405 171.157 50.8179 176.218 53.3953 180.545C55.9726 184.873 58.55 188.402 60.7883 191.198C61.8735 192.596 62.9587 193.795 63.8404 194.86C64.3152 195.393 64.7222 195.859 65.1291 196.258C63.3657 200.986 61.0596 210.307 67.0961 216.166C72.6578 221.626 74.4213 201.052 86.4265 199.188C90.2247 198.589 91.1743 193.662 87.3082 189.867C84.0526 186.671 76.3204 186.138 69.47 190.865C69.4022 190.732 69.2665 190.666 69.1987 190.532C68.3848 189.534 67.4352 188.335 66.4857 187.004C64.5187 184.34 62.2126 180.945 59.9744 176.883C57.7361 172.822 55.5657 168.095 53.87 162.702C52.1066 157.309 50.8857 151.316 50.4787 144.991C50.0718 138.599 50.6144 131.875 52.3779 125.217C52.6492 124.418 52.8527 123.552 53.124 122.753C53.3953 121.954 53.6666 121.089 53.9379 120.29L54.4126 119.091C54.5483 118.692 54.6839 118.292 54.8874 117.893L55.43 116.561L55.7013 116.028L55.9726 115.429C57.4648 112.233 59.2961 109.104 61.3309 106.108C63.3657 103.112 65.7396 100.315 68.2491 97.7853C70.8265 95.2552 73.6074 92.9914 76.5917 91.1272C77.3378 90.6611 78.0839 90.195 78.83 89.7956C79.5761 89.4627 80.2543 89.0632 81.0004 88.7303C81.2039 88.6637 81.3395 88.5305 81.543 88.4639L82.2213 88.1976L83.6456 87.665L85.0021 87.1323L85.1378 87.0657L85.4769 86.9992L86.0874 86.7994C89.4108 85.7341 92.8699 85.1349 96.329 84.9352C99.7882 84.7354 103.315 84.8686 106.774 85.4012C107.656 85.5344 108.47 85.6675 109.352 85.8007C110.233 86.0004 111.047 86.1336 111.929 86.3333C112.743 86.5331 113.625 86.7328 114.439 86.9992C115.252 87.1989 116.066 87.4652 116.88 87.7315C120.136 88.7968 123.324 90.0619 126.308 91.4601C129.292 92.9249 132.141 94.4562 134.854 96.1873C140.28 99.583 144.96 103.378 149.098 107.173C150.386 108.305 152.625 110.968 155.202 114.098C162.663 123.219 163.07 136.003 156.151 145.524C142.722 164.033 136.279 186.804 139.805 210.174C147.47 260.908 199.221 295.464 255.313 287.274C311.405 279.085 350.88 231.347 343.215 180.545Z" stroke="#E1E5F2" stroke-width="6" stroke-miterlimit="10" stroke-linecap="round" stroke-linejoin="round"/>
<path d="M175.414 242.133C171.209 243.731 166.936 244.996 162.731 245.861C154.456 237.938 149.572 225.953 150.454 212.837C151.065 204.381 153.913 196.724 158.39 190.532C157.847 193.063 157.44 195.726 157.305 198.389C156.016 215.7 163.273 231.679 175.414 242.133Z" fill="#BFDBF7"/>
<path d="M175.414 242.133C171.209 243.731 166.936 244.996 162.731 245.861C154.456 237.938 149.572 225.953 150.454 212.837C151.065 204.381 153.913 196.724 158.39 190.532C157.847 193.063 157.44 195.726 157.305 198.389C156.016 215.7 163.273 231.679 175.414 242.133Z" stroke="#BFDBF7" stroke-width="3" stroke-miterlimit="10" stroke-linecap="round" stroke-linejoin="round"/>
<path d="M187.826 236.274C185.588 237.539 183.282 238.737 180.908 239.802C180.365 240.069 179.755 240.335 179.212 240.535C175.143 234.942 172.633 227.818 172.633 220.028C172.633 213.17 174.532 206.845 177.788 201.651C177.517 203.715 177.313 205.846 177.313 208.043C177.313 218.896 181.315 228.816 187.826 236.274Z" fill="#BFDBF7"/>
<path d="M187.826 236.274C185.588 237.539 183.282 238.737 180.908 239.802C180.365 240.069 179.755 240.335 179.212 240.535C175.143 234.942 172.633 227.818 172.633 220.028C172.633 213.17 174.532 206.845 177.788 201.651C177.517 203.715 177.313 205.846 177.313 208.043C177.313 218.896 181.315 228.816 187.826 236.274Z" stroke="#BFDBF7" stroke-width="3" stroke-miterlimit="10" stroke-linecap="round" stroke-linejoin="round"/>
<path opacity="0.3" d="M231.099 222.957C231.099 222.957 231.099 237.006 217.873 244.996" stroke="#212121" stroke-width="6" stroke-miterlimit="10" stroke-linecap="round" stroke-linejoin="round"/>
<path opacity="0.3" d="M242.426 228.484C242.426 228.484 247.583 238.604 242.087 249.723" stroke="#212121" stroke-width="6" stroke-miterlimit="10" stroke-linecap="round" stroke-linejoin="round"/>
<path d="M195.694 231.28C191.217 234.542 186.266 237.472 180.908 239.869C172.837 243.531 164.562 245.861 156.423 246.926" stroke="#0A8E6B" stroke-width="6" stroke-miterlimit="10" stroke-linecap="round" stroke-linejoin="round"/>
<path opacity="0.8" d="M251.786 208.043C251.786 208.043 260.875 208.909 262.774 210.773" stroke="#442753" stroke-width="4" stroke-miterlimit="10" stroke-linecap="round" stroke-linejoin="round"/>
<path d="M353.186 25.2121C353.186 25.2121 348.031 43.8547 367.565 43.8547C387.099 43.8547 374.89 17.2224 353.186 25.2121Z" fill="#022B3A"/>
<defs>
<radialGradient id="paint0_radial_6_88" cx="0" cy="0" r="1" gradientUnits="userSpaceOnUse" gradientTransform="translate(87.8625 218.186) scale(48.4188 47.53)">
<stop stop-color="#FFFF00"/>
<stop offset="1" stop-color="#FFFF00" stop-opacity="0"/>
</radialGradient>
</defs>
</svg>
