<svg width="275" height="275" viewBox="0 0 275 275" fill="none" xmlns="http://www.w3.org/2000/svg">
<path d="M137.383 247.5C198.033 247.5 247.198 198.251 247.198 137.5C247.198 76.7487 198.033 27.5 137.383 27.5C76.7343 27.5 27.5685 76.7487 27.5685 137.5C27.5685 198.251 76.7343 247.5 137.383 247.5Z" stroke="#1F7A8C" stroke-width="2"/>
<path d="M74.0288 126.923C103.187 126.923 126.824 103.246 126.824 74.0385C126.824 44.8311 103.187 21.1539 74.0288 21.1539C44.8706 21.1539 21.2332 44.8311 21.2332 74.0385C21.2332 103.246 44.8706 126.923 74.0288 126.923Z" fill="#BFDBF7"/>
<path d="M74.0287 253.846C103.187 253.846 126.824 230.169 126.824 200.962C126.824 171.754 103.187 148.077 74.0287 148.077C44.8705 148.077 21.2331 171.754 21.2331 200.962C21.2331 230.169 44.8705 253.846 74.0287 253.846Z" fill="#1F7A8C"/>
<path d="M200.738 126.923C229.897 126.923 253.534 103.246 253.534 74.0385C253.534 44.8311 229.897 21.1539 200.738 21.1539C171.58 21.1539 147.943 44.8311 147.943 74.0385C147.943 103.246 171.58 126.923 200.738 126.923Z" fill="#1F7A8C"/>
<path d="M200.738 253.846C229.897 253.846 253.534 230.169 253.534 200.962C253.534 171.754 229.897 148.077 200.738 148.077C171.58 148.077 147.943 171.754 147.943 200.962C147.943 230.169 171.58 253.846 200.738 253.846Z" fill="#BFDBF7"/>
<path d="M81.3062 86.6167C81.3952 84.9132 80.8145 83.2426 79.6886 81.9628C78.1126 80.511 76.2385 79.4221 74.1978 78.7728C71.9166 77.9317 69.6844 76.9627 67.5118 75.8705C65.7611 74.9933 64.1394 73.8786 62.6926 72.5578C61.3601 71.3208 60.295 69.8233 59.5629 68.1578C58.774 66.2514 58.3927 64.2005 58.4436 62.1375C58.3788 60.3167 58.6863 58.5019 59.3473 56.8045C60.0082 55.1071 61.0087 53.563 62.2871 52.2671C65.0531 49.6088 68.6701 48.0184 72.4957 47.7782V40.1628H78.1723V47.8967C82.014 48.2983 85.5484 50.1831 88.0261 53.1513C90.504 56.3854 91.7634 60.3916 91.5824 64.4644H81.3062C81.4769 62.1921 80.8544 59.9309 79.545 58.0675C78.975 57.375 78.2531 56.8238 77.4355 56.4569C76.6179 56.0899 75.7266 55.9172 74.8314 55.9521C74.0046 55.9006 73.1761 56.0215 72.3982 56.3069C71.6204 56.5924 70.9101 57.0362 70.3121 57.6105C69.7569 58.23 69.3296 58.9534 69.0549 59.7391C68.7802 60.5248 68.6634 61.3571 68.7113 62.1882C68.6737 62.9808 68.7928 63.773 69.0617 64.5194C69.3306 65.2658 69.744 65.9516 70.2783 66.5375C71.9793 68.025 73.9553 69.1635 76.0943 69.8882C78.4862 70.8227 80.8204 71.8993 83.0844 73.1121C84.7813 74.0259 86.3387 75.1785 87.7093 76.5348C88.9479 77.7788 89.9271 79.2572 90.5898 80.884C91.2873 82.6952 91.6258 84.6251 91.5866 86.5659C91.6599 88.3764 91.3632 90.1828 90.7146 91.8743C90.066 93.5657 89.0793 95.1067 87.8149 96.4025C84.9825 99.0629 81.3057 100.64 77.4289 100.857V107.948H71.7692V100.862C67.4893 100.612 63.4587 98.7629 60.4752 95.679C57.7024 92.4334 56.2757 88.2474 56.4881 83.9809H66.7558C66.5984 86.3231 67.3148 88.6405 68.7662 90.4836C69.5061 91.2616 70.4073 91.8675 71.4064 92.2586C72.4054 92.6497 73.478 92.8164 74.5484 92.7471C76.3479 92.8467 78.1173 92.2534 79.4943 91.0886C80.1016 90.5191 80.5781 89.8243 80.891 89.0522C81.2038 88.28 81.3455 87.4491 81.3062 86.6167Z" fill="white" stroke="white" stroke-width="1.52426" stroke-linecap="round" stroke-linejoin="round"/>
<path d="M220.767 60.2928V64.8493C220.775 65.0392 220.743 65.2286 220.674 65.4056C220.605 65.5826 220.5 65.7434 220.366 65.8777C220.232 66.0121 220.071 66.1171 219.895 66.1863C219.718 66.2554 219.529 66.287 219.339 66.2793H211.846C211.28 70.3549 209.232 74.0776 206.094 76.7336C202.572 79.5668 198.284 81.279 193.782 81.6497C198.749 86.9523 205.574 94.9357 214.258 105.6C214.456 105.795 214.581 106.052 214.613 106.328C214.645 106.604 214.583 106.883 214.435 107.119C214.332 107.372 214.151 107.586 213.919 107.731C213.687 107.875 213.416 107.942 213.143 107.923H204.442C204.227 107.932 204.012 107.888 203.818 107.794C203.623 107.7 203.455 107.56 203.327 107.385C194.227 96.4531 186.821 87.9479 181.111 81.8697C180.977 81.744 180.87 81.5919 180.798 81.4231C180.725 81.2542 180.688 81.0721 180.689 80.8881V75.2189C180.694 74.8414 180.846 74.4808 181.113 74.2138C181.379 73.9468 181.739 73.7944 182.116 73.7889H187.113C190.381 73.9294 193.634 73.2702 196.591 71.8682C197.707 71.3181 198.692 70.5351 199.481 69.5719C200.27 68.6086 200.844 67.4874 201.165 66.2835H182.116C181.927 66.2913 181.737 66.2596 181.561 66.1905C181.384 66.1214 181.224 66.0163 181.089 65.8819C180.955 65.7476 180.85 65.5868 180.781 65.4098C180.712 65.2328 180.681 65.0434 180.689 64.8536V60.297C180.681 60.1072 180.712 59.9178 180.781 59.7408C180.85 59.5637 180.955 59.403 181.089 59.2686C181.224 59.1342 181.384 59.0292 181.561 58.9601C181.737 58.891 181.927 58.8592 182.116 58.867H200.561C198.871 55.5021 194.887 53.8197 188.608 53.8197H182.141C181.765 53.8142 181.405 53.6618 181.138 53.3948C180.872 53.1278 180.719 52.7673 180.714 52.3897V46.4666C180.706 46.2767 180.738 46.0873 180.807 45.9103C180.876 45.7333 180.981 45.5726 181.115 45.4382C181.249 45.3038 181.409 45.1988 181.586 45.1296C181.763 45.0605 181.952 45.0288 182.141 45.0366H219.255C219.444 45.0288 219.633 45.0605 219.81 45.1296C219.987 45.1988 220.147 45.3038 220.281 45.4382C220.416 45.5726 220.52 45.7333 220.589 45.9103C220.658 46.0873 220.69 46.2767 220.682 46.4666V51.0232C220.69 51.213 220.658 51.4025 220.589 51.5795C220.52 51.7565 220.416 51.9172 220.281 52.0516C220.147 52.1859 219.987 52.291 219.81 52.3601C219.633 52.4293 219.444 52.4609 219.255 52.4532H208.86C210.294 54.3495 211.271 56.5517 211.716 58.8882H219.343C219.533 58.8804 219.722 58.9121 219.899 58.9812C220.075 59.0503 220.236 59.1554 220.37 59.2898C220.504 59.4241 220.609 59.5849 220.678 59.7619C220.747 59.9389 220.779 60.1283 220.771 60.3181L220.767 60.2928Z" fill="white" stroke="white" stroke-width="0.762128"/>
<path d="M72.8165 177.87C74.5911 176.444 76.8422 175.751 79.1098 175.932C80.836 175.985 82.515 176.51 83.9651 177.45C85.4152 178.389 86.5814 179.708 87.3374 181.263L93.6307 175.932C92.1134 173.18 89.8605 170.905 87.1248 169.364C84.3891 167.822 81.2788 167.074 78.1426 167.204C73.5475 167.004 69.0485 168.563 65.5603 171.566C63.7847 173.418 62.4322 175.635 61.5964 178.062C60.7606 180.49 60.4616 183.07 60.72 185.625V195.322H54.4268V203.077H61.1846V217.127H54.9125V225.377H93.6307V217.127H70.4006V203.077H83.4686V195.322H70.3964V185.143C70.2105 182.493 71.0808 179.878 72.8165 177.87Z" fill="white" stroke="white" stroke-width="1.52426" stroke-linecap="round" stroke-linejoin="round"/>
<path d="M218.186 174.596L203.272 198.762H202.85L188.798 174.596H178.708L194.061 200.082H183.97V206.673H198.01V211.505H183.97V218.096H198.01V227.324H207.661V218.096H221.696V211.505H207.661V207.113L208.083 206.69H221.683V200.082H212.045L227.837 174.596H218.186Z" fill="white" stroke="white" stroke-width="0.762128" stroke-linecap="round" stroke-linejoin="round"/>
</svg>
