<svg width="275" height="275" viewBox="0 0 275 275" fill="none" xmlns="http://www.w3.org/2000/svg">
<path d="M253.762 122.688H72.1448V219.996H253.762V122.688Z" fill="#BFDBF7"/>
<path d="M241.872 191.721V145.53C238.379 145.53 235.028 144.14 232.557 141.665C230.087 139.19 228.699 135.834 228.699 132.334H96.9505C96.9505 135.834 95.5626 139.19 93.092 141.665C90.6215 144.14 87.2708 145.53 83.7769 145.53V191.721C87.2708 191.721 90.6215 193.112 93.092 195.586C95.5626 198.061 96.9505 201.418 96.9505 204.917H228.699C228.699 201.418 230.087 198.061 232.557 195.586C235.028 193.112 238.379 191.721 241.872 191.721Z" fill="#F7F7F7"/>
<path d="M162.822 204.917C177.828 204.917 189.993 188.669 189.993 168.626C189.993 148.582 177.828 132.334 162.822 132.334C147.816 132.334 135.652 148.582 135.652 168.626C135.652 188.669 147.816 204.917 162.822 204.917Z" fill="#1F7A8C"/>
<path d="M213.637 173.457C217.136 173.457 219.972 170.616 219.972 167.111C219.972 163.606 217.136 160.765 213.637 160.765C210.138 160.765 207.302 163.606 207.302 167.111C207.302 170.616 210.138 173.457 213.637 173.457Z" fill="#1F7A8C"/>
<path d="M112.269 173.457C115.768 173.457 118.605 170.616 118.605 167.111C118.605 163.606 115.768 160.765 112.269 160.765C108.77 160.765 105.934 163.606 105.934 167.111C105.934 170.616 108.77 173.457 112.269 173.457Z" fill="#1F7A8C"/>
<path d="M182.547 193.536C179.284 190.446 175.264 188.276 170.894 187.245C170.52 187.185 170.182 186.989 169.943 186.696C169.703 186.404 169.579 186.033 169.593 185.654C169.631 184.808 169.631 183.894 169.627 182.951C169.627 180.785 172.228 178.174 172.372 175.137C173.172 173.595 173.635 171.9 173.732 170.166C173.763 169.824 173.724 169.479 173.618 169.153C173.512 168.826 173.341 168.524 173.115 168.266C173.326 167.132 173.508 165.935 173.732 164.704C174.371 162.679 174.185 160.484 173.214 158.597C172.243 156.709 170.566 155.283 168.55 154.63C164.832 153.94 161.273 152.57 158.05 150.59C157.171 149.744 157.775 154.533 156.977 154.893C155.027 155.551 153.409 156.942 152.463 158.772C151.518 160.603 151.319 162.729 151.908 164.704C152.128 165.935 152.331 167.132 152.525 168.266C152.299 168.524 152.128 168.826 152.022 169.153C151.916 169.479 151.878 169.824 151.908 170.166C152.005 171.9 152.469 173.595 153.268 175.137C153.412 178.179 156.014 180.637 156.014 182.951C156.014 183.894 156.014 184.8 156.048 185.654C156.062 186.033 155.937 186.404 155.698 186.696C155.458 186.989 155.12 187.185 154.747 187.245C150.376 188.276 146.356 190.446 143.094 193.536C145.219 196.889 148.123 199.675 151.558 201.657C154.993 203.639 158.857 204.758 162.818 204.917C166.779 204.758 170.643 203.639 174.078 201.657C177.513 199.675 180.417 196.889 182.542 193.536H182.547Z" fill="#F7F7F7"/>
<path d="M50.1188 67.0702C50.1188 67.0702 126.913 55.203 132.408 58.1392C137.903 61.0753 190.943 82.1826 190.943 82.1826C190.943 82.1826 226.824 102.913 226.988 106.84C227.153 110.766 229.877 122.024 218.009 120.458C206.141 118.893 183.797 101.153 183.797 101.153H132.412C132.412 101.153 125.921 105.219 130.415 110.609C134.909 115.999 155.993 129.267 154.996 132.533C153.999 135.799 154.764 152.037 138.612 146.325C122.461 140.614 87.3119 120.462 87.3119 120.462L70.1219 106.844L50.1188 110.609V67.0702Z" fill="#BFDBF7"/>
<path d="M51.0267 55H25.6848C23.3521 55 21.4611 56.8942 21.4611 59.2308V122.692C21.4611 125.029 23.3521 126.923 25.6848 126.923H51.0267C53.3593 126.923 55.2503 125.029 55.2503 122.692V59.2308C55.2503 56.8942 53.3593 55 51.0267 55Z" fill="#1F7A8C"/>
</svg>
