<svg width="748" height="834" viewBox="0 0 748 834" fill="none" xmlns="http://www.w3.org/2000/svg">
<path opacity="0.4" d="M429.602 575.126L407.604 563.067L427.133 551.791L449.13 563.851L429.602 575.126Z" fill="#D6D8E5"/>
<path opacity="0.4" d="M547.875 644.765L525.878 632.689L545.407 621.43L567.387 633.49L547.875 644.765Z" fill="#D6D8E5"/>
<path d="M438.19 570.056L417.443 558.079L483.518 346.977L504.264 358.954L438.19 570.056Z" fill="#B1B4C4"/>
<path d="M450.348 563.35L429.602 551.374L495.676 340.272L516.406 352.248L450.348 563.35Z" fill="#9EA2B2"/>
<path d="M438.19 570.056L417.443 558.079L483.518 346.977L504.264 358.954L438.19 570.056Z" fill="#B1B4C4"/>
<path d="M572.274 631.155L551.377 619.078L522.843 353.349L543.589 365.342L572.274 631.155Z" fill="#9EA2B2"/>
<path d="M557.748 639.444L536.852 627.368L508.317 361.639L529.064 373.615L557.748 639.444Z" fill="#B1B4C4"/>
<path d="M722.184 474.363L332.374 249.266L349.985 239.091L739.795 464.188L722.184 474.363Z" fill="#D6D8E5"/>
<path d="M722.184 494.662L332.374 269.565V249.216L722.184 474.312V494.662Z" fill="#B1B4C4"/>
<path d="M714.295 459.1L355.321 251.801V0L714.295 207.299V459.1Z" fill="#F4F4F4"/>
<path d="M740.078 484.337L722.184 494.662V473.996L740.078 463.671V484.337Z" fill="#9EA2B2"/>
<path d="M411.49 75.0266L381.755 57.8629V46.4204L411.49 63.5842V75.0266Z" fill="#D6D8E5"/>
<path d="M476.448 112.54L424.148 82.3492V70.89L476.448 101.097V112.54Z" fill="#D6D8E5"/>
<path d="M411.49 96.6439L381.755 79.4802V68.0377L411.49 85.2014V96.6439Z" fill="#D6D8E5"/>
<path d="M476.448 134.157L424.148 103.966V92.5073L476.448 122.715V134.157Z" fill="#D6D8E5"/>
<path d="M411.49 121.447L381.755 104.283V92.8242L411.49 110.005V121.447Z" fill="#D6D8E5"/>
<path d="M476.448 158.96L424.148 128.753V117.31L476.448 147.518V158.96Z" fill="#D6D8E5"/>
<path d="M411.49 146.25L381.755 129.07V117.627L411.49 134.791V146.25Z" fill="#D6D8E5"/>
<path d="M476.448 183.764L424.148 153.556V142.114L476.448 172.321V183.764Z" fill="#D6D8E5"/>
<path d="M515.072 138.811C521.659 130.304 533.417 128.936 546.925 136.709C548.226 137.46 549.51 138.277 550.761 139.145L547.008 179.944L514.955 138.978L515.072 138.811Z" fill="#9ACC12"/>
<path d="M581.913 184.798L546.892 179.944L550.727 139.145C565.07 149.103 577.027 166.983 581.913 184.798Z" fill="#E8BC05"/>
<path d="M584.364 201.561C584.364 219.909 574.358 229.917 560.399 228.099L547.008 179.944L582.03 184.798C583.566 190.253 584.352 195.893 584.364 201.561Z" fill="#EF6848"/>
<path d="M514.954 138.978C511.486 143.531 509.484 150.087 509.484 158.327C509.484 182.212 526.245 211.236 546.924 223.178C551.048 225.674 555.62 227.34 560.383 228.082L547.008 179.944L515.155 138.811L514.954 138.978Z" fill="#BE4AED"/>
<path d="M618.586 198.592C625.173 190.085 636.93 188.718 650.439 196.474C651.74 197.224 653.007 198.042 654.275 198.926L650.406 239.725L618.419 198.742L618.586 198.592Z" fill="#543526"/>
<path d="M685.428 244.562L650.406 239.725L654.242 198.926C668.584 208.867 680.525 226.748 685.428 244.562Z" fill="#1B96EA"/>
<path d="M687.88 261.342C687.88 279.69 677.873 289.698 663.915 287.863L650.406 239.725L685.428 244.562C686.995 250.02 687.819 255.664 687.88 261.342Z" fill="#FF5050"/>
<path d="M618.452 198.742C615 203.313 612.999 209.851 612.999 218.091C612.999 241.977 629.759 271.017 650.439 282.96C654.561 285.457 659.134 287.118 663.897 287.847L650.406 239.725L618.552 198.592L618.452 198.742Z" fill="#32CEC3"/>
<path d="M514.955 317.904C514.955 317.904 540.321 269.532 604.744 331.248C669.168 392.964 685.428 345.093 685.428 345.093" stroke="#D6D8E5" stroke-width="1.42" stroke-miterlimit="10"/>
<path d="M573.562 311.8C575.66 310.589 575.662 306.664 573.567 303.034C571.471 299.404 568.072 297.444 565.974 298.655C563.876 299.867 563.874 303.791 565.97 307.421C568.065 311.051 571.464 313.012 573.562 311.8Z" fill="#D6D8E5"/>
<path d="M528.009 311.712C530.106 310.5 530.108 306.576 528.013 302.946C525.918 299.316 522.518 297.355 520.42 298.566C518.323 299.778 518.321 303.702 520.416 307.332C522.511 310.962 525.911 312.923 528.009 311.712Z" fill="#D6D8E5"/>
<path d="M624.716 350.06C626.824 348.849 626.834 344.91 624.738 341.264C622.643 337.617 619.236 335.643 617.128 336.854C615.021 338.066 615.011 342.004 617.107 345.651C619.202 349.297 622.609 351.271 624.716 350.06Z" fill="#D6D8E5"/>
<path d="M677.098 365.371C679.196 364.16 679.198 360.235 677.103 356.605C675.007 352.975 671.608 351.015 669.51 352.226C667.413 353.437 667.411 357.362 669.506 360.992C671.601 364.622 675.001 366.583 677.098 365.371Z" fill="#D6D8E5"/>
<path d="M391.928 249.099L381.755 243.211V207.916L391.928 213.804V249.099Z" fill="#D6D8E5"/>
<path d="M420.113 265.362L409.923 259.474V211.786L420.113 217.674V265.362Z" fill="#D6D8E5"/>
<path d="M448.28 281.625L438.09 275.754V207.399L448.28 213.27V281.625Z" fill="#D6D8E5"/>
<path d="M476.448 297.888L466.258 292.017V207.132L476.448 213.004V297.888Z" fill="#D6D8E5"/>
<path d="M557.748 639.444L572.274 631.155L554.88 612.907L557.748 639.444Z" fill="#9EA2B2"/>
<path d="M438.19 570.056L450.348 563.35L445.678 546.137L438.19 570.056Z" fill="#9EA2B2"/>
<path opacity="0.3" d="M220.154 768.848C252.353 768.848 278.457 753.77 278.457 735.171C278.457 716.572 252.353 701.494 220.154 701.494C187.954 701.494 161.851 716.572 161.851 735.171C161.851 753.77 187.954 768.848 220.154 768.848Z" fill="#D6D8E5"/>
<path d="M234.579 760.191C266.779 760.191 292.882 745.113 292.882 726.514C292.882 707.915 266.779 692.837 234.579 692.837C202.38 692.837 176.276 707.915 176.276 726.514C176.276 745.113 202.38 760.191 234.579 760.191Z" fill="#DD990E"/>
<path d="M176.293 727.014V711.686L187.817 721.944L176.293 727.014Z" fill="#DD990E"/>
<path d="M292.899 712.086V726.514L286.995 732.769L284.11 716.239L292.899 712.086Z" fill="#DD990E"/>
<path d="M234.579 745.763C266.779 745.763 292.882 730.685 292.882 712.086C292.882 693.487 266.779 678.409 234.579 678.409C202.38 678.409 176.276 693.487 176.276 712.086C176.276 730.685 202.38 745.763 234.579 745.763Z" fill="#F9CB07"/>
<path d="M276.255 713.12C275.655 718.791 271.619 724.379 264.097 728.716C247.804 738.123 221.371 738.123 205.061 728.716C197.556 724.379 193.503 718.791 192.936 713.12C192.219 706.448 196.272 699.776 205.061 694.639C221.371 685.214 247.804 685.214 264.097 694.639C272.886 699.709 276.939 706.481 276.255 713.12Z" fill="#CC8B09"/>
<path d="M276.255 713.12C275.655 718.791 271.619 724.379 264.098 728.716C247.804 738.123 221.371 738.123 205.061 728.716C197.556 724.379 193.504 718.791 192.937 713.12C193.504 707.449 197.556 701.861 205.061 697.524C221.371 688.1 247.804 688.1 264.098 697.524C271.619 701.861 275.655 707.449 276.255 713.12Z" fill="#E8A30A"/>
<path d="M233.979 705.23C233.464 705.23 232.951 705.275 232.444 705.364C231.761 705.447 230.993 705.597 230.143 705.764C229.292 705.931 228.392 706.181 227.475 706.448C226.581 706.724 225.706 707.058 224.856 707.449L231.527 711.319L232.744 710.902C234.412 710.334 236.08 709.851 237.564 709.45C238.982 709.067 240.435 708.827 241.9 708.733C243.24 708.652 244.585 708.742 245.903 709C247.243 709.292 248.527 709.799 249.705 710.501C250.875 711.082 251.874 711.955 252.607 713.037C252.846 713.424 253.007 713.855 253.078 714.304C253.15 714.754 253.131 715.213 253.024 715.655C252.741 716.642 252.2 717.534 251.456 718.241C250.531 719.164 249.501 719.975 248.388 720.659L252.657 723.111L250.339 724.462L246.036 721.977C243.983 722.984 241.838 723.794 239.632 724.396C237.322 725.034 234.962 725.474 232.578 725.713L230.326 721.677C230.743 721.677 231.377 721.677 232.211 721.543C233.045 721.41 233.995 721.277 235.029 721.06C236.063 720.843 237.147 720.559 238.365 720.226C239.505 719.896 240.62 719.483 241.7 718.991L235.029 715.155L234.145 715.455L233.245 715.722C231.731 716.242 230.188 716.677 228.625 717.023C227.334 717.33 226.016 717.509 224.689 717.557C223.523 717.601 222.357 717.489 221.221 717.223C220.096 716.954 219.017 716.522 218.019 715.939C216.915 715.361 215.957 714.54 215.217 713.537C214.68 712.786 214.415 711.874 214.466 710.952C214.57 709.995 214.953 709.09 215.567 708.35C216.341 707.392 217.258 706.559 218.285 705.881L214.333 703.596L216.651 702.261L220.57 704.513C222.405 703.604 224.335 702.899 226.324 702.411C228.216 701.931 230.138 701.58 232.077 701.361L233.979 705.23ZM222.571 712.236C223.459 712.734 224.477 712.949 225.49 712.853C226.848 712.702 228.185 712.4 229.476 711.952L223.205 708.333C220.904 709.823 220.693 711.124 222.571 712.236ZM244.585 714.071C243.63 713.545 242.529 713.346 241.45 713.504C239.967 713.693 238.505 714.016 237.081 714.471L243.318 718.074C245.969 716.473 246.403 715.138 244.585 714.104V714.071Z" fill="#CC8B09"/>
<path d="M230.36 721.677C230.36 721.527 230.36 719.425 230.36 719.425L232.929 721.093L231.811 722.761L230.36 721.677Z" fill="#CC8B09"/>
<path d="M252.69 723.111V720.86L247.137 721.277L250.322 723.445L252.69 723.111Z" fill="#CC8B09"/>
<path d="M253.157 714.821V712.536L249.005 714.037L253.157 714.821Z" fill="#CC8B09"/>
<path d="M235.964 714.688L237.348 713.37L242.218 716.706L241.918 717.69C241.918 717.69 238.282 716.156 238.165 716.022L235.964 714.688Z" fill="#CC8B09"/>
<path d="M223.223 707.566L229.677 711.235L231.011 710.268C231.011 710.268 230.194 709.35 230.127 709.25C229.545 708.599 228.871 708.037 228.126 707.582C227.642 707.499 224.573 706.114 224.573 706.114L223.223 707.566Z" fill="#CC8B09"/>
<path d="M233.979 705.23V702.979L231.011 702.011L230.36 703.779L230.527 704.597L233.979 705.23Z" fill="#CC8B09"/>
<path d="M214.25 703.596V701.344L217.685 701.711L216.585 703.896L214.25 703.596Z" fill="#CC8B09"/>
<path d="M214.366 711.269V708.9H218.319L217.351 711.018L215.684 712.887L214.366 711.269Z" fill="#CC8B09"/>
<path d="M233.979 702.979C233.465 702.971 232.951 703.01 232.444 703.095C231.761 703.195 230.993 703.329 230.143 703.512C229.292 703.696 228.392 703.913 227.475 704.196C226.579 704.459 225.703 704.788 224.856 705.18L231.527 709.067L232.744 708.633C234.412 708.066 236.08 707.582 237.564 707.199C238.982 706.815 240.435 706.575 241.9 706.481C243.24 706.392 244.586 706.482 245.903 706.748C247.244 707.027 248.53 707.529 249.705 708.233C250.871 708.819 251.869 709.691 252.607 710.768C252.846 711.156 253.005 711.586 253.077 712.036C253.148 712.485 253.13 712.944 253.024 713.387C252.745 714.375 252.203 715.268 251.456 715.972C250.531 716.895 249.501 717.707 248.388 718.391L252.657 720.86L250.339 722.194L246.036 719.709C243.986 720.722 241.841 721.532 239.632 722.127C237.324 722.773 234.963 723.214 232.578 723.445L230.326 719.425C230.957 719.409 231.586 719.359 232.211 719.275C233.158 719.163 234.099 719.002 235.029 718.791C236.063 718.574 237.147 718.291 238.365 717.957C239.504 717.633 240.619 717.226 241.7 716.74L235.029 712.887L234.145 713.187L233.245 713.47C231.577 714.021 230.026 714.454 228.625 714.771C227.334 715.073 226.015 715.246 224.689 715.288C223.524 715.33 222.359 715.224 221.221 714.972C220.093 714.704 219.013 714.265 218.019 713.67C216.915 713.092 215.957 712.271 215.217 711.269C214.677 710.519 214.412 709.606 214.466 708.683C214.57 707.727 214.953 706.822 215.567 706.081C216.337 705.125 217.255 704.297 218.285 703.629L214.333 701.344L216.651 699.993L220.57 702.261C222.405 701.347 224.334 700.636 226.324 700.143C228.214 699.66 230.137 699.314 232.077 699.109L233.979 702.979ZM222.571 710.001C223.457 710.504 224.475 710.726 225.49 710.635C226.845 710.468 228.181 710.166 229.476 709.734L223.205 706.098C220.904 707.621 220.693 708.922 222.571 710.001ZM244.585 711.836C243.63 711.31 242.529 711.111 241.45 711.269C239.968 711.465 238.507 711.789 237.081 712.236L243.318 715.839C245.969 714.221 246.403 712.887 244.585 711.836Z" fill="#F9CA06"/>
<path d="M239.349 742.227C271.549 742.227 297.652 727.149 297.652 708.55C297.652 689.95 271.549 674.873 239.349 674.873C207.149 674.873 181.046 689.95 181.046 708.55C181.046 727.149 207.149 742.227 239.349 742.227Z" fill="#DD990E"/>
<path d="M181.062 709.067V693.721L192.57 703.979L181.062 709.067Z" fill="#DD990E"/>
<path d="M297.652 694.122V708.55L291.765 714.805L288.88 698.292L297.652 694.122Z" fill="#DD990E"/>
<path d="M239.349 727.798C271.549 727.798 297.652 712.721 297.652 694.122C297.652 675.522 271.549 660.445 239.349 660.445C207.149 660.445 181.046 675.522 181.046 694.122C181.046 712.721 207.149 727.798 239.349 727.798Z" fill="#F9CB07"/>
<path d="M281.008 695.172C280.424 700.844 276.388 706.431 268.867 710.768C252.557 720.176 226.14 720.176 209.83 710.768C202.309 706.431 198.273 700.844 197.706 695.172C196.989 688.5 201.041 681.828 209.83 676.691C226.14 667.267 252.557 667.267 268.867 676.691C277.656 681.745 281.708 688.534 281.008 695.172Z" fill="#CC8B09"/>
<path d="M281.008 695.172C280.424 700.844 276.388 706.431 268.867 710.768C252.557 720.176 226.14 720.176 209.83 710.768C202.309 706.431 198.273 700.844 197.706 695.172C198.273 689.501 202.309 683.913 209.83 679.577C226.14 670.152 252.557 670.152 268.867 679.577C276.388 683.88 280.424 689.501 281.008 695.172Z" fill="#E8A30A"/>
<path d="M238.732 687.216C238.218 687.209 237.705 687.248 237.198 687.333C236.514 687.433 235.747 687.566 234.897 687.75C234.046 687.933 233.229 688.15 232.245 688.434C231.349 688.702 230.473 689.036 229.627 689.434L236.297 693.304L237.498 692.871C239.166 692.303 240.834 691.82 242.335 691.436C243.752 691.053 245.205 690.812 246.671 690.719C248.005 690.63 249.346 690.72 250.656 690.986C252.001 691.272 253.291 691.773 254.475 692.47C255.637 693.056 256.63 693.928 257.361 695.006C257.602 695.392 257.765 695.822 257.839 696.272C257.913 696.721 257.898 697.181 257.794 697.624C257.508 698.609 256.968 699.501 256.227 700.21C255.305 701.137 254.275 701.949 253.158 702.628L257.427 705.097L255.093 706.431L250.79 703.946C248.745 704.96 246.606 705.77 244.402 706.365C242.094 707.008 239.733 707.448 237.348 707.682L235.147 703.729C235.777 703.713 236.406 703.663 237.031 703.579C237.973 703.466 238.908 703.305 239.833 703.095C240.867 702.879 241.968 702.595 243.168 702.261C244.311 701.944 245.426 701.537 246.504 701.044L239.833 697.191L238.966 697.491L238.049 697.774C236.381 698.33 234.847 698.764 233.446 699.075C232.154 699.376 230.836 699.549 229.51 699.593C228.345 699.643 227.178 699.537 226.041 699.276C224.909 699.005 223.824 698.566 222.822 697.975C221.729 697.396 220.777 696.581 220.037 695.589C219.5 694.838 219.235 693.926 219.287 693.004C219.379 692.04 219.763 691.126 220.387 690.385C221.152 689.429 222.064 688.601 223.089 687.933L219.137 685.648L221.472 684.297L225.391 686.565C227.225 685.651 229.155 684.94 231.144 684.447C233.035 683.964 234.957 683.618 236.898 683.413L238.732 687.216ZM227.342 694.238C228.219 694.749 229.234 694.97 230.244 694.872C231.605 694.708 232.946 694.406 234.246 693.971L227.959 690.352C225.657 691.898 225.452 693.215 227.342 694.305V694.238ZM249.356 696.073C248.398 695.553 247.297 695.36 246.22 695.523C244.734 695.713 243.266 696.031 241.834 696.473L248.071 700.076C250.74 698.525 251.157 697.224 249.356 696.14V696.073Z" fill="#CC8B09"/>
<path d="M235.146 703.729C235.146 703.562 235.146 701.461 235.146 701.461L237.715 703.129L236.597 704.797L235.146 703.729Z" fill="#CC8B09"/>
<path d="M257.461 705.164V702.895L251.907 703.329L255.093 705.497L257.461 705.164Z" fill="#CC8B09"/>
<path d="M257.927 696.857V694.572L253.774 696.073L257.927 696.857Z" fill="#CC8B09"/>
<path d="M240.733 696.74L242.118 695.423L246.987 698.759L246.687 699.743C246.687 699.743 243.035 698.208 242.918 698.075C242.801 697.941 240.733 696.74 240.733 696.74Z" fill="#CC8B09"/>
<path d="M227.976 689.618L234.446 693.271L235.764 692.32L234.897 691.303C234.317 690.642 233.636 690.079 232.879 689.635C232.395 689.535 229.343 688.167 229.343 688.167L227.976 689.618Z" fill="#CC8B09"/>
<path d="M238.732 687.283V685.014L235.764 684.047L235.13 685.832L235.28 686.632L238.732 687.283Z" fill="#CC8B09"/>
<path d="M219.003 685.648V683.38L222.455 683.747L221.338 685.948L219.003 685.648Z" fill="#CC8B09"/>
<path d="M219.137 693.321V690.969H223.089L222.122 693.071L220.454 694.956L219.137 693.321Z" fill="#CC8B09"/>
<path d="M238.732 685.014C238.218 685.015 237.705 685.06 237.198 685.148C236.514 685.231 235.747 685.381 234.897 685.548C234.046 685.715 233.229 685.965 232.245 686.232C231.351 686.508 230.476 686.842 229.627 687.233L236.297 691.102L237.498 690.685C239.166 690.118 240.834 689.635 242.335 689.234C243.752 688.851 245.205 688.611 246.671 688.517C248.005 688.436 249.345 688.526 250.656 688.784C252.002 689.076 253.291 689.583 254.475 690.285C255.641 690.866 256.635 691.739 257.361 692.82C257.602 693.207 257.765 693.637 257.839 694.087C257.913 694.536 257.898 694.996 257.794 695.439C257.505 696.423 256.965 697.314 256.227 698.025C255.301 698.947 254.271 699.759 253.158 700.443L257.427 702.895L255.093 704.246L250.79 701.761C248.742 702.768 246.603 703.577 244.402 704.18C242.092 704.814 239.732 705.255 237.348 705.497L235.147 701.461C235.564 701.461 236.181 701.461 237.031 701.327C237.882 701.194 238.799 701.06 239.833 700.844C240.867 700.627 241.968 700.343 243.168 700.01C244.309 699.679 245.423 699.267 246.504 698.775L239.833 694.939L238.966 695.239L238.049 695.523C236.538 696.032 235.002 696.461 233.446 696.807C232.154 697.113 230.836 697.292 229.51 697.341C228.344 697.386 227.177 697.274 226.041 697.007C224.912 696.735 223.828 696.303 222.822 695.723C221.727 695.139 220.775 694.319 220.037 693.321C219.5 692.57 219.235 691.658 219.287 690.735C219.383 689.777 219.766 688.87 220.387 688.133C221.155 687.176 222.067 686.343 223.089 685.665L219.137 683.38L221.472 682.045L225.391 684.297C227.226 683.388 229.155 682.683 231.144 682.195C233.036 681.715 234.958 681.364 236.898 681.144L238.732 685.014ZM227.342 692.053C228.225 692.548 229.236 692.763 230.244 692.67C231.608 692.522 232.95 692.22 234.246 691.77L227.959 688.15C225.657 689.651 225.452 690.952 227.342 692.053ZM249.356 693.888C248.4 693.362 247.299 693.163 246.22 693.321C244.732 693.509 243.264 693.833 241.834 694.288L248.071 697.891C250.74 696.257 251.157 694.922 249.356 693.888Z" fill="#F9CA06"/>
<path d="M235.764 724.946C267.964 724.946 294.067 709.868 294.067 691.269C294.067 672.67 267.964 657.592 235.764 657.592C203.564 657.592 177.461 672.67 177.461 691.269C177.461 709.868 203.564 724.946 235.764 724.946Z" fill="#DD990E"/>
<path d="M177.478 691.786V676.441L189.001 686.699L177.478 691.786Z" fill="#DD990E"/>
<path d="M294.084 676.841V691.269L288.197 697.524L285.295 680.994L294.084 676.841Z" fill="#DD990E"/>
<path d="M235.764 710.518C267.964 710.518 294.067 695.44 294.067 676.841C294.067 658.242 267.964 643.164 235.764 643.164C203.564 643.164 177.461 658.242 177.461 676.841C177.461 695.44 203.564 710.518 235.764 710.518Z" fill="#F9CB07"/>
<path d="M277.44 677.875C276.857 683.546 272.804 689.134 265.299 693.488C248.989 702.895 222.556 702.895 206.263 693.488C198.741 689.134 194.705 683.48 194.122 677.875C193.421 671.203 197.457 664.531 206.263 659.394C222.556 649.97 248.989 649.97 265.299 659.394C274.072 664.465 278.141 671.237 277.44 677.875Z" fill="#CC8B09"/>
<path d="M277.44 677.875C276.856 683.546 272.804 689.134 265.299 693.488C248.989 702.895 222.556 702.895 206.262 693.488C198.741 689.134 194.705 683.48 194.121 677.875C194.705 672.204 198.741 666.633 206.262 662.279C222.556 652.855 248.989 652.855 265.299 662.279C272.804 666.633 276.839 672.204 277.44 677.875Z" fill="#E8A30A"/>
<path d="M235.147 670.002C234.633 669.995 234.119 670.034 233.612 670.119C232.929 670.219 232.161 670.353 231.311 670.536C230.416 670.717 229.53 670.945 228.659 671.22C227.762 671.48 226.887 671.809 226.041 672.204L232.712 676.074L233.912 675.657C235.58 675.09 237.248 674.606 238.732 674.206C240.152 673.832 241.604 673.591 243.068 673.488C244.409 673.413 245.754 673.508 247.071 673.772C248.417 674.053 249.707 674.555 250.89 675.256C252.052 675.842 253.045 676.715 253.775 677.792C254.014 678.179 254.175 678.61 254.246 679.059C254.318 679.509 254.299 679.968 254.192 680.411C253.909 681.397 253.368 682.289 252.624 682.996C251.705 683.919 250.68 684.73 249.572 685.415L253.825 687.867L251.507 689.218L247.204 686.732C245.155 687.749 243.01 688.559 240.8 689.151C238.49 689.789 236.13 690.23 233.746 690.469L231.511 686.449C232.136 686.432 232.759 686.382 233.379 686.299C234.326 686.187 235.267 686.026 236.197 685.815C237.231 685.598 238.315 685.314 239.533 684.981C240.672 684.655 241.787 684.249 242.868 683.763L236.197 679.91L235.33 680.21L234.413 680.494C232.745 681.044 231.194 681.478 229.793 681.795C228.506 682.087 227.194 682.261 225.874 682.312C224.709 682.354 223.543 682.248 222.405 681.995C221.274 681.723 220.189 681.285 219.187 680.694C218.083 680.116 217.125 679.295 216.385 678.292C215.845 677.542 215.58 676.629 215.634 675.707C215.738 674.75 216.121 673.845 216.735 673.105C217.513 672.151 218.429 671.319 219.453 670.636L215.501 668.368L217.819 667.017L221.738 669.285C223.573 668.37 225.502 667.66 227.492 667.167C229.384 666.686 231.306 666.335 233.245 666.116L235.147 670.002ZM223.756 677.025C224.634 677.532 225.65 677.749 226.658 677.642C228.014 677.49 229.351 677.194 230.644 676.758L224.373 673.121C222.088 674.639 221.805 675.94 223.773 677.025H223.756ZM245.77 678.859C244.81 678.33 243.702 678.131 242.618 678.292C241.136 678.489 239.675 678.813 238.249 679.26L244.486 682.863C247.154 681.228 247.588 679.899 245.787 678.876L245.77 678.859Z" fill="#CC8B09"/>
<path d="M231.562 686.449C231.562 686.282 231.562 684.18 231.562 684.18L234.113 685.848L232.996 687.516L231.562 686.449Z" fill="#CC8B09"/>
<path d="M253.876 687.867V685.615L248.339 686.032L251.524 688.217L253.876 687.867Z" fill="#CC8B09"/>
<path d="M254.342 679.577V677.291L250.189 678.793L254.342 679.577Z" fill="#CC8B09"/>
<path d="M237.148 679.46L238.533 678.125L243.402 681.461L243.102 682.462C243.102 682.462 239.467 680.928 239.35 680.794L237.148 679.46Z" fill="#CC8B09"/>
<path d="M224.407 672.337L230.878 675.99L232.195 675.04C232.195 675.04 231.378 674.106 231.328 674.005C231.278 673.905 229.794 672.421 229.31 672.337C228.827 672.254 225.758 670.87 225.758 670.87L224.407 672.337Z" fill="#CC8B09"/>
<path d="M235.164 670.002V667.734L232.195 666.766L231.562 668.534L231.712 669.352L235.164 670.002Z" fill="#CC8B09"/>
<path d="M215.435 668.368V666.099L218.87 666.466L217.769 668.668L215.435 668.368Z" fill="#CC8B09"/>
<path d="M215.568 676.04V673.689H219.504L218.554 675.79L216.886 677.675L215.568 676.04Z" fill="#CC8B09"/>
<path d="M235.147 667.734C234.634 667.735 234.121 667.774 233.613 667.851C232.929 667.951 232.162 668.084 231.312 668.268C230.461 668.451 229.644 668.685 228.66 668.951C227.765 669.224 226.89 669.559 226.042 669.952L232.712 673.822L233.913 673.388C235.581 672.821 237.249 672.354 238.733 671.954C240.151 671.572 241.603 671.331 243.069 671.237C244.409 671.147 245.755 671.237 247.071 671.503C248.415 671.792 249.704 672.293 250.89 672.988C252.073 673.571 253.084 674.45 253.826 675.54C254.065 675.93 254.225 676.364 254.296 676.816C254.368 677.268 254.349 677.73 254.243 678.175C253.959 679.157 253.418 680.044 252.675 680.744C251.76 681.672 250.735 682.484 249.623 683.163L253.876 685.631L251.558 686.966L247.255 684.497C245.205 685.508 243.06 686.313 240.851 686.899C238.541 687.542 236.181 687.989 233.796 688.233L231.562 684.197C232.187 684.18 232.81 684.13 233.43 684.047C234.378 683.943 235.319 683.782 236.248 683.563C237.282 683.346 238.366 683.063 239.583 682.729C240.725 682.411 241.841 682.004 242.919 681.511L236.248 677.658C235.964 677.773 235.675 677.874 235.381 677.959L234.464 678.242C232.796 678.793 231.245 679.226 229.844 679.543C228.557 679.841 227.245 680.019 225.925 680.077C224.759 680.114 223.593 680.002 222.456 679.743C221.322 679.479 220.237 679.04 219.237 678.442C218.131 677.875 217.172 677.059 216.436 676.057C215.898 675.306 215.634 674.394 215.685 673.472C215.785 672.509 216.168 671.598 216.786 670.853C217.565 669.905 218.481 669.078 219.504 668.401L215.552 666.116L217.87 664.765L221.789 667.033C223.624 666.119 225.553 665.408 227.543 664.915C229.433 664.431 231.356 664.086 233.296 663.881L235.147 667.734ZM223.757 674.756C224.632 675.27 225.649 675.492 226.659 675.39C228.015 675.232 229.352 674.93 230.645 674.489L224.374 670.87C222.089 672.371 221.806 673.672 223.774 674.756H223.757ZM245.771 676.591C244.806 676.075 243.701 675.882 242.619 676.04C241.137 676.231 239.676 676.549 238.249 676.991L244.486 680.594C247.155 678.982 247.588 677.647 245.787 676.591H245.771Z" fill="#F9CA06"/>
<path d="M240.734 708.266C272.934 708.266 299.037 693.188 299.037 674.589C299.037 655.99 272.934 640.912 240.734 640.912C208.534 640.912 182.431 655.99 182.431 674.589C182.431 693.188 208.534 708.266 240.734 708.266Z" fill="#DD990E"/>
<path d="M182.431 675.106V659.761L193.955 670.019L182.431 675.106Z" fill="#DD990E"/>
<path d="M299.037 660.161V674.589L293.15 680.844L290.265 664.331L299.037 660.161Z" fill="#DD990E"/>
<path d="M240.734 693.838C272.934 693.838 299.037 678.76 299.037 660.161C299.037 641.562 272.934 626.484 240.734 626.484C208.534 626.484 182.431 641.562 182.431 660.161C182.431 678.76 208.534 693.838 240.734 693.838Z" fill="#F9CB07"/>
<path d="M282.393 661.212C281.81 666.883 277.774 672.471 270.252 676.808C253.942 686.215 227.526 686.215 211.216 676.808C203.694 672.471 199.658 666.883 199.075 661.212C198.374 654.54 202.41 647.784 211.216 642.73C227.526 633.306 253.942 633.306 270.252 642.73C279.041 647.784 283.094 654.573 282.393 661.212Z" fill="#CC8B09"/>
<path d="M282.393 661.212C281.809 666.883 277.773 672.471 270.252 676.808C253.942 686.215 227.525 686.215 211.215 676.808C203.694 672.471 199.658 666.883 199.074 661.212C199.658 655.541 203.694 649.953 211.215 645.616C227.525 636.192 253.942 636.192 270.252 645.616C277.773 649.953 281.843 655.524 282.393 661.212Z" fill="#E8A30A"/>
<path d="M240.15 653.322C239.637 653.315 239.123 653.354 238.616 653.439C237.932 653.539 237.165 653.673 236.315 653.856C235.464 654.039 234.647 654.273 233.663 654.54C232.767 654.808 231.892 655.143 231.045 655.541L237.716 659.41L238.916 658.977C240.584 658.41 242.252 657.943 243.736 657.542C245.16 657.16 246.618 656.92 248.089 656.825C249.423 656.736 250.764 656.826 252.075 657.092C253.419 657.378 254.709 657.879 255.894 658.576C257.056 659.162 258.049 660.035 258.779 661.112C259.02 661.498 259.183 661.928 259.257 662.378C259.332 662.827 259.316 663.287 259.212 663.731C258.927 664.715 258.386 665.607 257.645 666.316C256.724 667.244 255.693 668.056 254.576 668.735L258.845 671.203L256.511 672.538L252.208 670.069C250.163 671.077 248.023 671.882 245.821 672.471C243.51 673.111 241.151 673.558 238.766 673.805L236.515 669.769C237.145 669.752 237.774 669.702 238.399 669.619C239.342 669.514 240.278 669.352 241.201 669.135C242.235 668.918 243.336 668.634 244.537 668.301C245.679 667.984 246.794 667.577 247.872 667.083L241.201 663.23C240.918 663.348 240.629 663.448 240.334 663.53L239.417 663.814C237.749 664.37 236.215 664.804 234.814 665.115C233.521 665.412 232.203 665.59 230.878 665.649C229.712 665.686 228.547 665.574 227.409 665.315C226.277 665.044 225.193 664.606 224.191 664.014C223.092 663.442 222.139 662.626 221.405 661.629C220.868 660.878 220.603 659.966 220.655 659.043C220.74 658.077 221.125 657.162 221.756 656.425C222.524 655.473 223.436 654.646 224.457 653.973L220.505 651.688L222.84 650.337L226.742 652.605C228.582 651.69 230.517 650.98 232.512 650.487C234.403 650.003 236.326 649.658 238.266 649.452L240.15 653.322ZM228.76 660.345C229.637 660.855 230.652 661.077 231.662 660.978C233.024 660.822 234.366 660.52 235.664 660.078L229.377 656.458C227.053 657.959 226.837 659.255 228.727 660.345H228.76ZM250.774 662.179C249.814 661.665 248.716 661.472 247.638 661.629C246.152 661.819 244.684 662.137 243.252 662.58L249.49 666.183C252.125 664.565 252.542 663.23 250.74 662.196L250.774 662.179Z" fill="#CC8B09"/>
<path d="M236.515 669.769C236.515 669.602 236.515 667.5 236.515 667.5L239.083 669.168L237.966 670.836L236.515 669.769Z" fill="#CC8B09"/>
<path d="M258.845 671.203V668.935L253.292 669.368L256.477 671.537L258.845 671.203Z" fill="#CC8B09"/>
<path d="M259.312 662.897V660.611L255.159 662.113L259.312 662.897Z" fill="#CC8B09"/>
<path d="M242.118 662.78L243.486 661.462L248.355 664.798L248.055 665.782C248.055 665.782 244.42 664.248 244.303 664.114C244.186 663.981 242.118 662.78 242.118 662.78Z" fill="#CC8B09"/>
<path d="M229.36 655.657L235.831 659.327L237.149 658.36L236.281 657.342C235.702 656.682 235.021 656.119 234.263 655.674C233.78 655.591 230.711 654.206 230.711 654.206L229.36 655.657Z" fill="#CC8B09"/>
<path d="M240.117 653.322V651.054L237.148 650.103L236.515 651.871L236.665 652.688L240.117 653.322Z" fill="#CC8B09"/>
<path d="M220.388 651.688V649.419L223.84 649.786L222.723 651.988L220.388 651.688Z" fill="#CC8B09"/>
<path d="M220.521 659.36V657.009H224.474L223.507 659.11L221.839 660.995L220.521 659.36Z" fill="#CC8B09"/>
<path d="M240.15 651.054C239.636 651.054 239.123 651.099 238.616 651.187C237.932 651.287 237.165 651.421 236.315 651.604C235.464 651.788 234.647 652.004 233.663 652.271C232.769 652.547 231.895 652.881 231.045 653.272L237.716 657.142L238.916 656.725C240.584 656.158 242.252 655.674 243.736 655.274C245.161 654.9 246.619 654.66 248.089 654.557C249.423 654.476 250.763 654.565 252.075 654.823C253.42 655.115 254.71 655.622 255.894 656.325C257.056 656.91 258.049 657.783 258.779 658.86C259.02 659.246 259.183 659.677 259.257 660.126C259.332 660.575 259.316 661.035 259.212 661.479C258.923 662.462 258.383 663.353 257.645 664.064C256.719 664.987 255.689 665.799 254.576 666.483L258.845 668.935L256.511 670.286L252.208 667.8C250.16 668.807 248.022 669.617 245.821 670.219C243.51 670.854 241.15 671.295 238.766 671.537L236.515 667.5C237.145 667.5 237.775 667.455 238.399 667.367C239.233 667.267 240.167 667.1 241.201 666.883C242.235 666.666 243.336 666.383 244.537 666.049C245.677 665.719 246.791 665.306 247.872 664.815L241.201 660.978L240.334 661.279L239.417 661.562C237.906 662.072 236.37 662.5 234.814 662.847C233.522 663.151 232.204 663.33 230.878 663.38C229.713 663.423 228.547 663.316 227.409 663.063C226.282 662.778 225.199 662.34 224.191 661.762C223.095 661.179 222.144 660.358 221.405 659.36C220.866 658.61 220.601 657.697 220.655 656.775C220.743 655.815 221.128 654.905 221.756 654.173C222.523 653.216 223.435 652.383 224.457 651.704L220.505 649.419L222.84 648.085L226.742 650.337C228.586 649.434 230.52 648.73 232.512 648.235C234.404 647.754 236.326 647.403 238.266 647.184L240.15 651.054ZM228.76 658.093C229.639 658.597 230.654 658.813 231.662 658.71C233.024 658.56 234.366 658.264 235.664 657.826L229.377 654.19C227.042 655.707 226.809 656.992 228.727 658.093H228.76ZM250.774 659.928C249.818 659.402 248.717 659.203 247.638 659.36C246.15 659.549 244.682 659.873 243.252 660.328L249.49 663.931C252.125 662.296 252.542 660.962 250.74 659.928H250.774Z" fill="#F9CA06"/>
<path d="M237.148 690.986C269.348 690.986 295.451 675.908 295.451 657.309C295.451 638.71 269.348 623.632 237.148 623.632C204.948 623.632 178.845 638.71 178.845 657.309C178.845 675.908 204.948 690.986 237.148 690.986Z" fill="#DD990E"/>
<path d="M178.861 657.826V642.48L190.385 652.738L178.861 657.826Z" fill="#DD990E"/>
<path d="M295.468 642.881V657.309L289.564 663.564L286.679 647.051L295.468 642.881Z" fill="#DD990E"/>
<path d="M237.148 676.557C269.348 676.557 295.451 661.48 295.451 642.881C295.451 624.281 269.348 609.204 237.148 609.204C204.948 609.204 178.845 624.281 178.845 642.881C178.845 661.48 204.948 676.557 237.148 676.557Z" fill="#F9CB07"/>
<path d="M278.824 643.931C278.224 649.603 274.188 655.174 266.666 659.527C250.373 668.935 223.94 668.935 207.63 659.527C200.125 655.174 196.089 649.603 195.505 643.931C194.805 637.259 198.841 630.504 207.63 625.433C223.94 616.009 250.373 616.009 266.666 625.433C275.455 630.504 279.508 637.293 278.824 643.931Z" fill="#CC8B09"/>
<path d="M278.824 643.931C278.223 649.603 274.187 655.174 266.666 659.527C250.372 668.935 223.939 668.935 207.629 659.527C200.124 655.174 196.089 649.603 195.505 643.931C196.089 638.26 200.124 632.672 207.629 628.319C223.939 618.895 250.372 618.895 266.666 628.319C274.187 632.672 278.223 638.26 278.824 643.931Z" fill="#E8A30A"/>
<path d="M236.547 636.042C236.034 636.034 235.52 636.074 235.013 636.159C234.329 636.259 233.562 636.392 232.712 636.576C231.861 636.759 231.044 636.976 230.043 637.259C229.152 637.519 228.282 637.848 227.442 638.244L234.113 642.13L235.313 641.696C236.981 641.129 238.649 640.645 240.133 640.245C241.551 639.868 243.004 639.633 244.469 639.545C245.809 639.455 247.155 639.545 248.472 639.811C249.818 640.093 251.108 640.594 252.291 641.296C253.445 641.893 254.431 642.771 255.159 643.848C255.398 644.235 255.559 644.666 255.63 645.116C255.702 645.565 255.683 646.024 255.576 646.467C255.293 647.453 254.752 648.346 254.008 649.052C253.083 649.975 252.053 650.787 250.94 651.471L255.209 653.939L252.891 655.274L248.588 652.788C246.539 653.805 244.394 654.615 242.184 655.207C239.876 655.853 237.516 656.294 235.13 656.525L232.895 652.505C233.52 652.488 234.143 652.438 234.763 652.355C235.71 652.243 236.651 652.082 237.581 651.871C238.615 651.654 239.699 651.371 240.917 651.037C242.058 650.715 243.172 650.308 244.252 649.819L237.581 645.966L236.714 646.267L235.797 646.55C234.129 647.101 232.578 647.534 231.177 647.851C229.884 648.145 228.567 648.318 227.242 648.368C226.077 648.409 224.911 648.302 223.773 648.051C222.645 647.784 221.565 647.345 220.571 646.75C219.467 646.172 218.509 645.351 217.769 644.348C217.229 643.598 216.964 642.685 217.019 641.763C217.122 640.806 217.505 639.902 218.119 639.161C218.894 638.209 219.811 637.381 220.838 636.709L216.802 634.407L219.12 633.056L223.039 635.325C224.874 634.41 226.803 633.7 228.793 633.206C230.684 632.726 232.607 632.375 234.546 632.155L236.547 636.042ZM225.14 643.064C226.024 643.571 227.045 643.787 228.059 643.681C229.415 643.53 230.751 643.233 232.045 642.797L225.774 639.161C223.473 640.684 223.261 641.985 225.14 643.064ZM247.154 644.899C246.199 644.373 245.098 644.174 244.019 644.332C242.537 644.529 241.075 644.852 239.649 645.299L245.887 648.902C248.488 647.284 248.972 645.933 247.154 644.899Z" fill="#CC8B09"/>
<path d="M232.945 652.488C232.945 652.321 232.945 650.22 232.945 650.22L235.497 651.888L234.38 653.556L232.945 652.488Z" fill="#CC8B09"/>
<path d="M255.259 653.923V651.654L249.723 652.088L252.908 654.256L255.259 653.923Z" fill="#CC8B09"/>
<path d="M255.726 645.616V643.331L251.573 644.832L255.726 645.616Z" fill="#CC8B09"/>
<path d="M238.482 645.516L239.867 644.182L244.736 647.518L244.436 648.518C244.436 648.518 240.801 646.984 240.684 646.85L238.482 645.516Z" fill="#CC8B09"/>
<path d="M225.791 638.377L232.245 642.03L233.579 641.079L232.695 640.062C232.126 639.397 231.45 638.834 230.694 638.394C230.21 638.294 227.142 636.926 227.142 636.926L225.791 638.377Z" fill="#CC8B09"/>
<path d="M236.548 636.042V633.773L233.579 632.806L232.945 634.574L233.095 635.391L236.548 636.042Z" fill="#CC8B09"/>
<path d="M216.818 634.407V632.139L220.254 632.506L219.153 634.707L216.818 634.407Z" fill="#CC8B09"/>
<path d="M216.936 642.08V639.728H220.871L219.904 641.83L218.236 643.715L216.936 642.08Z" fill="#CC8B09"/>
<path d="M236.547 633.84C236.034 633.841 235.521 633.88 235.013 633.957C234.329 634.057 233.562 634.19 232.712 634.374C231.861 634.557 231.044 634.791 230.043 635.058C229.154 635.33 228.285 635.665 227.442 636.058L234.113 639.928L235.313 639.495C236.981 638.944 238.649 638.46 240.133 638.06C241.551 637.678 243.003 637.438 244.469 637.343C245.809 637.254 247.155 637.343 248.472 637.61C249.813 637.905 251.102 638.406 252.291 639.094C253.45 639.69 254.442 640.568 255.176 641.646C255.415 642.033 255.575 642.464 255.647 642.914C255.718 643.363 255.7 643.823 255.593 644.265C255.31 645.251 254.769 646.144 254.025 646.85C253.103 647.772 252.073 648.579 250.956 649.252L255.226 651.721L252.908 653.072L248.638 650.52C246.586 651.529 244.441 652.339 242.234 652.939C239.922 653.568 237.563 654.009 235.18 654.256L232.945 650.22C233.57 650.203 234.194 650.153 234.813 650.07C235.76 649.964 236.701 649.809 237.631 649.603C238.665 649.369 239.749 649.086 240.967 648.752C242.11 648.438 243.226 648.031 244.302 647.534L237.631 643.681L236.764 643.998L235.847 644.265C234.179 644.815 232.628 645.249 231.227 645.566C229.935 645.865 228.617 646.043 227.292 646.1C226.126 646.135 224.96 646.023 223.823 645.766C222.695 645.498 221.616 645.06 220.621 644.465C219.515 643.898 218.556 643.081 217.819 642.08C217.282 641.329 217.017 640.417 217.069 639.495C217.168 638.537 217.552 637.631 218.169 636.892C218.943 635.934 219.86 635.102 220.888 634.424L216.802 632.172L219.12 630.838L223.039 633.089C224.877 632.182 226.805 631.472 228.793 630.971C230.685 630.496 232.607 630.15 234.546 629.937L236.547 633.84ZM225.14 640.796C226.023 641.307 227.044 641.529 228.059 641.429C229.417 641.279 230.754 640.976 232.045 640.529L225.774 636.909C223.473 638.41 223.261 639.706 225.14 640.796ZM247.154 642.63C246.197 642.11 245.096 641.917 244.019 642.08C242.538 642.27 241.076 642.588 239.649 643.031L245.887 646.634C248.488 645.016 248.972 643.681 247.154 642.63Z" fill="#F9CA06"/>
<path opacity="0.3" d="M58.303 834C90.5029 834 116.606 818.922 116.606 800.323C116.606 781.724 90.5029 766.646 58.303 766.646C26.1032 766.646 0 781.724 0 800.323C0 818.922 26.1032 834 58.303 834Z" fill="#D6D8E5"/>
<path d="M72.7288 825.343C104.929 825.343 131.032 810.265 131.032 791.666C131.032 773.067 104.929 757.989 72.7288 757.989C40.5289 757.989 14.4258 773.067 14.4258 791.666C14.4258 810.265 40.5289 825.343 72.7288 825.343Z" fill="#DD990E"/>
<path d="M14.4424 792.183V776.838L25.9662 787.096L14.4424 792.183Z" fill="#DD990E"/>
<path d="M131.049 777.238V791.666L125.162 797.921L122.276 781.408L131.049 777.238Z" fill="#DD990E"/>
<path d="M72.7288 810.915C104.929 810.915 131.032 795.837 131.032 777.238C131.032 758.639 104.929 743.561 72.7288 743.561C40.5289 743.561 14.4258 758.639 14.4258 777.238C14.4258 795.837 40.5289 810.915 72.7288 810.915Z" fill="#F9CB07"/>
<path d="M114.405 778.289C113.821 783.96 109.769 789.548 102.264 793.885C85.954 803.292 59.5209 803.292 43.2274 793.885C35.706 789.548 31.6702 783.96 31.0865 778.289C30.386 771.617 34.4219 764.861 43.2274 759.807C59.5209 750.383 85.954 750.383 102.264 759.807C111.053 764.861 115.072 771.65 114.405 778.289Z" fill="#CC8B09"/>
<path d="M114.405 778.289C113.821 783.96 109.768 789.548 102.264 793.885C85.9535 803.292 59.5203 803.292 43.2268 793.885C35.7055 789.548 31.6696 783.96 31.0859 778.289C31.6696 772.618 35.7055 767.03 43.2268 762.693C59.5203 753.269 85.9535 753.269 102.264 762.693C109.768 767.03 113.821 772.618 114.405 778.289Z" fill="#E8A30A"/>
<path d="M72.1281 770.399C71.6142 770.392 71.1007 770.431 70.5938 770.516C69.91 770.616 69.1429 770.749 68.2924 770.933C67.4418 771.116 66.6247 771.333 65.6407 771.617C64.7434 771.882 63.868 772.217 63.0224 772.618L69.6932 776.487L70.894 776.054C72.5617 775.487 74.2294 775.003 75.7137 774.619C77.1336 774.255 78.586 774.031 80.0497 773.952C81.3843 773.863 82.7247 773.953 84.0355 774.219C85.3802 774.505 86.6698 775.006 87.8546 775.703C89.0165 776.289 90.0096 777.162 90.7397 778.239C90.9811 778.625 91.1437 779.055 91.2182 779.505C91.2926 779.954 91.2773 780.414 91.1733 780.858C90.8578 781.853 90.282 782.745 89.5056 783.443C88.5942 784.374 87.5687 785.187 86.4537 785.862L90.7063 788.33L88.3882 789.665L84.219 787.129C82.1775 788.15 80.0373 788.961 77.8316 789.548C75.5228 790.191 73.1625 790.632 70.7772 790.866L68.5258 786.846C69.1562 786.829 69.7853 786.779 70.4104 786.696C71.352 786.583 72.2871 786.421 73.2121 786.212C74.2461 785.995 75.3468 785.711 76.5475 785.378C77.6895 785.06 78.8048 784.653 79.8829 784.16L73.2121 780.307C72.9286 780.407 72.6451 780.524 72.3449 780.607L71.4277 780.891C69.7599 781.441 68.209 781.875 66.8248 782.192C65.5327 782.492 64.2146 782.665 62.889 782.709C61.7237 782.76 60.557 782.653 59.4202 782.392C58.2874 782.124 57.2021 781.686 56.2015 781.091C55.0853 780.525 54.1151 779.709 53.3664 778.706C52.8169 777.96 52.5455 777.045 52.5992 776.12C52.6988 775.158 53.0819 774.246 53.6999 773.502C54.4745 772.549 55.3914 771.722 56.4183 771.05L52.4658 768.765L54.8006 767.413L58.703 769.682C60.5376 768.767 62.467 768.057 64.4566 767.564C66.3526 767.08 68.2811 766.734 70.2269 766.529L72.1281 770.399ZM60.7376 777.421C61.6141 777.933 62.6296 778.155 63.6395 778.055C64.9951 777.891 66.3305 777.589 67.6253 777.155L61.3547 773.535C59.0533 775.036 58.8476 776.332 60.7376 777.421ZM82.7514 779.256C81.7921 778.742 80.6932 778.549 79.6161 778.706C78.1294 778.896 76.662 779.214 75.23 779.657L81.4672 783.259C84.1356 781.641 84.5525 780.307 82.7514 779.256Z" fill="#CC8B09"/>
<path d="M68.5264 786.846C68.5264 786.679 68.5264 784.577 68.5264 784.577L71.078 786.245L69.9773 787.913L68.5264 786.846Z" fill="#CC8B09"/>
<path d="M90.8405 788.28V786.012L85.3037 786.445L88.489 788.614L90.8405 788.28Z" fill="#CC8B09"/>
<path d="M91.3235 779.973V777.688L87.1709 779.19L91.3235 779.973Z" fill="#CC8B09"/>
<path d="M74.1133 779.857L75.4975 778.539L80.3672 781.875L80.067 782.859C80.067 782.859 76.4314 781.325 76.3147 781.191C76.1979 781.058 74.1133 779.857 74.1133 779.857Z" fill="#CC8B09"/>
<path d="M61.3721 772.734L67.8428 776.404L69.1603 775.437C69.1603 775.437 68.3431 774.502 68.2931 774.419C67.7138 773.759 67.0325 773.196 66.2751 772.751C65.7915 772.651 62.7229 771.283 62.7229 771.283L61.3721 772.734Z" fill="#CC8B09"/>
<path d="M72.1286 770.399V768.131L69.1601 767.163L68.5264 768.948L68.6765 769.749L72.1286 770.399Z" fill="#CC8B09"/>
<path d="M52.3994 768.765V766.496L55.8516 766.863L54.7342 769.065L52.3994 768.765Z" fill="#CC8B09"/>
<path d="M52.5332 776.437V774.085H56.469L55.5184 776.187L53.8507 778.072L52.5332 776.437Z" fill="#CC8B09"/>
<path d="M72.1281 768.131C71.6138 768.131 71.1004 768.176 70.5938 768.264C69.9156 768.364 69.1485 768.498 68.2924 768.664C67.4418 768.848 66.6247 769.081 65.6407 769.348C64.7459 769.621 63.8711 769.956 63.0224 770.349L69.6932 774.219L70.894 773.802C72.5617 773.235 74.2294 772.751 75.7137 772.351C77.1391 771.977 78.5963 771.736 80.0664 771.633C81.4009 771.553 82.7403 771.643 84.0522 771.9C85.3976 772.192 86.6872 772.699 87.8712 773.402C89.0332 773.987 90.0263 774.86 90.7564 775.937C90.9978 776.323 91.1604 776.753 91.2348 777.203C91.3093 777.652 91.294 778.112 91.19 778.556C90.8701 779.549 90.295 780.44 89.5223 781.141C88.6065 782.068 87.5817 782.88 86.4704 783.56L90.723 786.012L88.4049 787.363L84.1022 784.877C82.0919 785.877 79.9926 786.687 77.8316 787.296C75.521 787.931 73.1613 788.372 70.7772 788.614L68.5258 784.577C69.156 784.568 69.7852 784.524 70.4104 784.444C71.2442 784.344 72.1781 784.177 73.2121 783.96C74.2461 783.743 75.3468 783.46 76.5475 783.126C77.6875 782.795 78.8021 782.383 79.8829 781.892L73.2121 778.055L72.3449 778.356L71.4277 778.639C69.9166 779.147 68.3802 779.575 66.8248 779.923C65.5332 780.228 64.2151 780.407 62.889 780.457C61.723 780.503 60.5562 780.39 59.4202 780.124C58.2904 779.855 57.206 779.422 56.2015 778.839C55.0843 778.267 54.114 777.445 53.3664 776.437C52.8169 775.691 52.5455 774.777 52.5992 773.852C52.703 772.895 53.0857 771.99 53.6999 771.25C54.4781 770.296 55.3943 769.464 56.4183 768.781L52.4658 766.496L54.8006 765.162L58.703 767.413C60.5412 766.511 62.4699 765.807 64.4566 765.312C66.354 764.831 68.2819 764.48 70.2269 764.261L72.1281 768.131ZM60.7376 775.17C61.6156 775.676 62.6313 775.893 63.6395 775.787C64.9979 775.638 66.335 775.336 67.6253 774.886L61.3547 771.267C59.0533 772.768 58.8476 774.069 60.7376 775.17ZM82.7514 777.004C81.796 776.479 80.6951 776.28 79.6161 776.437C78.1277 776.626 76.6596 776.95 75.23 777.405L81.4672 781.008C84.1356 779.373 84.5525 778.039 82.7514 777.004Z" fill="#F9CA06"/>
<path d="M77.4984 807.395C109.698 807.395 135.801 792.318 135.801 773.718C135.801 755.119 109.698 740.042 77.4984 740.042C45.2985 740.042 19.1953 755.119 19.1953 773.718C19.1953 792.318 45.2985 807.395 77.4984 807.395Z" fill="#DD990E"/>
<path d="M19.2119 774.236V758.89L30.7358 769.148L19.2119 774.236Z" fill="#DD990E"/>
<path d="M135.818 759.29V773.718L129.914 779.973L127.029 763.444L135.818 759.29Z" fill="#DD990E"/>
<path d="M77.4984 792.967C109.698 792.967 135.801 777.89 135.801 759.29C135.801 740.691 109.698 725.613 77.4984 725.613C45.2985 725.613 19.1953 740.691 19.1953 759.29C19.1953 777.89 45.2985 792.967 77.4984 792.967Z" fill="#F9CB07"/>
<path d="M119.175 760.324C118.574 765.996 114.538 771.583 107.017 775.937C90.7236 785.344 64.2904 785.344 47.9802 775.937C40.4756 771.583 36.4397 765.929 35.856 760.324C35.1556 753.652 39.1914 746.98 47.9802 741.843C64.2904 732.419 90.7236 732.419 107.017 741.843C115.806 746.914 119.858 753.686 119.175 760.324Z" fill="#CC8B09"/>
<path d="M119.174 760.324C118.574 765.996 114.538 771.583 107.017 775.937C90.723 785.344 64.2899 785.344 47.9797 775.937C40.475 771.583 36.4392 765.929 35.8555 760.324C36.4392 754.653 40.475 749.082 47.9797 744.729C64.2899 735.304 90.723 735.304 107.017 744.729C114.538 749.082 118.574 754.653 119.174 760.324Z" fill="#E8A30A"/>
<path d="M76.8981 752.435C76.3842 752.444 75.8715 752.488 75.3638 752.568C74.68 752.668 73.9129 752.802 73.0624 752.985C72.1615 753.166 71.2709 753.395 70.394 753.669C69.5025 753.929 68.6327 754.258 67.7924 754.653L74.4632 758.523L75.664 758.106C77.3317 757.539 78.9994 757.055 80.4836 756.655C81.9034 756.281 83.3551 756.041 84.8197 755.938C86.1605 755.854 87.5065 755.949 88.8222 756.221C90.1638 756.5 91.4491 757.002 92.6246 757.706C93.7905 758.292 94.7888 759.164 95.5264 760.241C95.7658 760.628 95.926 761.059 95.9976 761.509C96.0692 761.958 96.0507 762.417 95.9433 762.86C95.6605 763.846 95.1193 764.739 94.3756 765.445C93.4502 766.368 92.4204 767.18 91.3071 767.864L95.5764 770.316L93.2583 771.667L88.9556 769.182C86.9021 770.188 84.7578 770.998 82.5516 771.6C80.2416 772.238 77.8817 772.679 75.4972 772.918L73.3792 768.948C74.0041 768.931 74.6276 768.881 75.247 768.798C76.0976 768.698 77.0315 768.531 78.0655 768.314C79.0995 768.097 80.1835 767.814 81.4009 767.48C82.5416 767.158 83.6566 766.751 84.7363 766.263L78.0655 762.409L77.1816 762.71L76.281 762.993C74.6133 763.544 73.0624 763.977 71.6615 764.294C70.3683 764.588 69.0508 764.761 67.7257 764.811C66.5607 764.852 65.3952 764.746 64.2569 764.494C63.1342 764.212 62.0565 763.774 61.0549 763.193C59.951 762.615 58.993 761.794 58.2531 760.791C57.7133 760.042 57.4483 759.129 57.5026 758.206C57.5384 757.274 57.8392 756.371 58.3698 755.604C59.148 754.65 60.0642 753.818 61.0882 753.135L57.1357 750.85L59.4539 749.516L63.373 751.718C65.2111 750.816 67.1398 750.111 69.1266 749.616C71.0184 749.135 72.9407 748.784 74.8802 748.565L76.8981 752.435ZM65.491 759.474C66.3749 759.981 67.396 760.197 68.4094 760.091C69.7658 759.94 71.1021 759.643 72.3953 759.207L66.1247 755.604C63.8233 757.089 63.6064 758.373 65.491 759.474ZM87.5047 761.309C86.5493 760.783 85.4484 760.584 84.3694 760.741C82.8865 760.93 81.424 761.254 80 761.709L86.2372 765.312C88.8889 763.677 89.3225 762.276 87.5047 761.309Z" fill="#CC8B09"/>
<path d="M73.3789 768.948C73.3789 768.781 73.3789 766.68 73.3789 766.68L75.9305 768.348L74.8131 770.016L73.3789 768.948Z" fill="#CC8B09"/>
<path d="M95.61 770.316V768.064L90.0732 768.481L93.2586 770.649L95.61 770.316Z" fill="#CC8B09"/>
<path d="M96.0764 762.026V759.741L91.9238 761.242L96.0764 762.026Z" fill="#CC8B09"/>
<path d="M78.8828 761.909L80.267 760.575L85.1367 763.911L84.8365 764.911C84.8365 764.911 81.2009 763.377 81.0842 763.243L78.8828 761.909Z" fill="#CC8B09"/>
<path d="M66.1416 754.77L72.5956 758.44L73.9298 757.489C73.9298 757.489 73.1126 756.555 73.0459 756.455C72.4643 755.803 71.79 755.241 71.0447 754.787C70.561 754.703 67.4924 753.336 67.4924 753.336L66.1416 754.77Z" fill="#CC8B09"/>
<path d="M76.8981 752.435V750.183L73.9296 749.216L73.2959 750.984L73.446 751.801L76.8981 752.435Z" fill="#CC8B09"/>
<path d="M57.1689 750.817V748.548L60.6044 748.915L59.5037 751.117L57.1689 750.817Z" fill="#CC8B09"/>
<path d="M57.2861 758.49V756.138H61.2219L60.2547 758.239L58.5869 760.124L57.2861 758.49Z" fill="#CC8B09"/>
<path d="M76.898 750.183C76.3841 750.176 75.8706 750.215 75.3637 750.3C74.6799 750.4 73.9128 750.533 73.0623 750.717C72.2117 750.9 71.3112 751.117 70.3939 751.401C69.502 751.666 68.6322 752.001 67.7923 752.401L74.4631 756.271L75.6639 755.838C77.3316 755.27 78.9993 754.803 80.4836 754.403C81.9016 754.021 83.3541 753.781 84.8196 753.686C86.1597 753.597 87.5057 753.686 88.8221 753.953C90.1615 754.239 91.4457 754.74 92.6245 755.437C93.7904 756.023 94.7888 756.896 95.5263 757.973C95.7649 758.36 95.9246 758.791 95.9961 759.24C96.0677 759.69 96.0497 760.149 95.9432 760.591C95.6642 761.579 95.1224 762.473 94.3756 763.177C93.4658 764.108 92.4466 764.926 91.3403 765.612L95.6097 768.081L93.2915 769.415L88.9889 766.93C86.9416 767.951 84.7959 768.761 82.5849 769.348C80.2753 769.992 77.9154 770.438 75.5305 770.683L73.3791 766.629C74.004 766.613 74.6275 766.563 75.247 766.479C76.1943 766.368 77.1351 766.206 78.0654 765.996C79.0994 765.779 80.1834 765.495 81.4008 765.162C82.544 764.848 83.6596 764.44 84.7362 763.944L78.0654 760.091C77.7819 760.191 77.4817 760.308 77.1815 760.391L76.2809 760.675C74.6132 761.225 73.0623 761.659 71.6614 761.976C70.3687 762.275 69.0512 762.453 67.7256 762.51C66.5599 762.545 65.3944 762.433 64.2568 762.176C63.1293 761.908 62.0495 761.469 61.0548 760.875C59.9524 760.302 58.9944 759.487 58.253 758.49C57.7157 757.739 57.4509 756.826 57.5026 755.904C57.6021 754.942 57.9852 754.03 58.6032 753.285C59.3823 752.337 60.2985 751.511 61.3216 750.834L57.3691 748.548L59.6873 747.197L63.3729 749.466C65.2074 748.551 67.1369 747.841 69.1265 747.347C71.0168 746.864 72.9397 746.518 74.8801 746.313L76.898 750.183ZM65.4909 757.272C66.3733 757.784 67.3942 758.006 68.4094 757.906C69.7647 757.739 71.0999 757.438 72.3952 757.005L66.1246 753.386C63.8232 754.865 63.6119 756.16 65.4909 757.272ZM87.5046 759.107C86.5473 758.587 85.4465 758.394 84.3693 758.556C82.8882 758.747 81.4263 759.065 79.9999 759.507L86.2371 763.11C88.8888 761.425 89.3224 760.091 87.5046 759.04V759.107Z" fill="#F9CA06"/>
<path opacity="0.3" d="M362.676 834C394.876 834 420.979 818.922 420.979 800.323C420.979 781.724 394.876 766.646 362.676 766.646C330.476 766.646 304.373 781.724 304.373 800.323C304.373 818.922 330.476 834 362.676 834Z" fill="#D6D8E5"/>
<path d="M377.102 825.343C409.302 825.343 435.405 810.265 435.405 791.666C435.405 773.067 409.302 757.989 377.102 757.989C344.902 757.989 318.799 773.067 318.799 791.666C318.799 810.265 344.902 825.343 377.102 825.343Z" fill="#DD990E"/>
<path d="M318.815 792.183V776.838L330.339 787.096L318.815 792.183Z" fill="#DD990E"/>
<path d="M435.422 777.238V791.666L429.535 797.921L426.649 781.408L435.422 777.238Z" fill="#DD990E"/>
<path d="M377.102 810.915C409.302 810.915 435.405 795.837 435.405 777.238C435.405 758.639 409.302 743.561 377.102 743.561C344.902 743.561 318.799 758.639 318.799 777.238C318.799 795.837 344.902 810.915 377.102 810.915Z" fill="#F9CB07"/>
<path d="M418.778 778.289C418.194 783.96 414.142 789.548 406.637 793.885C390.327 803.292 363.894 803.292 347.6 793.885C340.079 789.548 336.043 783.96 335.46 778.289C334.759 771.617 338.795 764.861 347.6 759.807C363.894 750.383 390.327 750.383 406.637 759.807C415.426 764.861 419.479 771.65 418.778 778.289Z" fill="#CC8B09"/>
<path d="M418.778 778.289C418.194 783.96 414.141 789.548 406.637 793.885C390.327 803.292 363.893 803.292 347.6 793.885C340.079 789.548 336.043 783.96 335.459 778.289C336.043 772.618 340.079 767.03 347.6 762.693C363.893 753.269 390.327 753.269 406.637 762.693C414.141 767.03 418.194 772.618 418.778 778.289Z" fill="#E8A30A"/>
<path d="M376.501 770.399C375.987 770.392 375.474 770.431 374.967 770.516C374.283 770.616 373.516 770.749 372.665 770.933C371.815 771.116 370.998 771.333 370.014 771.617C369.116 771.882 368.241 772.217 367.395 772.618L374.066 776.487L375.267 776.054C376.935 775.487 378.602 775.003 380.087 774.619C381.51 774.237 382.968 773.997 384.439 773.902C385.774 773.813 387.114 773.903 388.425 774.169C389.77 774.455 391.059 774.956 392.244 775.653C393.406 776.239 394.399 777.112 395.129 778.189C395.374 778.574 395.537 779.004 395.609 779.455C395.681 779.905 395.659 780.366 395.546 780.807C395.267 781.795 394.725 782.689 393.979 783.393C393.067 784.324 392.042 785.137 390.927 785.811L395.179 788.28L392.861 789.615L388.575 787.129C386.534 788.15 384.394 788.961 382.188 789.548C379.879 790.191 377.519 790.632 375.133 790.866L372.882 786.846C373.512 786.829 374.142 786.779 374.767 786.696C375.708 786.583 376.643 786.421 377.568 786.212C378.602 785.995 379.686 785.711 380.904 785.378C382.046 785.06 383.161 784.653 384.239 784.16L377.568 780.307C377.285 780.407 377.001 780.524 376.701 780.607L375.784 780.891C374.116 781.441 372.565 781.875 371.181 782.192C369.889 782.492 368.571 782.665 367.245 782.709C366.08 782.76 364.913 782.653 363.776 782.392C362.644 782.124 361.558 781.686 360.558 781.091C359.46 780.519 358.507 779.703 357.773 778.706C357.223 777.96 356.952 777.045 357.005 776.12C357.105 775.158 357.488 774.246 358.106 773.502C358.881 772.549 359.798 771.722 360.825 771.05L356.872 768.765L359.207 767.413L363.109 769.682C364.944 768.767 366.873 768.057 368.863 767.564C370.754 767.082 372.676 766.736 374.616 766.529L376.501 770.399ZM365.111 777.421C365.987 777.933 367.002 778.155 368.012 778.055C369.368 777.891 370.703 777.589 371.998 777.155L365.728 773.535C363.426 775.036 363.22 776.332 365.111 777.421ZM387.124 779.256C386.159 778.741 385.055 778.548 383.972 778.706C382.491 778.898 381.03 779.216 379.603 779.657L385.84 783.259C388.575 781.641 388.925 780.307 387.124 779.256Z" fill="#CC8B09"/>
<path d="M372.899 786.846C372.899 786.679 372.899 784.577 372.899 784.577L375.451 786.245L374.35 787.913L372.899 786.846Z" fill="#CC8B09"/>
<path d="M395.214 788.28V786.012L389.677 786.445L392.862 788.614L395.214 788.28Z" fill="#CC8B09"/>
<path d="M395.68 779.973V777.688L391.544 779.19L395.68 779.973Z" fill="#CC8B09"/>
<path d="M378.569 779.857L379.954 778.539L384.823 781.875L384.523 782.859C384.523 782.859 380.887 781.325 380.771 781.191C380.654 781.058 378.569 779.857 378.569 779.857Z" fill="#CC8B09"/>
<path d="M365.745 772.734L372.216 776.404L373.533 775.437C373.533 775.437 372.716 774.502 372.666 774.419C372.087 773.759 371.406 773.196 370.648 772.751C370.165 772.651 367.096 771.283 367.096 771.283L365.745 772.734Z" fill="#CC8B09"/>
<path d="M376.502 770.399V768.131L373.533 767.163L372.899 768.948L373.05 769.749L376.502 770.399Z" fill="#CC8B09"/>
<path d="M356.772 768.765V766.496L360.225 766.863L359.107 769.065L356.772 768.765Z" fill="#CC8B09"/>
<path d="M356.889 776.437V774.085H360.824L359.874 776.187L358.206 778.072L356.889 776.437Z" fill="#CC8B09"/>
<path d="M376.501 768.131C375.987 768.131 375.473 768.176 374.967 768.264C374.288 768.364 373.521 768.498 372.665 768.664C371.815 768.848 370.998 769.081 370.014 769.348C369.119 769.621 368.244 769.956 367.395 770.349L374.066 774.219L375.267 773.802C376.935 773.235 378.602 772.751 380.087 772.351C381.512 771.977 382.969 771.736 384.439 771.633C385.774 771.553 387.113 771.643 388.425 771.9C389.77 772.192 391.06 772.699 392.244 773.402C393.406 773.987 394.399 774.86 395.129 775.937C395.374 776.322 395.537 776.753 395.609 777.203C395.681 777.654 395.659 778.114 395.546 778.556C395.263 779.542 394.722 780.434 393.979 781.141C393.063 782.068 392.038 782.88 390.927 783.56L395.179 786.012L392.861 787.363L388.575 784.877C386.527 785.884 384.389 786.694 382.188 787.296C379.877 787.931 377.517 788.372 375.133 788.614L372.882 784.577C373.512 784.568 374.141 784.524 374.767 784.444C375.6 784.344 376.534 784.177 377.568 783.96C378.602 783.743 379.686 783.46 380.904 783.126C382.044 782.795 383.158 782.383 384.239 781.892L377.568 778.055L376.701 778.356L375.784 778.639C374.273 779.147 372.736 779.575 371.181 779.923C369.889 780.228 368.571 780.407 367.245 780.457C366.079 780.503 364.912 780.39 363.776 780.124C362.647 779.855 361.562 779.422 360.558 778.839C359.459 778.261 358.506 777.44 357.773 776.437C357.223 775.691 356.952 774.777 357.005 773.852C357.109 772.895 357.492 771.99 358.106 771.25C358.884 770.296 359.801 769.464 360.825 768.781L356.872 766.496L359.207 765.162L363.109 767.413C364.947 766.511 366.876 765.807 368.863 765.312C370.755 764.833 372.677 764.482 374.616 764.261L376.501 768.131ZM365.111 775.17C365.988 775.676 367.004 775.893 368.012 775.787C369.371 775.638 370.708 775.336 371.998 774.886L365.728 771.267C363.426 772.768 363.22 774.069 365.111 775.17ZM387.124 777.004C386.164 776.475 385.057 776.276 383.972 776.437C382.49 776.628 381.027 776.952 379.603 777.405L385.84 781.008C388.575 779.373 388.925 778.039 387.124 777.004Z" fill="#F9CA06"/>
<path opacity="0.4" d="M675.272 824.526C715.439 824.526 748 805.722 748 782.526C748 759.329 715.439 740.525 675.272 740.525C635.105 740.525 602.543 759.329 602.543 782.526C602.543 805.722 635.105 824.526 675.272 824.526Z" fill="#D6D8E5"/>
<path d="M671.936 345.676C675.188 340.455 700.02 337.019 708.192 358.07C711.294 366.043 710.81 386.426 713.395 399.252C715.98 412.079 722.101 419.269 724.285 429.727C726.47 440.185 722.901 457.566 697.852 460.635C672.803 463.704 653.541 454.914 647.621 446.924C641.7 438.934 641.584 421.904 647.738 412.847C653.891 403.789 658.544 396.317 658.394 384.491L671.936 345.676Z" fill="#E1E5F2"/>
<path d="M642.184 433.68C642.184 433.68 636.297 475.213 647.421 504.737C658.545 534.26 655.459 497.131 655.459 497.131L652.791 488.307C652.791 488.307 650.556 454.346 651.474 446.023C652.391 437.7 652.174 430.544 652.791 429.877C653.408 429.21 650.573 427.892 649.456 427.725C648.338 427.558 642.184 433.68 642.184 433.68Z" fill="#FFCEA9"/>
<path d="M688.33 342.04C688.33 342.04 669.635 336.652 658.311 346.761C647.955 356.001 648.822 368.578 650.323 374.483C651.824 380.387 654.859 388.444 659.545 388.894C664.232 389.345 688.33 342.04 688.33 342.04Z" fill="#E1E5F2"/>
<path d="M695.434 393.048C695.434 393.048 694.2 413.898 694.584 415.432C694.967 416.967 702.772 418.434 704.957 420.253C707.141 422.071 693.616 443.221 686.745 446.357C679.874 449.493 658.578 441.486 657.11 430.894C655.743 421.137 663.197 413.564 666.066 410.878C668.018 410.706 669.978 410.656 671.936 410.728L672.57 400.62C681.942 397.701 695.434 393.048 695.434 393.048Z" fill="#FFCEA9"/>
<path d="M698.336 417.45C704.19 418.351 710.894 421.487 711.811 424.689C712.879 428.426 715.147 446.057 710.144 459.484C705.14 472.911 701.655 481.435 698.753 487.206C698.753 487.206 673.421 498.081 652.991 485.405C652.991 485.405 651.59 471.027 651.49 463.337C632.645 446.891 648.755 426.641 664.732 410.845C666.644 410.651 668.569 410.623 670.486 410.762C670.486 410.762 656.227 427.625 666.133 437.199C687.329 430.778 691.549 421.253 698.336 417.45Z" fill="#F4F4F4"/>
<path d="M656.544 367.227C658.645 353.883 668.318 343.708 682.126 344.525C687.679 344.832 692.995 346.875 697.324 350.367C701.653 353.859 704.775 358.623 706.249 363.986C707.724 369.349 707.476 375.04 705.542 380.255C703.607 385.47 700.083 389.945 695.468 393.048C694.991 395.077 694.274 397.042 693.333 398.902C688.43 404.607 675.456 408.21 671.17 408.276C667.451 408.276 664.265 404.857 660.78 399.102C653.575 387.109 655.41 373.832 656.544 367.227Z" fill="#FFCEA9"/>
<path d="M686.412 344.776C696.102 346.66 704.057 349.396 706.692 358.904C708.493 365.459 710.844 377.935 708.609 383.206L707.209 387.009L695.535 393.048C695.535 393.048 690.065 388.494 691.766 375.117C691.693 373.325 691.115 371.59 690.098 370.113C689.34 368.86 688.778 367.499 688.43 366.076C687.051 362.456 684.326 359.51 680.825 357.853C672.103 352.949 659.312 357.186 657.478 358.954C663.431 346.777 675.139 342.574 686.412 344.776Z" fill="#E1E5F2"/>
<path d="M704.007 766.93C699.104 770.916 691.482 768.164 691.115 768.514C686.112 773.518 678.691 777.872 673.154 782.242C670.102 784.644 665.349 787.863 666.2 792.483C667.751 800.74 680.976 798.205 685.962 795.669C690.949 793.134 695.018 788.997 699.737 786.028C703.073 783.927 706.408 782.842 706.942 778.589C707.259 776.02 704.874 766.83 704.007 766.93Z" fill="#022B3A"/>
<path d="M706.875 776.888C706.225 780.958 702.956 782.075 699.621 784.143C694.818 787.129 690.598 791.433 685.612 793.951C681.009 796.287 669.502 798.605 666.267 792.717C668.034 800.673 681.026 798.171 685.962 795.669C690.899 793.167 695.018 788.997 699.737 786.028C703.073 783.927 706.408 782.842 706.942 778.589C706.982 778.021 706.959 777.451 706.875 776.888Z" fill="#022B3A"/>
<path d="M669.618 760.058C665.132 763.711 658.361 761.726 658.028 761.992C653.458 766.579 646.687 770.516 641.618 774.502C638.816 776.704 634.446 779.657 635.23 783.877C636.648 791.449 648.755 789.114 653.325 786.812C657.894 784.51 661.663 780.657 665.95 777.972C669.035 776.054 672.07 775.053 672.62 771.166C672.837 768.815 670.419 759.958 669.618 760.058Z" fill="#022B3A"/>
<path d="M672.487 769.599C671.903 773.318 668.901 774.352 665.816 776.271C661.413 779.006 657.478 782.942 652.975 785.244C648.755 787.396 638.232 789.514 635.264 784.11C636.931 791.399 648.772 789.114 653.292 786.829C657.811 784.544 661.63 780.674 665.916 777.989C669.001 776.07 672.037 775.07 672.587 771.183C672.617 770.653 672.583 770.121 672.487 769.599Z" fill="#022B3A"/>
<path d="M643.202 531.992C645.353 515.095 651.54 490.542 651.54 490.542C657.466 493.319 663.881 494.901 670.419 495.196C681.326 495.746 698.77 492.444 698.77 492.444C701.83 497.771 705.17 502.932 708.776 507.906C713.646 514.661 723.118 529.49 720.834 555.394C719.333 572.324 709.86 644.198 709.86 644.198C713.543 656.289 715.503 668.84 715.68 681.478C715.58 691.936 712.829 709.701 709.743 726.13L704.09 766.93C704.09 766.93 696.568 772.367 691.198 768.514L691.882 728.599C691.215 718.825 690.214 704.413 689.631 695.239C688.613 680.227 685.928 656.441 685.161 650.487C684.394 644.532 682.476 634.157 681.576 622.514C680.675 610.872 676.272 551.708 676.272 551.708L675.672 562.783C675.672 562.783 675.088 580.781 672.503 602.965C669.918 625.15 669.018 635.008 669.018 635.008C669.018 635.008 673.504 643.264 674.021 649.336C674.471 654.14 679.958 692.087 676.689 711.385L670.019 760.458C668.334 761.623 666.397 762.369 664.367 762.636C662.337 762.903 660.272 762.682 658.345 761.992L654.392 712.536C651.741 693.705 646.054 653.806 645.253 648.618C644.119 641.796 643.185 638.427 641.918 616.926C640.65 595.426 641.034 548.889 643.202 531.992Z" fill="#FFCEA9"/>
<path d="M698.77 487.206L713.312 516.446C713.312 516.446 735.526 548.955 712.512 632.539L716.831 658.326C716.831 658.326 673.271 686.282 644.119 658.326C644.119 658.326 634.013 581.081 639.383 545.469C642.375 524.984 646.913 504.755 652.958 484.954C652.958 484.954 660.096 492.844 696.836 487.64" fill="#022B3A"/>
<path d="M607.613 507.973C610.948 508.607 614.134 507.889 618.803 509.157C622.293 510.262 625.932 510.824 629.593 510.825C633.562 510.825 644.703 505.271 654.259 498.565C665.516 490.676 676.689 477.048 680.725 470.493C689.414 456.348 697.736 441.753 700.304 434.28C703.373 425.307 703.306 431.412 708.643 431.278C714.863 431.128 718.215 433.413 713.546 445.59C708.876 457.766 704.623 466.239 694.217 480.618C686.6 491.407 677.185 500.807 666.383 508.406C656.89 515.054 646.632 520.537 635.831 524.736C632.712 526.02 630.727 527.738 625.074 530.874C619.473 534.085 613.179 535.894 606.729 536.145C601.326 536.012 599.391 535.111 598.941 534.01C598.374 532.626 599.424 531.675 601.893 531.441C605.841 531.383 609.745 530.609 613.417 529.156C613.417 529.156 608.03 529.924 604.778 530.09C601.875 530.248 598.964 530.018 596.122 529.407C593.387 528.756 591.853 524.886 594.338 524.586C596.823 524.286 598.824 524.753 603.66 524.436C606.219 524.275 608.75 523.81 611.198 523.051C607.966 523.08 604.737 522.846 601.542 522.351C598.944 522.106 596.471 521.115 594.421 519.499C593.371 518.631 593.187 516.163 596.323 516.163C599.141 516.163 602.676 517.464 607.996 516.73C611.916 516.179 614.667 515.262 614 514.745C613.333 514.228 611.115 514.745 607.88 513.561C604.644 512.376 602.376 509.541 603.127 507.839C603.877 506.138 604.244 507.356 607.613 507.973Z" fill="#FFCEA9"/>
<path d="M710.661 457.132C710.661 457.132 696.402 457.883 688.297 448.942L697.086 430.594C697.086 430.594 701.138 420.436 710.644 422.938C720.15 425.44 720.3 438.817 710.661 457.132Z" fill="#EDEDED"/>
<path d="M664.715 410.845C664.715 410.845 653.142 407.309 640.851 432.946L645.453 435.715C645.453 435.715 657.544 417.417 664.715 410.845Z" fill="#EDEDED"/>
<path opacity="0.4" d="M325.369 565.452L135.918 456.065C134.301 455.131 132.958 453.787 132.024 452.169C131.09 450.552 130.599 448.717 130.599 446.849C130.599 444.981 131.09 443.146 132.024 441.528C132.958 439.911 134.301 438.567 135.918 437.633C137.535 436.699 139.37 436.207 141.238 436.207C143.106 436.207 144.94 436.699 146.558 437.633L336.009 547.104C337.726 548.096 339.131 549.548 340.067 551.296C341.002 553.044 341.431 555.019 341.305 556.998C341.178 558.976 340.501 560.881 339.35 562.495C338.2 564.11 336.621 565.371 334.792 566.136C333.275 566.758 331.635 567.02 330 566.901C328.366 566.782 326.78 566.286 325.369 565.452Z" fill="#D6D8E5"/>
<path d="M243.568 499.282C175.759 460.134 120.608 364.575 120.608 286.279C120.608 207.983 175.759 176.191 243.568 215.289C311.377 254.387 366.528 349.98 366.528 428.292C366.528 506.605 311.361 538.43 243.568 499.282ZM243.568 240.742C187.9 208.6 142.605 234.754 142.605 299.039C142.605 363.324 187.9 441.77 243.568 473.912C299.237 506.055 344.515 479.917 344.515 415.632C344.515 351.348 299.237 272.835 243.568 240.692V240.742Z" fill="#D33D3D"/>
<path d="M139.787 216.173L162.318 203.863L158.949 219.309L139.787 216.173Z" fill="#D33D3D"/>
<path d="M309.56 519.215C310.11 518.965 334.192 505.487 334.192 505.487L315.58 502.502L309.56 519.215Z" fill="#D33D3D"/>
<path d="M307.031 503.142C350.75 477.896 350.748 396.029 307.026 320.287C263.304 244.544 192.418 203.609 148.699 228.854C104.98 254.1 104.982 335.967 148.704 411.71C192.426 487.452 263.312 528.388 307.031 503.142Z" fill="#F4F4F4"/>
<path d="M227.875 508.006C160.099 468.841 104.915 373.298 104.915 294.986C104.915 216.673 160.083 184.898 227.875 223.996C295.667 263.094 350.835 358.703 350.835 436.999C350.835 515.295 295.684 547.104 227.875 508.006ZM227.875 249.466C172.224 217.324 126.929 243.461 126.929 307.746C126.929 372.031 172.224 450.493 227.875 482.636C283.526 514.778 328.838 488.624 328.838 424.339C328.838 360.054 283.51 281.558 227.875 249.416V249.466Z" fill="#FF4D4D"/>
<path d="M227.876 453.963C185.883 429.71 151.762 370.513 151.762 322.007C151.762 273.502 185.933 253.769 227.926 278.022C269.919 302.275 304.107 361.422 304.107 409.978C304.107 458.533 269.885 478.232 227.876 453.963ZM227.876 303.443C198.007 286.195 173.709 300.223 173.709 334.718C173.709 369.212 198.007 411.312 227.876 428.559C257.745 445.806 282.043 431.762 282.043 397.268C282.043 362.773 257.745 320.69 227.876 303.443Z" fill="#FF4D4D"/>
<path d="M227.876 400.787C211.199 391.196 197.757 367.777 197.757 348.595C197.757 329.413 211.265 321.607 227.876 331.198C244.486 340.789 258.011 364.208 258.011 383.39C258.011 402.572 244.503 410.328 227.876 400.787ZM227.876 356.618C223.406 354.033 219.754 356.135 219.754 361.305C219.911 364.122 220.728 366.862 222.139 369.304C223.55 371.747 225.515 373.823 227.876 375.367C232.362 377.952 235.997 375.85 235.997 370.68C235.844 367.862 235.029 365.121 233.617 362.678C232.206 360.235 230.239 358.159 227.876 356.618Z" fill="#FF4D4D"/>
<path d="M18.3782 485.221L7.10449 485.371L43.7273 469.826L22.4974 483.019L18.3782 485.221Z" fill="#2B303F"/>
<path d="M23.2844 490.427C24.409 489.777 24.4099 487.673 23.2862 485.726C22.1625 483.78 20.3398 482.728 19.2151 483.378C18.0905 484.027 18.0896 486.132 19.2133 488.078C20.337 490.025 22.1597 491.076 23.2844 490.427Z" fill="#E8A30A"/>
<path d="M230.437 370.554C231.561 369.905 231.562 367.8 230.439 365.853C229.315 363.907 227.492 362.855 226.367 363.505C225.243 364.154 225.242 366.259 226.366 368.205C227.489 370.152 229.312 371.203 230.437 370.554Z" fill="#E8A30A"/>
<path d="M26.0825 501.551L23.3975 490.325L52.8492 471.544L51.565 474.196L26.0825 501.551Z" fill="#2B303F"/>
<path d="M23.3481 490.392C23.5982 490.175 230.394 370.613 230.394 370.613L226.592 363.441L19.1621 483.537L23.3481 490.392Z" fill="#E8A30A"/>
</svg>
