<svg width="264" height="258" viewBox="0 0 264 258" fill="none" xmlns="http://www.w3.org/2000/svg">
<path d="M132.517 243.685C200.715 243.685 256 190.925 256 125.842C256 60.7598 200.715 8 132.517 8C64.3186 8 9.0332 60.7598 9.0332 125.842C9.0332 190.925 64.3186 243.685 132.517 243.685Z" fill="#8FE3F9"/>
<path d="M132.517 243.685C200.715 243.685 256 190.925 256 125.842C256 60.7598 200.715 8 132.517 8C64.3186 8 9.0332 60.7598 9.0332 125.842C9.0332 190.925 64.3186 243.685 132.517 243.685Z" fill="#8FE3F9"/>
<path d="M135.766 241.394C163.983 241.394 189.979 232.633 210.776 217.917L205.09 203.774C193.175 174.056 164.903 154.644 133.545 154.644C102.187 154.644 73.9156 174.056 62.0005 203.774L57.3428 215.455C78.6274 231.66 105.978 241.394 135.766 241.394Z" fill="#B2EBF9"/>
<path d="M132.462 115.994L108.849 152.64L126.667 177.72C129.592 181.843 135.495 181.843 138.42 177.72L156.076 152.64L132.462 115.994Z" fill="#A4E0EA"/>
<path d="M132.517 229.942C66.713 229.942 12.9869 180.87 9.24985 118.971C9.08738 121.261 9.0332 123.552 9.0332 125.842C9.0332 190.89 64.33 243.685 132.517 243.685C200.703 243.685 256 190.948 256 125.842C256 123.552 255.946 121.261 255.784 118.971C252.047 180.87 198.266 229.942 132.517 229.942Z" fill="#7AD1E5"/>
<path d="M206.607 206.351C185.972 221.124 160.3 229.942 132.517 229.942C105.437 229.942 80.4152 221.639 60.1054 207.553L57.3975 214.596C78.7363 231.316 106.033 241.394 135.82 241.394C162.738 241.394 187.651 233.149 207.961 219.177C208.935 218.49 209.856 217.746 210.831 217.001L206.607 206.351Z" fill="#A4E0EA"/>
<path d="M6 126.243C9.4662 133.744 14.1239 140.73 19.9731 146.972C48.2985 176.919 94.2798 176.919 122.605 146.972C146.327 121.891 150.172 83.813 134.249 54.4956" fill="#7AD1E5"/>
<path d="M255.567 135.176C242.569 155.847 220.363 169.418 195.125 169.418C155.047 169.418 122.551 135.061 122.551 92.6885C122.551 73.7924 128.996 56.4997 139.72 43.1008" fill="#7AD1E5"/>
<path d="M132.517 243.685C200.715 243.685 256 190.925 256 125.842C256 60.7598 200.715 8 132.517 8C64.3186 8 9.0332 60.7598 9.0332 125.842C9.0332 190.925 64.3186 243.685 132.517 243.685Z" stroke="#413D51" stroke-width="16" stroke-miterlimit="10" stroke-linecap="round" stroke-linejoin="round"/>
<path d="M132.462 99.9605L108.849 136.607L132.57 169.99L156.13 136.607L132.462 99.9605Z" fill="#413D51"/>
<path d="M132.462 99.9605L108.849 136.607L132.57 169.99L156.13 136.607L132.462 99.9605Z" stroke="#413D51" stroke-width="16" stroke-miterlimit="10" stroke-linecap="round" stroke-linejoin="round"/>
<path d="M186.08 20.7118C169.832 12.6954 151.364 8.17178 131.921 8.17178C112.477 8.17178 94.0091 12.6954 77.7612 20.7118V100.934H186.08V20.7118Z" fill="#413D51"/>
<path d="M193.012 28.7283L251.884 26.8387C243.381 49.3422 242.243 83.1832 249.663 120.174C240.239 141.245 220.2 156.19 196.641 156.935C163.17 158.023 135.17 130.194 134.195 94.7498C133.166 59.3628 159.488 29.8163 193.012 28.7283Z" fill="#413D51"/>
<path d="M193.012 28.7283L251.884 26.8387C243.381 49.3422 242.243 83.1832 249.663 120.174C240.239 141.245 220.2 156.19 196.641 156.935C163.17 158.023 135.17 130.194 134.195 94.7498C133.166 59.3628 159.488 29.8163 193.012 28.7283Z" stroke="#413D51" stroke-width="16" stroke-miterlimit="10" stroke-linecap="round" stroke-linejoin="round"/>
<path d="M195.125 156.878C228.626 156.878 255.783 128.165 255.783 92.7457C255.783 57.3267 228.626 28.6138 195.125 28.6138C161.624 28.6138 134.466 57.3267 134.466 92.7457C134.466 128.165 161.624 156.878 195.125 156.878Z" fill="#F7E8AD"/>
<path d="M195.125 156.878C228.626 156.878 255.783 128.165 255.783 92.7457C255.783 57.3267 228.626 28.6138 195.125 28.6138C161.624 28.6138 134.466 57.3267 134.466 92.7457C134.466 128.165 161.624 156.878 195.125 156.878Z" fill="#F7E8AD"/>
<path d="M238.019 47.3953C226.375 35.0843 211.102 28.8429 195.829 28.6138C207.311 30.9615 218.305 36.8021 227.187 46.2501C250.855 71.273 250.855 111.871 227.187 136.951C215.164 149.663 199.349 155.904 183.643 155.732C202.761 159.626 223.234 153.728 238.019 138.096C261.687 113.016 261.687 72.4182 238.019 47.3953Z" fill="#F7D6A1"/>
<path opacity="0.7" d="M213.063 127C230.829 108.216 230.726 77.6533 212.833 58.7355C194.94 39.8177 166.032 39.709 148.266 58.4926C130.5 77.2762 130.602 107.839 148.496 126.757C166.389 145.675 195.297 145.784 213.063 127Z" fill="white"/>
<path d="M246.035 62.3403C244.356 60.0499 241.106 53.7512 239.102 51.6326C215.272 26.7815 176.873 27.0105 153.368 52.2625C148.71 57.2441 144.973 62.8557 142.211 68.868C175.627 56.4425 212.239 59.42 246.035 62.3403Z" fill="#EFCA92"/>
<path d="M195.125 156.878C228.626 156.878 255.783 128.165 255.783 92.7457C255.783 57.3267 228.626 28.6138 195.125 28.6138C161.624 28.6138 134.466 57.3267 134.466 92.7457C134.466 128.165 161.624 156.878 195.125 156.878Z" stroke="#413D51" stroke-width="16" stroke-miterlimit="10" stroke-linecap="round" stroke-linejoin="round"/>
<path d="M195.125 156.878C228.626 156.878 255.783 128.165 255.783 92.7457C255.783 57.3267 228.626 28.6138 195.125 28.6138C161.624 28.6138 134.466 57.3267 134.466 92.7457C134.466 128.165 161.624 156.878 195.125 156.878Z" stroke="#413D51" stroke-width="16" stroke-miterlimit="10" stroke-linecap="round" stroke-linejoin="round"/>
<path d="M243.489 54.0375C241.81 51.7471 240.023 49.5139 238.019 47.3953C214.351 22.3724 175.952 22.3724 152.23 47.3953C147.519 52.377 143.782 57.9312 140.965 63.8864C174.544 51.7471 209.694 50.8309 243.489 54.0375Z" fill="#413D51"/>
<path d="M165.608 121.605C178.171 121.605 188.355 110.838 188.355 97.5556C188.355 84.2735 178.171 73.5061 165.608 73.5061C153.045 73.5061 142.861 84.2735 142.861 97.5556C142.861 110.838 153.045 121.605 165.608 121.605Z" fill="#413D51"/>
<path d="M152.718 105.744C156.905 105.744 160.3 102.155 160.3 97.7274C160.3 93.3 156.905 89.7109 152.718 89.7109C148.53 89.7109 145.135 93.3 145.135 97.7274C145.135 102.155 148.53 105.744 152.718 105.744Z" fill="white"/>
<path d="M71.3165 28.7283L12.3911 26.8387C20.8941 49.3422 22.0315 83.1832 14.6117 120.174C24.0354 141.245 44.0744 156.19 67.6337 156.935C101.104 158.023 129.105 130.194 130.08 94.7498C131.109 59.3628 104.787 29.8163 71.3165 28.7283Z" fill="#413D51"/>
<path d="M71.3165 28.7283L12.3911 26.8387C20.8941 49.3422 22.0315 83.1832 14.6117 120.174C24.0354 141.245 44.0744 156.19 67.6337 156.935C101.104 158.023 129.105 130.194 130.08 94.7498C131.109 59.3628 104.787 29.8163 71.3165 28.7283Z" stroke="#413D51" stroke-width="16" stroke-miterlimit="10" stroke-linecap="round" stroke-linejoin="round"/>
<path d="M69.1497 156.878C102.651 156.878 129.808 128.165 129.808 92.7457C129.808 57.3266 102.651 28.6138 69.1497 28.6138C35.649 28.6138 8.49121 57.3266 8.49121 92.7457C8.49121 128.165 35.649 156.878 69.1497 156.878Z" fill="#F7E8AD"/>
<path d="M69.1497 156.878C102.651 156.878 129.808 128.165 129.808 92.7457C129.808 57.3266 102.651 28.6138 69.1497 28.6138C35.649 28.6138 8.49121 57.3266 8.49121 92.7457C8.49121 128.165 35.649 156.878 69.1497 156.878Z" fill="#F7E8AD"/>
<path d="M26.2556 47.3953C37.8999 35.0843 53.1729 28.8429 68.4458 28.6138C56.964 30.9615 45.9697 36.8021 37.0875 46.2501C13.4198 71.273 13.4198 111.871 37.0875 136.951C49.1109 149.663 64.9254 155.904 80.6317 155.732C61.5134 159.626 41.0411 153.728 26.2556 138.096C2.58797 113.016 2.58797 72.4182 26.2556 47.3953Z" fill="#F7D6A1"/>
<path opacity="0.7" d="M115.785 126.769C133.678 107.851 133.781 77.2879 116.015 58.5042C98.2483 39.7206 69.3406 39.8294 51.4473 58.7472C33.5541 77.665 33.4513 108.228 51.2176 127.012C68.9839 145.795 97.8916 145.686 115.785 126.769Z" fill="white"/>
<path opacity="0.89" d="M18.2944 62.3403C19.9734 60.0499 23.223 53.7512 25.2268 51.6326C49.057 26.7815 87.456 27.0105 110.961 52.2625C115.619 57.2441 119.356 62.8557 122.118 68.868C88.6475 56.4425 52.0357 59.42 18.2944 62.3403Z" fill="#EFCA92"/>
<path d="M69.1497 156.878C102.651 156.878 129.808 128.165 129.808 92.7457C129.808 57.3266 102.651 28.6138 69.1497 28.6138C35.649 28.6138 8.49121 57.3266 8.49121 92.7457C8.49121 128.165 35.649 156.878 69.1497 156.878Z" stroke="#413D51" stroke-width="16" stroke-miterlimit="10" stroke-linecap="round" stroke-linejoin="round"/>
<path d="M69.1497 156.878C102.651 156.878 129.808 128.165 129.808 92.7457C129.808 57.3266 102.651 28.6138 69.1497 28.6138C35.649 28.6138 8.49121 57.3266 8.49121 92.7457C8.49121 128.165 35.649 156.878 69.1497 156.878Z" stroke="#413D51" stroke-width="16" stroke-miterlimit="10" stroke-linecap="round" stroke-linejoin="round"/>
<path d="M20.8394 54.0375C22.5183 51.7471 24.3056 49.5139 26.3095 47.3953C49.9771 22.3724 88.3761 22.3724 112.098 47.3953C116.81 52.377 120.547 57.9312 123.363 63.8863C89.7843 51.7471 54.5807 50.8309 20.8394 54.0375Z" fill="#413D51"/>
<path d="M98.7211 121.605C111.284 121.605 121.468 110.838 121.468 97.5556C121.468 84.2735 111.284 73.5061 98.7211 73.5061C86.1583 73.5061 75.9741 84.2735 75.9741 97.5556C75.9741 110.838 86.1583 121.605 98.7211 121.605Z" fill="#413D51"/>
<path d="M111.611 105.744C115.798 105.744 119.193 102.155 119.193 97.7274C119.193 93.3 115.798 89.7109 111.611 89.7109C107.423 89.7109 104.028 93.3 104.028 97.7274C104.028 102.155 107.423 105.744 111.611 105.744Z" fill="white"/>
<path d="M103.325 258C98.5587 258 94.6592 253.877 94.6592 248.838V238.531C94.6592 233.492 98.5587 229.37 103.325 229.37C108.091 229.37 111.99 233.492 111.99 238.531V248.838C111.99 253.877 108.145 258 103.325 258Z" fill="#413D51"/>
<path d="M85.9936 258C81.2276 258 77.3281 253.877 77.3281 248.838V238.531C77.3281 233.492 81.2276 229.37 85.9936 229.37C90.7597 229.37 94.6591 233.492 94.6591 238.531V248.838C94.6591 253.877 90.8138 258 85.9936 258Z" fill="#413D51"/>
<path d="M120.547 258C115.781 258 111.881 253.877 111.881 248.838V238.531C111.881 233.492 115.781 229.37 120.547 229.37C125.313 229.37 129.212 233.492 129.212 238.531V248.838C129.212 253.877 125.313 258 120.547 258Z" fill="#413D51"/>
<path d="M143.403 258C138.637 258 134.737 253.877 134.737 248.838V238.531C134.737 233.492 138.637 229.37 143.403 229.37C148.169 229.37 152.068 233.492 152.068 238.531V248.838C152.068 253.877 148.169 258 143.403 258Z" fill="#413D51"/>
<path d="M160.625 258C155.859 258 151.959 253.877 151.959 248.838V238.531C151.959 233.492 155.859 229.37 160.625 229.37C165.391 229.37 169.29 233.492 169.29 238.531V248.838C169.29 253.877 165.391 258 160.625 258Z" fill="#413D51"/>
<path d="M177.956 258C173.19 258 169.291 253.877 169.291 248.838V238.531C169.291 233.492 173.19 229.37 177.956 229.37C182.722 229.37 186.622 233.492 186.622 238.531V248.838C186.622 253.877 182.722 258 177.956 258Z" fill="#413D51"/>
<path d="M127.154 183.16C127.154 187.97 123.472 191.864 118.922 191.864C114.373 191.864 110.69 187.97 110.69 183.16" stroke="#413D51" stroke-width="8" stroke-miterlimit="10" stroke-linecap="round" stroke-linejoin="round"/>
<path d="M152.338 183.16C152.338 187.97 148.656 191.864 144.106 191.864C139.557 191.864 135.874 187.97 135.874 183.16" stroke="#413D51" stroke-width="8" stroke-miterlimit="10" stroke-linecap="round" stroke-linejoin="round"/>
<path opacity="0.31" d="M35.6795 160.943C34.488 163.634 31.5092 164.837 28.9096 163.577C26.3099 162.317 25.2267 159.168 26.4182 156.42" stroke="#72C8D6" stroke-width="8" stroke-miterlimit="10" stroke-linecap="round" stroke-linejoin="round"/>
<path opacity="0.31" d="M51.8192 169.818C50.6276 172.51 47.6489 173.712 45.0492 172.452C42.5037 171.193 41.3664 168.043 42.5579 165.295" stroke="#72C8D6" stroke-width="8" stroke-miterlimit="10" stroke-linecap="round" stroke-linejoin="round"/>
<path opacity="0.31" d="M42.4491 176.633C41.2575 179.324 38.2788 180.526 35.6791 179.266C33.1336 178.007 31.9963 174.857 33.1878 172.109" stroke="#72C8D6" stroke-width="8" stroke-miterlimit="10" stroke-linecap="round" stroke-linejoin="round"/>
<path opacity="0.31" d="M56.639 188.027C55.4475 190.719 52.4687 191.921 49.8691 190.661C47.3236 189.402 46.1862 186.252 47.3777 183.504" stroke="#72C8D6" stroke-width="8" stroke-miterlimit="10" stroke-linecap="round" stroke-linejoin="round"/>
<path opacity="0.31" d="M67.471 177.72C66.2795 180.412 63.3008 181.614 60.7011 180.354C58.1556 179.095 57.0183 175.945 58.2098 173.197" stroke="#72C8D6" stroke-width="8" stroke-miterlimit="10" stroke-linecap="round" stroke-linejoin="round"/>
<path opacity="0.31" d="M231.032 162.088C232.224 164.78 235.203 165.982 237.802 164.722C240.402 163.463 241.485 160.313 240.293 157.565" stroke="#72C8D6" stroke-width="8" stroke-miterlimit="10" stroke-linecap="round" stroke-linejoin="round"/>
<path opacity="0.31" d="M214.947 170.964C216.138 173.655 219.117 174.857 221.717 173.598C224.262 172.338 225.4 169.189 224.208 166.44" stroke="#72C8D6" stroke-width="8" stroke-miterlimit="10" stroke-linecap="round" stroke-linejoin="round"/>
<path opacity="0.31" d="M224.263 177.778C225.454 180.469 228.433 181.671 231.033 180.412C233.578 179.152 234.715 176.003 233.524 173.254" stroke="#72C8D6" stroke-width="8" stroke-miterlimit="10" stroke-linecap="round" stroke-linejoin="round"/>
<path opacity="0.31" d="M210.127 189.173C211.318 191.864 214.297 193.066 216.897 191.807C219.442 190.547 220.58 187.397 219.388 184.649" stroke="#72C8D6" stroke-width="8" stroke-miterlimit="10" stroke-linecap="round" stroke-linejoin="round"/>
<path opacity="0.31" d="M199.295 178.866C200.486 181.557 203.465 182.759 206.065 181.5C208.61 180.24 209.748 177.091 208.556 174.342" stroke="#72C8D6" stroke-width="8" stroke-miterlimit="10" stroke-linecap="round" stroke-linejoin="round"/>
<path d="M114.59 204.06C114.59 208.87 110.907 212.764 106.358 212.764C101.808 212.764 98.1255 208.87 98.1255 204.06" stroke="#413D51" stroke-width="8" stroke-miterlimit="10" stroke-linecap="round" stroke-linejoin="round"/>
<path d="M139.774 204.06C139.774 208.87 136.091 212.764 131.542 212.764C126.992 212.764 123.31 208.87 123.31 204.06" stroke="#413D51" stroke-width="8" stroke-miterlimit="10" stroke-linecap="round" stroke-linejoin="round"/>
<path d="M164.958 204.06C164.958 208.87 161.275 212.764 156.725 212.764C152.176 212.764 148.493 208.87 148.493 204.06" stroke="#413D51" stroke-width="8" stroke-miterlimit="10" stroke-linecap="round" stroke-linejoin="round"/>
</svg>
