<svg width="276" height="275" viewBox="0 0 276 275" fill="none" xmlns="http://www.w3.org/2000/svg">
<path d="M98.6428 85.4616C93.1783 86.4643 87.9049 88.3202 83.0153 90.9616C60.2076 85.4616 32.7538 92.6539 29.7973 99.4232C27.2631 104.923 39.0893 116.346 47.1142 123.115C43.2668 130.378 40.6951 138.249 39.5117 146.385C31.4867 147.231 20.5052 149.769 18.8158 156.539C15.8592 167.962 18.8158 194.615 33.5986 197.577C40.0198 198.618 46.5255 199.043 53.0273 198.846C58.7451 205.467 65.4394 211.174 72.8785 215.769L66.1207 244.962H109.624L115.537 229.308C118.896 229.8 122.281 230.082 125.674 230.154C131.35 229.866 136.997 229.159 142.569 228.039L138.345 244.962H179.737C179.737 244.962 212.259 202.231 216.905 178.962C220.273 171.82 222.004 164.014 221.973 156.115C221.129 139.615 199.588 67.6924 98.6428 85.4616Z" fill="#BFDBF7"/>
<path d="M151.438 29.6156C146.223 29.6095 141.057 30.634 136.238 32.6304C131.418 34.6268 127.039 37.556 123.351 41.2501C119.663 44.9442 116.739 49.3308 114.746 54.1586C112.753 58.9864 111.73 64.1606 111.736 69.3849C111.766 76.1322 113.482 82.7647 116.728 88.6769C119.974 94.5891 124.647 99.5927 130.32 103.231C140.416 102.919 150.47 104.645 159.886 108.308C168.82 106.44 176.842 101.554 182.609 94.4681C188.375 87.3823 191.537 78.5269 191.563 69.3849C191.408 58.8125 187.118 48.7232 179.614 41.2863C172.111 33.8494 161.994 29.6588 151.438 29.6156Z" fill="#1F7A8C" stroke="#1F7A8C" stroke-width="1.52426"/>
<path d="M165.799 57.5388C165.799 57.5388 164.532 51.1927 151.439 51.1927C141.302 51.1927 137.078 56.6927 137.078 61.7696C137.078 66.8465 142.991 70.2311 151.439 70.2311C162.842 70.2311 165.799 74.0388 165.799 78.6927C165.799 85.0388 159.041 89.2696 151.439 89.2696C148.717 89.4072 146 88.905 143.507 87.8031C141.013 86.7011 138.812 85.03 137.078 82.9235" stroke="white" stroke-width="3.04851" stroke-miterlimit="10" stroke-linecap="round" stroke-linejoin="round"/>
<path d="M151.016 46.1155V92.654" stroke="white" stroke-width="3.04851" stroke-miterlimit="10" stroke-linecap="round" stroke-linejoin="round"/>
<path d="M70.7668 146.808C73.0995 146.808 74.9905 144.914 74.9905 142.577C74.9905 140.24 73.0995 138.346 70.7668 138.346C68.4341 138.346 66.5432 140.24 66.5432 142.577C66.5432 144.914 68.4341 146.808 70.7668 146.808Z" stroke="#1F7A8C" stroke-width="3.04851" stroke-miterlimit="10" stroke-linecap="round" stroke-linejoin="round"/>
<path d="M212.681 140.039C212.681 140.039 241.825 141.731 240.135 121C238.868 105.769 231.266 102.808 226.197 109.154C221.974 114.654 226.197 129.885 243.937 129.039C261.676 128.192 256.607 105.769 256.607 105.769" stroke="#1F7A8C" stroke-width="1.52426" stroke-miterlimit="10" stroke-linecap="round" stroke-linejoin="round"/>
<path d="M115.115 104.5C115.115 104.5 148.904 98.154 167.911 113.385" stroke="#1F7A8C" stroke-width="1.52426" stroke-miterlimit="10" stroke-linecap="round" stroke-linejoin="round"/>
</svg>
