<svg width="276" height="275" viewBox="0 0 276 275" fill="none" xmlns="http://www.w3.org/2000/svg">
<path d="M134.993 23.2694C113.001 23.2694 91.5031 29.8017 73.2177 42.0402C54.9323 54.2787 40.6805 71.6738 32.2647 92.0257C23.8488 112.378 21.6469 134.772 25.9372 156.378C30.2276 177.983 40.8176 197.829 56.368 213.406C71.9185 228.982 91.731 239.59 113.3 243.888C134.869 248.185 157.226 245.98 177.544 237.55C197.861 229.12 215.227 214.844 227.445 196.528C239.663 178.211 246.184 156.677 246.184 134.649C246.151 105.119 234.425 76.8091 213.58 55.9287C192.735 35.0484 164.472 23.303 134.993 23.2694Z" fill="#BFDBF7"/>
<path d="M78.7083 94.6805C78.5906 91.3749 79.1522 88.0803 80.3583 85.001C81.5643 81.9218 83.3892 79.1237 85.7196 76.7801C88.1536 74.4291 91.0391 72.598 94.2011 71.398C97.363 70.198 100.735 69.6541 104.114 69.7994C107.512 69.6412 110.907 70.1786 114.092 71.3788C117.276 72.5791 120.183 74.4169 122.634 76.7801C124.978 79.1953 126.805 82.0642 128.003 85.2113C129.202 88.3583 129.746 91.7173 129.603 95.0824V101.031C129.718 104.313 129.159 107.584 127.96 110.64C126.761 113.697 124.949 116.474 122.634 118.8C120.203 121.141 117.322 122.964 114.167 124.157C111.012 125.351 107.648 125.89 104.278 125.743C97.5014 125.987 90.903 123.537 85.9223 118.927C83.4887 116.548 81.5869 113.68 80.3425 110.51C79.0982 107.34 78.5398 103.942 78.7041 100.54L78.7083 94.6805ZM92.7308 101.027C92.5766 104.392 93.713 107.688 95.907 110.241C96.9627 111.402 98.2589 112.318 99.7049 112.925C101.151 113.531 102.712 113.814 104.278 113.753C105.826 113.811 107.368 113.527 108.794 112.92C110.22 112.313 111.495 111.398 112.527 110.241C114.732 107.567 115.851 104.16 115.661 100.697V94.6805C115.81 91.3048 114.675 87.9982 112.485 85.4278C111.437 84.2529 110.144 83.3238 108.697 82.7066C107.25 82.0894 105.685 81.7994 104.114 81.8571C102.55 81.7926 100.993 82.0825 99.5574 82.7052C98.1218 83.3279 96.8451 84.2672 95.8226 85.4532C93.6667 88.119 92.5661 91.4865 92.7308 94.9132V101.027ZM136.45 162.356C136.32 159.029 136.892 155.713 138.129 152.623C139.367 149.533 141.241 146.74 143.63 144.426C146.081 142.13 148.96 140.342 152.103 139.165C155.246 137.988 158.591 137.445 161.944 137.568C165.304 137.438 168.657 137.977 171.808 139.154C174.959 140.331 177.845 142.123 180.3 144.426C182.714 146.84 184.597 149.735 185.825 152.923C187.054 156.111 187.602 159.522 187.434 162.936V168.804C187.541 172.071 186.987 175.326 185.802 178.372C184.618 181.418 182.83 184.192 180.545 186.526C178.113 188.893 175.222 190.733 172.05 191.934C168.879 193.135 165.495 193.67 162.109 193.507C158.708 193.658 155.311 193.126 152.119 191.941C148.928 190.755 146.005 188.942 143.524 186.607C141.155 184.223 139.304 181.373 138.09 178.237C136.876 175.1 136.325 171.746 136.471 168.385L136.45 162.356ZM150.472 168.799C150.338 172.175 151.504 175.474 153.729 178.014C154.778 179.188 156.071 180.118 157.517 180.739C158.963 181.361 160.527 181.658 162.1 181.61C163.65 181.69 165.197 181.423 166.631 180.829C168.065 180.236 169.349 179.331 170.391 178.179C172.545 175.452 173.618 172.025 173.403 168.554V162.356C173.569 158.97 172.415 155.652 170.184 153.103C169.104 152.004 167.817 151.131 166.397 150.535C164.978 149.94 163.454 149.633 161.914 149.633C160.375 149.633 158.851 149.94 157.431 150.535C156.011 151.131 154.724 152.004 153.644 153.103C151.401 155.775 150.264 159.205 150.468 162.69L150.472 168.799ZM108.401 182.846L98.0907 176.901L156.745 82.864L167.054 88.8124L108.401 182.846Z" fill="white" stroke="white" stroke-width="1.52426" stroke-linecap="round" stroke-linejoin="round"/>
</svg>
