<svg width="776" height="864" viewBox="0 0 776 864" fill="none" xmlns="http://www.w3.org/2000/svg">
<path opacity="0.4" d="M707.211 419.887C745.202 419.887 776 402.1 776 380.16C776 358.22 745.202 340.433 707.211 340.433C669.22 340.433 638.422 358.22 638.422 380.16C638.422 402.1 669.22 419.887 707.211 419.887Z" fill="#D6D8E5"/>
<path d="M718.08 24.192C720.758 19.872 741.269 17.0381 748.008 34.4045C750.565 41.0054 750.185 57.8362 752.328 68.4288C754.47 79.0214 759.499 85.0003 761.313 93.5885C763.127 102.177 760.172 116.605 739.558 119.232C718.944 121.859 702.96 114.515 698.088 107.931C693.215 101.347 693.094 87.3158 698.174 79.7817C703.254 72.2477 707.107 66.1306 706.986 56.3328L718.08 24.192Z" fill="#1F7A8C"/>
<path d="M693.508 96.9581C693.508 96.9581 688.653 131.242 697.828 155.71C707.004 180.179 704.481 149.42 704.481 149.42L702.269 142.145C702.269 142.145 700.42 114.048 701.18 107.136C701.941 100.224 701.768 94.3488 702.269 93.7958C702.77 93.2429 700.437 92.1542 699.47 92.0678C698.502 91.9814 693.508 96.9581 693.508 96.9581Z" fill="#FFCEA9"/>
<path d="M731.627 21.2371C731.627 21.2371 716.179 16.7962 706.814 25.1424C703.724 27.986 701.475 31.6234 700.311 35.6578C699.147 39.6922 699.113 43.9688 700.213 48.0211C701.457 52.8941 703.962 59.5469 707.833 59.9098C711.704 60.2726 731.627 21.2371 731.627 21.2371Z" fill="#1F7A8C"/>
<path d="M737.519 63.3485C737.519 63.3485 736.517 80.6285 736.828 81.8208C737.139 83.0131 743.584 84.3091 745.381 85.8125C747.178 87.3158 736.033 104.82 730.348 107.361C724.663 109.901 707.09 103.334 705.88 94.5907C704.74 86.5382 710.909 80.2829 713.276 78.1056C714.889 77.9444 716.512 77.9039 718.132 77.9846L718.65 69.6384C726.339 67.1846 737.519 63.3485 737.519 63.3485Z" fill="#FFCEA9"/>
<path d="M739.887 83.497C744.725 84.24 750.254 86.832 750.997 89.4758C751.896 92.569 753.797 107.119 749.615 118.195C745.434 129.272 742.617 136.322 740.198 141.091C740.198 141.091 719.29 150.077 702.425 139.605C702.425 139.605 701.25 127.734 701.181 121.375C685.63 107.793 698.917 91.0483 712.119 78.0365C713.7 77.8985 715.29 77.8985 716.871 78.0365C716.871 78.0365 705.103 91.8605 713.277 99.8611C730.798 94.5043 734.271 86.6419 739.887 83.497Z" fill="#F4F4F4"/>
<path d="M705.38 42.025C707.108 30.9658 715.091 22.6195 726.495 23.2934C729.384 23.4545 732.213 24.1838 734.819 25.4397C737.425 26.6955 739.759 28.4533 741.685 30.6122C743.611 32.7711 745.092 35.2888 746.044 38.0211C746.995 40.7534 747.399 43.6466 747.231 46.535C747.029 49.8933 746.052 53.1592 744.376 56.0764C742.7 58.9936 740.371 61.4828 737.571 63.3485C737.179 65.0212 736.6 66.6443 735.843 68.1869C731.783 72.887 721.07 75.8765 717.527 75.911C714.469 75.911 711.825 73.0944 708.888 68.3424C702.909 58.4582 704.43 47.4854 705.38 42.025Z" fill="#FFCEA9"/>
<path d="M730.037 23.4835C738.037 25.056 744.603 27.3024 746.781 35.1648C748.267 40.5734 750.237 50.8723 748.353 55.2269L747.213 58.3546L737.519 63.3485C737.519 63.3485 733.009 59.5814 734.409 48.5395C734.354 47.0453 733.881 45.5963 733.044 44.3578C732.443 43.3154 731.995 42.1923 731.713 41.0227C730.563 38.0431 728.32 35.6143 725.441 34.2317C718.218 30.1882 707.66 33.6787 706.191 35.1475C708.222 30.7604 711.701 27.206 716.043 25.0819C720.386 22.9578 725.327 22.3933 730.037 23.4835Z" fill="#1F7A8C"/>
<path d="M751.653 163.901C753.381 152.703 756.837 145.428 755.247 139.277C751.767 126.81 747.211 114.668 741.631 102.989C738.175 96.0768 739.16 91.1693 742.824 88.4217C746.953 85.3286 750.893 86.6938 754.608 94.4006C759.273 104.112 764.544 114.083 767.101 128.546C768.362 135.562 769.019 142.37 766.755 156.781C765.166 166.856 761.969 172.506 758.116 181.958C757.062 184.533 750.029 173.405 751.653 163.901Z" fill="#FFCEA9"/>
<path d="M744.569 372.868C740.525 376.168 734.201 373.887 733.925 374.198C729.795 378.328 723.661 381.923 719.082 385.517C716.559 387.504 712.636 390.165 713.345 393.967C714.624 400.792 725.544 398.701 729.657 396.611C733.769 394.52 737.139 391.064 741.044 388.644C743.809 386.916 746.556 386.018 746.988 382.51C747.247 380.385 745.277 372.799 744.569 372.868Z" fill="#024A65"/>
<path d="M746.937 381.093C746.401 384.549 743.706 385.379 740.941 387.089C736.984 389.56 733.493 393.103 729.381 395.194C725.562 397.112 716.076 399.03 713.397 394.157C714.849 400.74 725.579 398.667 729.657 396.611C733.735 394.554 737.139 391.064 741.044 388.644C743.809 386.916 746.557 386.018 746.989 382.51C747.02 382.037 747.003 381.562 746.937 381.093Z" fill="#1F7A8C"/>
<path d="M716.162 367.2C712.464 370.224 706.866 368.531 706.589 368.807C702.822 372.591 697.224 375.84 693.042 379.175C690.727 381.007 687.115 383.426 687.772 386.934C688.947 393.172 698.934 391.254 702.719 389.336C706.503 387.418 709.63 384.255 713.086 382.044C715.626 380.471 718.132 379.642 718.529 376.428C718.823 374.44 716.819 367.131 716.162 367.2Z" fill="#024A65"/>
<path d="M718.546 375.08C718.045 378.156 715.574 379.002 713.051 380.575C709.422 382.838 706.139 386.087 702.459 387.988C699.003 389.716 690.363 391.444 687.823 387.055C689.154 393.068 698.986 391.185 702.718 389.284C706.45 387.383 709.63 384.204 713.086 381.992C715.626 380.419 718.131 379.59 718.529 376.376C718.584 375.946 718.59 375.511 718.546 375.08Z" fill="#1F7A8C"/>
<path d="M694.338 178.9C696.066 164.955 701.25 144.668 701.25 144.668C706.133 146.954 711.416 148.263 716.801 148.522C725.804 148.988 740.215 146.241 740.215 146.241C742.72 150.634 745.465 154.886 748.44 158.976C752.466 164.557 760.276 176.809 758.393 198.184C757.149 212.164 749.321 271.503 749.321 271.503C752.371 281.525 753.994 291.926 754.142 302.4C754.056 311.04 751.792 325.693 749.235 339.258L744.569 372.937C744.569 372.937 738.349 377.43 733.925 374.268L734.478 341.297C733.942 333.228 733.13 321.322 732.629 313.649C731.782 301.277 729.571 281.612 728.931 276.705C728.292 271.797 726.72 263.226 725.959 253.601C725.199 243.976 721.588 195.143 721.588 195.143L721.087 204.301C721.087 204.301 720.62 219.145 718.477 237.479C716.335 255.813 715.592 263.935 715.592 263.935C715.592 263.935 719.307 270.743 719.773 275.772C720.153 279.729 724.681 311.057 721.968 326.989L716.421 367.511C715.036 368.464 713.444 369.075 711.778 369.294C710.111 369.513 708.416 369.335 706.831 368.772L703.565 327.94C701.371 312.388 696.653 279.452 696.014 275.167C695.081 269.533 694.286 266.751 693.249 249.039C692.213 231.327 692.558 192.862 694.338 178.9Z" fill="#FFCEA9"/>
<path d="M740.197 141.091L752.293 165.283C752.293 165.283 770.626 192.136 751.636 261.135L755.109 282.372C755.109 282.372 719.134 305.459 695.063 282.372C695.063 282.372 686.717 218.609 691.158 189.199C693.623 172.286 697.372 155.586 702.373 139.242C702.373 139.242 708.265 145.757 738.659 141.454" fill="#022B3A"/>
<path d="M761.763 107.931C761.763 107.931 753.417 116.243 743.516 115.206L738.764 99.0317C738.764 99.0317 735.671 90.5645 742.894 86.9357C750.116 83.3069 757.616 91.3594 761.763 107.931Z" fill="#EDEDED"/>
<path d="M712.118 78.0365C712.118 78.0365 702.563 75.1334 692.42 96.2842L696.204 98.5824C696.204 98.5824 706.192 83.4797 712.118 78.0365Z" fill="#EDEDED"/>
<path opacity="0.4" d="M68.7892 581.455C106.78 581.455 137.578 563.668 137.578 541.728C137.578 519.788 106.78 502.001 68.7892 502.001C30.798 502.001 0 519.788 0 541.728C0 563.668 30.798 581.455 68.7892 581.455Z" fill="#D6D8E5"/>
<path d="M33.5046 529.528C38.4292 533.537 45.6866 529.874 46.0494 530.237C51.834 535.604 57.902 540.657 64.2273 545.374C67.2858 547.793 72.0722 551.007 71.1391 555.656C69.584 563.95 56.3134 561.393 51.3024 558.852C46.2913 556.312 42.1961 552.113 37.4789 549.176C34.023 547.067 30.7572 545.979 30.2388 541.711C29.9623 539.136 32.6233 529.425 33.5046 529.528Z" fill="#024A65"/>
<path d="M30.3598 539.983C30.9991 544.078 34.2822 545.167 37.6517 547.292C42.4554 550.282 46.7061 554.602 51.7171 557.142C56.348 559.475 67.8906 561.807 71.1392 555.88C69.4112 563.881 56.3307 561.375 51.3715 558.853C46.4124 556.33 42.2653 552.113 37.548 549.176C34.0922 547.068 30.8264 545.979 30.308 541.711C30.261 541.135 30.2784 540.555 30.3598 539.983Z" fill="#1F7A8C"/>
<path d="M76.2366 513.648C81.1439 517.657 89.7664 513.268 90.0601 513.648C95.1893 518.833 100.606 523.725 106.285 528.301C109.361 530.721 114.148 533.935 113.197 538.583C111.642 546.877 98.3715 544.32 93.3605 541.78C88.3495 539.24 84.2542 535.041 79.537 532.103C76.0811 529.995 72.8326 528.906 72.3142 524.638C72.1068 522.063 75.3554 513.544 76.2366 513.648Z" fill="#024A65"/>
<path d="M72.5739 523.584C73.2305 527.679 76.5136 528.768 79.8658 530.893C84.6868 533.883 88.9375 538.203 93.9312 540.743C98.5621 543.076 110.122 545.409 113.371 539.482C111.643 547.482 98.5448 544.977 93.5857 542.454C88.6265 539.931 84.4967 535.715 79.7621 532.777C76.3927 530.669 73.0577 529.58 72.5394 525.312C72.4852 524.737 72.4968 524.157 72.5739 523.584Z" fill="#1F7A8C"/>
<path d="M33.2108 347.777C33.4528 355.225 35.7682 387.521 36.805 404.68C37.8417 421.839 38.0836 442.696 38.0836 442.696C38.0836 442.696 35.1289 455.173 33.2108 469.826C31.2928 484.479 33.2108 530.738 33.2108 530.738C35.0929 531.945 37.2819 532.587 39.5178 532.587C41.7538 532.587 43.9428 531.945 45.8248 530.738C45.8248 530.738 53.7042 493.724 57.3502 477.049C60.9961 460.374 61.6354 450.749 63.5362 440.415C65.8171 427.905 70.759 369.567 70.759 369.567L72.7288 369.688L77.9126 435.577C76.2926 440.431 75.1808 445.44 74.595 450.524C73.1608 461.255 76.0983 515.255 76.0983 515.255C78.2022 516.425 80.5876 516.992 82.9927 516.894C85.3978 516.797 87.7295 516.038 89.7317 514.702C89.7317 514.702 102.899 443.18 102.899 432.294C102.899 425.105 101.672 330.186 101.672 330.186L33.2108 347.777Z" fill="#022B3A"/>
<path d="M51.0606 203.904C51.0606 203.904 51.9073 220.13 51.5444 221.564C51.1815 222.998 44.0797 227.768 42.0234 229.478C39.9672 231.189 53.2551 244.287 59.7003 247.242C66.1455 250.197 86.6388 242.404 87.0017 232.347C87.3646 222.29 83.5458 213.84 80.3491 213.339C77.1524 212.838 51.0606 203.904 51.0606 203.904Z" fill="#FFCEA9"/>
<path d="M95.5205 234.006C96.4709 226.852 91.7536 220.044 96.3327 214.341C112.351 230.049 110.312 271.624 113.958 298.218C125.846 310.66 149.761 322.911 156.5 325.866C157.726 326.419 158.78 327.007 158.538 328.337C157.571 333.521 156.068 335.491 152.975 340.433C137.147 333.608 125.742 329.685 105.975 310.902C104.099 308.877 102.421 306.678 100.964 304.335C95.3132 287.539 93.8963 246.361 95.5205 234.006Z" fill="#FFCEA9"/>
<path d="M49.2469 224.364C49.2469 224.364 61.0314 241.92 77.4641 243.648C82.6479 238.464 83.1145 220.355 75.9435 214.548C75.9435 214.548 82.5443 209.226 87.0542 210.263C91.8972 213.199 95.5034 217.801 97.1972 223.206C101.378 235.282 103.339 248.015 102.986 260.79C102.709 278.07 102.986 330.636 102.986 330.636C102.986 330.636 100.688 341.764 85.8273 350.041C70.9671 358.318 59.9083 359.13 49.8344 356.78C41.5057 354.845 34.6285 351.907 31.7774 345.876C32.5204 333.78 37.9116 302.296 35.8899 287.124C33.8682 271.953 30.7061 260.6 29.8421 248.331C28.9782 236.062 31.4664 236.235 37.6179 231.932C41.3095 229.136 45.1957 226.607 49.2469 224.364Z" fill="#F4F4F4"/>
<path d="M87.7968 179.712C85.8615 167.115 76.7899 157.559 63.7958 158.285C57.158 158.655 50.939 161.646 46.5063 166.601C42.0735 171.555 39.7899 178.068 40.1576 184.706C40.37 188.53 41.4649 192.254 43.3565 195.584C45.2481 198.915 47.8851 201.763 51.0608 203.904C51.5156 205.815 52.1942 207.665 53.0825 209.416C57.6616 214.79 71.5715 218.056 75.5457 217.538C80.7296 216.812 83.4597 214.669 85.9134 209.071C90.2159 199.135 88.8681 185.916 87.7968 179.712Z" fill="#FFCEA9"/>
<path d="M51.0606 203.904L52.2529 192.914C52.2529 192.914 43.1985 169.62 64.504 174.096C78.5003 177.034 82.0253 178.312 86.2933 168.912C90.5613 159.512 75.5109 151.062 57.6613 153.36C51.513 154.008 45.8321 156.941 41.7426 161.578C37.6532 166.214 35.4533 172.217 35.5783 178.399C36.0448 185.363 37.8937 199.359 51.0606 203.904Z" fill="#1F7A8C"/>
<path d="M26.2131 241.004C32.3645 239.276 27.6818 240.71 32.3645 239.276C48.3825 255.001 46.3954 281.923 50.0241 308.534C58.8711 323.153 91.7019 342.973 91.7019 342.973C92.1166 345.807 91.1144 346.637 87.5722 352.356C71.7615 345.531 58.5082 339.638 38.7406 320.872C37.963 320.129 36.8226 319.939 36.4943 318.92C30.8439 301.933 24.5715 253.377 26.2131 241.004Z" fill="#FFCEA9"/>
<path d="M172.293 273.784L148.43 355.38L96.0732 376.307L115.167 296.819L172.293 273.784Z" fill="#F4F4F4"/>
<path d="M83.442 343.526C84.2196 340.744 86.2413 341.436 88.5049 342.127C90.9597 343.121 93.6563 343.356 96.246 342.801C98.406 342.127 99.9611 340.278 101.793 339.051C102.84 338.427 104.03 338.082 105.249 338.049C105.145 338.757 104.056 342.904 104.056 342.904C104.056 342.904 115.53 343.025 116.705 342.783C117.094 342.73 117.49 342.797 117.84 342.975C118.19 343.152 118.478 343.432 118.666 343.777C118.853 344.122 118.931 344.516 118.89 344.906C118.848 345.297 118.689 345.665 118.433 345.963L119.21 345.842C121.56 345.324 122.563 348.918 120.195 349.453C119.573 349.592 118.934 349.661 118.277 349.747C119.815 350.335 120.195 352.875 118.277 353.203L117.69 353.307C117.42 353.409 117.131 353.451 116.843 353.428H116.48C116.535 353.702 116.533 353.984 116.474 354.258C116.416 354.531 116.302 354.79 116.141 355.018C115.979 355.246 115.772 355.439 115.534 355.584C115.295 355.73 115.029 355.825 114.752 355.864C109.154 356.607 100.929 358.836 95.8486 354.223C92.3331 353.876 88.8996 352.947 85.6883 351.475C82.5953 350.006 82.5089 346.861 83.442 343.526Z" fill="#FFCEA9"/>
<path d="M140.723 336.856H141.501C141.191 336.613 140.963 336.282 140.846 335.906C140.729 335.53 140.73 335.127 140.849 334.751C140.967 334.376 141.197 334.045 141.508 333.804C141.819 333.562 142.196 333.422 142.59 333.4C143.799 333.4 155.601 330.929 155.601 330.929L157.018 326.074C157.018 325.797 159.074 327.041 159.143 327.093C160.142 327.747 160.981 328.619 161.598 329.642C162.214 330.665 162.592 331.814 162.703 333.003C162.76 334.674 162.484 336.34 161.891 337.904C161.297 339.467 160.399 340.897 159.247 342.109C157.126 344.25 154.259 345.489 151.247 345.565C149.812 345.652 148.43 345.721 147.203 345.825C146.932 345.825 146.663 345.771 146.412 345.666C146.162 345.562 145.934 345.409 145.743 345.216C145.552 345.023 145.401 344.795 145.299 344.543C145.196 344.292 145.145 344.023 145.147 343.751H144.784C144.506 343.817 144.216 343.817 143.937 343.751H143.333C141.328 343.751 141.173 341.263 142.538 340.295C141.898 340.295 141.242 340.416 140.602 340.416C138.097 340.572 138.235 336.839 140.723 336.856Z" fill="#FFCEA9"/>
<path d="M102.208 244.65C102.208 244.65 108.256 244.339 110.761 240.814C110.294 234.783 102.571 211.887 87.0537 210.177C91.2835 213.14 94.6378 217.186 96.7647 221.892C99.5813 228.787 102.208 244.65 102.208 244.65Z" fill="#EDEDED"/>
<path d="M23.4138 274.908C23.4138 274.908 38.8615 280.23 49.7476 271.279C50.9398 269.222 43.4406 242.94 43.4406 242.94C43.4406 242.94 36.9608 229.496 26.8178 234.835C16.6748 240.175 23.4138 274.908 23.4138 274.908Z" fill="#EDEDED"/>
<path opacity="0.4" d="M180.915 698.475C185.839 698.475 189.831 696.169 189.831 693.325C189.831 690.482 185.839 688.176 180.915 688.176C175.991 688.176 171.999 690.482 171.999 693.325C171.999 696.169 175.991 698.475 180.915 698.475Z" fill="#D6D8E5"/>
<path opacity="0.4" d="M347.903 793.705C352.828 793.705 356.82 791.399 356.82 788.556C356.82 785.712 352.828 783.406 347.903 783.406C342.979 783.406 338.987 785.712 338.987 788.556C338.987 791.399 342.979 793.705 347.903 793.705Z" fill="#D6D8E5"/>
<path opacity="0.4" d="M637.35 617.172C642.274 617.172 646.266 614.867 646.266 612.023C646.266 609.179 642.274 606.874 637.35 606.874C632.426 606.874 628.434 609.179 628.434 612.023C628.434 614.867 632.426 617.172 637.35 617.172Z" fill="#D6D8E5"/>
<path d="M175.109 518.936V692.289C175.149 692.824 175.33 693.34 175.633 693.783C175.937 694.226 176.352 694.581 176.837 694.812C178.194 695.502 179.695 695.862 181.218 695.862C182.74 695.862 184.241 695.502 185.598 694.812C186.082 694.58 186.497 694.224 186.8 693.782C187.103 693.339 187.285 692.824 187.326 692.289V518.936H175.109Z" fill="#C1C4D3"/>
<path d="M342.495 586.397V787.588C342.525 788.109 342.684 788.614 342.958 789.058C343.233 789.501 343.614 789.869 344.068 790.128C345.229 790.815 346.554 791.178 347.904 791.178C349.253 791.178 350.578 790.815 351.74 790.128C352.195 789.87 352.579 789.503 352.856 789.059C353.134 788.616 353.297 788.11 353.329 787.588V586.397H342.495Z" fill="#C1C4D3"/>
<path d="M631.925 446.653V610.71C631.956 611.23 632.118 611.734 632.396 612.175C632.674 612.617 633.058 612.98 633.515 613.233C634.673 613.92 635.995 614.283 637.342 614.283C638.689 614.283 640.011 613.92 641.169 613.233C641.625 612.98 642.01 612.617 642.288 612.175C642.566 611.734 642.728 611.23 642.759 610.71V446.653H631.925Z" fill="#C1C4D3"/>
<path d="M347.903 638.029L164.292 532.017V519.627L347.903 625.657V638.029Z" fill="#62C8E8"/>
<path d="M657.48 447.276L347.868 626.037L164.24 520.024L473.852 341.263L657.48 447.276Z" fill="#6CD4FF"/>
<path d="M657.515 459.268L347.903 638.029V625.657L657.515 446.895V459.268Z" fill="#5CBFD6"/>
<path d="M569.148 411.61L519.781 452.961L474.682 435.007L524.049 393.656L569.148 411.61Z" fill="#F4F4F4"/>
<path d="M557.692 413.528L496.195 449.038L457.472 426.678L518.969 391.167L557.692 413.528Z" fill="#F4F4F4"/>
<path d="M500.308 439.448L496.541 441.625L471.002 426.885L474.769 424.708L500.308 439.448Z" fill="#D6D8E5"/>
<path d="M508.774 434.557L505.007 436.735L479.485 421.995L483.252 419.818L508.774 434.557Z" fill="#D6D8E5"/>
<path d="M516.93 429.857L513.163 432.017L487.642 417.295L491.409 415.117L516.93 429.857Z" fill="#D6D8E5"/>
<path d="M536.075 418.798L532.309 420.975L517.448 412.405L521.215 410.227L536.075 418.798Z" fill="#D6D8E5"/>
<path d="M544.232 414.098L540.465 416.258L525.604 407.687L529.371 405.51L544.232 414.098Z" fill="#D6D8E5"/>
<path d="M503.158 446.342C504.178 445.91 557.692 413.51 557.692 413.51L501.793 445.824L503.158 446.342Z" fill="#D6D6D6"/>
<path opacity="0.2" d="M511.902 496.368C519.307 496.368 525.311 492.902 525.311 488.627C525.311 484.351 519.307 480.885 511.902 480.885C504.497 480.885 498.493 484.351 498.493 488.627C498.493 492.902 504.497 496.368 511.902 496.368Z" fill="black"/>
<path d="M526.623 487.521V466.871L499.858 467.545V486.553C499.357 488.834 500.618 491.236 503.676 492.998C506.62 494.498 509.877 495.279 513.18 495.279C516.484 495.279 519.74 494.498 522.684 492.998C523.769 492.52 524.707 491.759 525.4 490.796C526.092 489.833 526.515 488.702 526.623 487.521Z" fill="#A6CE28"/>
<path d="M513.215 474.612C520.621 474.612 526.624 471.146 526.624 466.871C526.624 462.596 520.621 459.13 513.215 459.13C505.81 459.13 499.807 462.596 499.807 466.871C499.807 471.146 505.81 474.612 513.215 474.612Z" fill="#BCD64D"/>
<path d="M524.498 466.871C524.498 468.132 523.461 469.463 521.63 470.5C519.303 471.742 516.716 472.417 514.079 472.47H513.198C510.269 472.531 507.374 471.847 504.782 470.483C502.968 469.446 501.914 468.115 501.914 466.854C501.914 465.592 502.968 464.279 504.782 463.225C507.374 461.86 510.269 461.176 513.198 461.238H514.061C516.699 461.29 519.286 461.965 521.613 463.208C523.461 464.296 524.498 465.61 524.498 466.871Z" fill="#28221C"/>
<path opacity="0.07" d="M524.499 466.871C524.499 468.132 523.462 469.463 521.63 470.5C519.318 471.786 516.716 472.461 514.071 472.461C511.425 472.461 508.823 471.786 506.511 470.5C504.697 469.463 503.643 468.132 503.643 466.871C503.643 465.61 504.697 464.296 506.511 463.242C508.823 461.956 511.425 461.281 514.071 461.281C516.716 461.281 519.318 461.956 521.63 463.242C523.462 464.296 524.499 465.61 524.499 466.871Z" fill="white"/>
<path d="M524.671 476.427L521.82 474.785L520.438 475.597L521.82 476.392V476.911L524.481 478.449V478.95C525.121 479.866 525.699 480.824 526.209 481.818L526.312 481.732V488.385C526.312 490.113 525.293 489.542 524.844 489.283L521.854 487.555L520.472 488.367L521.854 489.162V489.681L524.844 491.409C525.154 491.59 525.485 491.735 525.829 491.841L525.639 492.687L527.194 491.806C527.524 491.525 527.779 491.166 527.936 490.762C528.093 490.358 528.147 489.921 528.092 489.491V482.579C528.026 481.361 527.684 480.174 527.091 479.108C526.498 478.042 525.671 477.125 524.671 476.427Z" fill="#8DA01F"/>
<path d="M523.427 492.221L520.438 490.493V488.367L523.427 490.095C523.859 490.337 524.896 490.925 524.896 489.18V482.268C524.845 481.68 524.663 481.111 524.364 480.603C524.065 480.095 523.656 479.66 523.168 479.33L520.455 477.757V475.632L523.306 477.274C524.301 477.96 525.129 478.861 525.727 479.911C526.325 480.961 526.679 482.133 526.762 483.339V490.251C526.727 492.117 525.863 493.62 523.427 492.221Z" fill="#99B524"/>
<path opacity="0.2" d="M247.372 524.223C254.777 524.223 260.781 520.757 260.781 516.482C260.781 512.206 254.777 508.74 247.372 508.74C239.966 508.74 233.963 512.206 233.963 516.482C233.963 520.757 239.966 524.223 247.372 524.223Z" fill="black"/>
<path d="M262.093 515.376V494.726L235.328 495.4V514.408C234.826 516.707 236.105 519.109 239.146 520.854C242.09 522.353 245.347 523.134 248.65 523.134C251.953 523.134 255.21 522.353 258.154 520.854C259.24 520.376 260.179 519.616 260.872 518.653C261.565 517.69 261.986 516.558 262.093 515.376Z" fill="#F7B03E"/>
<path d="M248.685 502.468C256.091 502.468 262.094 499.002 262.094 494.726C262.094 490.451 256.091 486.985 248.685 486.985C241.28 486.985 235.276 490.451 235.276 494.726C235.276 499.002 241.28 502.468 248.685 502.468Z" fill="#FCC068"/>
<path d="M259.968 494.726C259.968 495.988 258.914 497.301 257.1 498.355C254.769 499.588 252.184 500.262 249.549 500.325H248.685C245.757 500.387 242.861 499.703 240.27 498.338C238.438 497.284 237.401 495.971 237.401 494.709C237.401 493.448 238.438 492.117 240.27 491.063C242.863 489.704 245.758 489.026 248.685 489.093H249.549C252.184 489.142 254.771 489.811 257.1 491.046C258.914 492.134 259.968 493.465 259.968 494.726Z" fill="#28221C"/>
<path opacity="0.07" d="M259.969 494.726C259.969 495.988 258.914 497.301 257.1 498.355C254.788 499.641 252.186 500.316 249.54 500.316C246.895 500.316 244.293 499.641 241.981 498.355C240.253 497.301 239.112 495.988 239.112 494.726C239.112 493.465 240.166 492.134 241.981 491.08C244.293 489.794 246.895 489.119 249.54 489.119C252.186 489.119 254.788 489.794 257.1 491.08C258.914 492.134 259.969 493.465 259.969 494.726Z" fill="white"/>
<path d="M260.124 504.282L257.29 502.641L255.891 503.436L257.29 504.248V504.766L259.951 506.304L259.865 506.805C260.51 507.718 261.088 508.676 261.593 509.674L261.679 509.587V516.24C261.679 517.968 260.66 517.398 260.228 517.139L257.238 515.411L255.839 516.205L257.238 517.018V517.536L260.228 519.264C260.532 519.445 260.857 519.59 261.195 519.696L261.023 520.543L262.578 519.661C262.915 519.382 263.176 519.021 263.336 518.613C263.497 518.205 263.551 517.763 263.494 517.329V510.417C263.431 509.206 263.095 508.026 262.512 506.963C261.928 505.901 261.112 504.984 260.124 504.282Z" fill="#C9883A"/>
<path d="M258.897 520.128L255.891 518.4V516.257L258.897 517.985C259.329 518.244 260.349 518.832 260.349 517.087V510.175C260.291 509.587 260.107 509.018 259.808 508.508C259.51 507.998 259.105 507.559 258.621 507.22L255.891 505.665V503.522L258.742 505.25C259.738 505.935 260.566 506.836 261.164 507.887C261.763 508.937 262.116 510.109 262.198 511.315V518.227C262.198 519.972 261.334 521.476 258.897 520.128Z" fill="#E09C3B"/>
<path opacity="0.2" d="M418.542 465.333L378.799 442.368C378.454 442.164 378.06 442.057 377.659 442.057C377.258 442.057 376.864 442.164 376.518 442.368L306.744 482.665L347.61 506.304L418.542 465.333Z" fill="black"/>
<path d="M420.426 460.823L380.683 437.858C380.337 437.654 379.944 437.547 379.543 437.547C379.141 437.547 378.748 437.654 378.402 437.858L308.628 478.155L349.546 501.777L420.426 460.823Z" fill="#F4F4F4"/>
<path d="M347.662 493.327L344.621 495.055C344.379 495.21 344.414 495.452 344.621 495.625L347.524 497.353C347.674 497.429 347.84 497.468 348.008 497.468C348.176 497.468 348.341 497.429 348.491 497.353L351.515 495.625C351.757 495.487 351.74 495.245 351.515 495.072L348.63 493.344C348.48 493.269 348.315 493.229 348.148 493.226C347.98 493.223 347.814 493.257 347.662 493.327Z" fill="#2B303F"/>
<path d="M351.947 490.856L348.923 492.584C348.664 492.722 348.698 492.981 348.923 493.137L351.809 494.865C351.96 494.937 352.125 494.974 352.292 494.974C352.46 494.974 352.625 494.937 352.776 494.865L355.8 493.137C356.059 492.998 356.025 492.739 355.8 492.584L352.914 490.856C352.766 490.776 352.6 490.734 352.431 490.734C352.262 490.734 352.095 490.776 351.947 490.856Z" fill="#2B303F"/>
<path d="M356.284 488.35L353.26 490.078C353.018 490.216 353.035 490.475 353.26 490.631L356.146 492.359C356.297 492.431 356.462 492.469 356.629 492.469C356.797 492.469 356.962 492.431 357.113 492.359L360.154 490.631C360.396 490.493 360.362 490.234 360.154 490.078L357.252 488.35C357.103 488.27 356.937 488.228 356.768 488.228C356.599 488.228 356.433 488.27 356.284 488.35Z" fill="#2B303F"/>
<path d="M360.535 485.896L357.494 487.624C357.252 487.763 357.287 488.022 357.494 488.177L360.397 489.905C360.546 489.985 360.712 490.027 360.881 490.027C361.05 490.027 361.216 489.985 361.365 489.905L364.388 488.177C364.648 488.039 364.613 487.78 364.388 487.624L361.503 485.896C361.352 485.824 361.186 485.787 361.019 485.787C360.851 485.787 360.686 485.824 360.535 485.896Z" fill="#2B303F"/>
<path d="M364.82 483.408L361.796 485.136C361.554 485.274 361.571 485.516 361.796 485.689L364.682 487.417C364.833 487.489 364.998 487.527 365.166 487.527C365.333 487.527 365.498 487.489 365.649 487.417L368.691 485.689C368.932 485.533 368.898 485.292 368.691 485.119L365.788 483.391C365.636 483.317 365.47 483.281 365.302 483.284C365.134 483.287 364.969 483.329 364.82 483.408Z" fill="#2B303F"/>
<path d="M369.123 480.937L366.082 482.665C365.84 482.821 365.874 483.062 366.082 483.235L368.985 484.963C369.133 485.043 369.3 485.085 369.469 485.085C369.637 485.085 369.804 485.043 369.952 484.963L372.976 483.235C373.218 483.097 373.201 482.838 372.976 482.682L370.091 480.954C369.941 480.879 369.776 480.839 369.609 480.836C369.441 480.833 369.275 480.868 369.123 480.937Z" fill="#2B303F"/>
<path d="M373.408 478.466L370.384 480.194C370.125 480.332 370.159 480.591 370.384 480.747L373.269 482.475C373.421 482.547 373.586 482.584 373.753 482.584C373.921 482.584 374.086 482.547 374.237 482.475L377.261 480.747C377.52 480.609 377.486 480.349 377.261 480.194L374.375 478.466C374.227 478.386 374.06 478.344 373.892 478.344C373.723 478.344 373.556 478.386 373.408 478.466Z" fill="#2B303F"/>
<path d="M377.693 475.978L374.669 477.706C374.427 477.861 374.445 478.103 374.669 478.276L377.555 480.004C377.705 480.08 377.871 480.119 378.039 480.119C378.207 480.119 378.372 480.08 378.522 480.004L381.564 478.276C381.806 478.138 381.771 477.896 381.564 477.723L378.661 475.995C378.511 475.92 378.346 475.88 378.179 475.877C378.011 475.874 377.845 475.908 377.693 475.978Z" fill="#2B303F"/>
<path d="M381.996 473.472L378.955 475.2C378.713 475.338 378.748 475.597 378.955 475.753L381.858 477.481C382.008 477.557 382.174 477.596 382.342 477.596C382.51 477.596 382.675 477.557 382.825 477.481L385.849 475.753C386.109 475.615 386.074 475.356 385.849 475.2L382.964 473.472C382.815 473.392 382.649 473.35 382.48 473.35C382.311 473.35 382.145 473.392 381.996 473.472Z" fill="#2B303F"/>
<path d="M386.281 471.018L383.257 472.746C383.015 472.884 383.032 473.126 383.257 473.299L386.143 475.027C386.294 475.099 386.459 475.137 386.627 475.137C386.794 475.137 386.959 475.099 387.11 475.027L390.152 473.299C390.393 473.144 390.359 472.902 390.152 472.729L387.249 471.001C387.097 470.928 386.931 470.891 386.763 470.894C386.595 470.897 386.43 470.94 386.281 471.018Z" fill="#2B303F"/>
<path d="M390.515 468.547L387.473 470.275C387.231 470.413 387.266 470.673 387.473 470.828L390.376 472.556C390.525 472.636 390.691 472.678 390.86 472.678C391.029 472.678 391.195 472.636 391.344 472.556L394.368 470.828C394.61 470.69 394.593 470.431 394.368 470.275L391.482 468.547C391.331 468.475 391.166 468.438 390.998 468.438C390.831 468.438 390.666 468.475 390.515 468.547Z" fill="#2B303F"/>
<path d="M394.869 466.059L391.845 467.787C391.586 467.925 391.62 468.167 391.845 468.34L394.73 470.068C394.881 470.14 395.047 470.177 395.214 470.177C395.382 470.177 395.547 470.14 395.698 470.068L398.722 468.34C398.981 468.184 398.947 467.942 398.722 467.77L395.836 466.042C395.685 465.968 395.519 465.932 395.35 465.935C395.182 465.938 395.017 465.98 394.869 466.059Z" fill="#2B303F"/>
<path d="M399.154 463.588L396.13 465.316C395.888 465.471 395.905 465.713 396.13 465.886L399.016 467.614C399.166 467.69 399.331 467.73 399.5 467.73C399.668 467.73 399.833 467.69 399.983 467.614L403.025 465.886C403.266 465.748 403.232 465.506 403.025 465.333L400.122 463.605C399.972 463.53 399.807 463.49 399.64 463.487C399.472 463.484 399.306 463.518 399.154 463.588Z" fill="#2B303F"/>
<path d="M405.53 459.924L400.346 462.862C400.105 463 400.139 463.26 400.346 463.415L403.249 465.143C403.4 465.215 403.566 465.253 403.733 465.253C403.901 465.253 404.066 465.215 404.217 465.143L409.401 462.205C409.643 462.067 409.608 461.808 409.401 461.652L406.498 459.924C406.35 459.841 406.184 459.797 406.014 459.797C405.845 459.797 405.678 459.841 405.53 459.924Z" fill="#2B303F"/>
<path d="M349.856 487.296L346.832 489.024C346.59 489.162 346.608 489.404 346.832 489.577L349.718 491.305C349.869 491.377 350.034 491.415 350.202 491.415C350.369 491.415 350.534 491.377 350.686 491.305L353.727 489.577C353.969 489.421 353.934 489.18 353.727 489.007L350.772 487.296C350.629 487.228 350.472 487.193 350.314 487.193C350.156 487.193 349.999 487.228 349.856 487.296Z" fill="#2B303F"/>
<path d="M354.228 484.773L351.204 486.501C350.945 486.639 350.979 486.899 351.204 487.054L354.09 488.782C354.241 488.854 354.406 488.892 354.574 488.892C354.741 488.892 354.906 488.854 355.057 488.782L358.099 487.054C358.341 486.916 358.306 486.657 358.099 486.501L355.196 484.773C355.047 484.693 354.881 484.651 354.712 484.651C354.543 484.651 354.377 484.693 354.228 484.773Z" fill="#2B303F"/>
<path d="M358.461 482.285L355.438 484.013C355.178 484.168 355.213 484.41 355.438 484.583L358.323 486.311C358.473 486.387 358.639 486.427 358.807 486.427C358.975 486.427 359.141 486.387 359.291 486.311L362.315 484.583C362.574 484.445 362.539 484.186 362.315 484.03L359.429 482.302C359.279 482.227 359.115 482.187 358.947 482.184C358.78 482.181 358.614 482.215 358.461 482.285Z" fill="#2B303F"/>
<path d="M362.764 479.796L359.722 481.524C359.481 481.663 359.515 481.905 359.722 482.077L362.625 483.805C362.776 483.878 362.942 483.915 363.109 483.915C363.277 483.915 363.442 483.878 363.593 483.805L366.617 482.077C366.859 481.922 366.842 481.68 366.617 481.507L363.731 479.779C363.58 479.706 363.413 479.669 363.245 479.672C363.077 479.675 362.912 479.718 362.764 479.796Z" fill="#2B303F"/>
<path d="M367.032 477.343L363.991 479.071C363.749 479.209 363.784 479.468 363.991 479.624L366.894 481.352C367.043 481.432 367.209 481.474 367.378 481.474C367.547 481.474 367.713 481.432 367.862 481.352L370.885 479.624C371.127 479.485 371.11 479.226 370.885 479.071L368 477.343C367.849 477.271 367.683 477.233 367.516 477.233C367.349 477.233 367.183 477.271 367.032 477.343Z" fill="#2B303F"/>
<path d="M371.335 474.854L368.294 476.582C368.052 476.738 368.086 476.98 368.294 477.153L371.197 478.881C371.344 478.956 371.507 478.996 371.672 478.996C371.837 478.996 372 478.956 372.147 478.881L375.188 477.153C375.43 477.014 375.396 476.773 375.188 476.6L372.285 474.872C372.138 474.797 371.977 474.757 371.812 474.754C371.647 474.751 371.484 474.785 371.335 474.854Z" fill="#2B303F"/>
<path d="M375.62 472.366L372.596 474.094C372.354 474.232 372.371 474.474 372.596 474.647L375.482 476.375C375.633 476.447 375.798 476.485 375.965 476.485C376.133 476.485 376.298 476.447 376.449 476.375L379.49 474.647C379.732 474.492 379.698 474.25 379.49 474.077L376.587 472.349C376.436 472.276 376.27 472.239 376.102 472.242C375.933 472.245 375.768 472.287 375.62 472.366Z" fill="#2B303F"/>
<path d="M379.922 469.895L376.898 471.623C376.639 471.761 376.674 472.02 376.898 472.176L379.784 473.904C379.933 473.984 380.099 474.026 380.268 474.026C380.437 474.026 380.603 473.984 380.752 473.904L383.776 472.176C384.035 472.038 384 471.779 383.776 471.623L380.89 469.895C380.739 469.823 380.574 469.785 380.406 469.785C380.239 469.785 380.073 469.823 379.922 469.895Z" fill="#2B303F"/>
<path d="M384.225 467.407L381.201 469.135C380.942 469.29 380.977 469.532 381.201 469.705L384.087 471.433C384.237 471.509 384.403 471.548 384.571 471.548C384.739 471.548 384.905 471.509 385.054 471.433L388.078 469.705C388.338 469.567 388.303 469.325 388.078 469.152L385.193 467.424C385.043 467.349 384.878 467.309 384.711 467.306C384.543 467.303 384.377 467.337 384.225 467.407Z" fill="#2B303F"/>
<path d="M388.527 464.918L385.486 466.646C385.244 466.785 385.279 467.027 385.486 467.199L388.389 468.927C388.54 468.999 388.705 469.037 388.873 469.037C389.04 469.037 389.206 468.999 389.357 468.927L392.381 467.199C392.623 467.044 392.605 466.802 392.381 466.629L389.495 464.901C389.344 464.828 389.177 464.791 389.009 464.794C388.841 464.797 388.676 464.84 388.527 464.918Z" fill="#2B303F"/>
<path d="M392.83 462.447L389.789 464.175C389.547 464.314 389.581 464.573 389.789 464.728L392.692 466.456C392.84 466.536 393.007 466.578 393.176 466.578C393.344 466.578 393.511 466.536 393.659 466.456L396.683 464.728C396.925 464.59 396.908 464.331 396.683 464.175L393.798 462.447C393.647 462.375 393.481 462.338 393.314 462.338C393.146 462.338 392.981 462.375 392.83 462.447Z" fill="#2B303F"/>
<path d="M397.133 459.959L394.092 461.687C393.85 461.843 393.884 462.085 394.092 462.257L396.977 463.985C397.127 464.061 397.293 464.101 397.461 464.101C397.629 464.101 397.795 464.061 397.945 463.985L400.986 462.257C401.228 462.119 401.193 461.877 400.986 461.704L398.083 459.976C397.936 459.902 397.775 459.861 397.61 459.858C397.445 459.855 397.282 459.89 397.133 459.959Z" fill="#2B303F"/>
<path d="M345.588 489.732L340.404 492.67C340.162 492.826 340.197 493.068 340.404 493.24L343.307 494.968C343.457 495.044 343.623 495.084 343.791 495.084C343.959 495.084 344.125 495.044 344.275 494.968L349.372 492.013C349.614 491.875 349.579 491.616 349.372 491.46L346.469 489.732C346.33 489.671 346.18 489.639 346.029 489.639C345.877 489.639 345.727 489.671 345.588 489.732Z" fill="#2B303F"/>
<path d="M405.324 459.752L402.282 461.48C402.142 461.548 401.989 461.584 401.833 461.584C401.677 461.584 401.524 461.548 401.384 461.48L398.325 459.752C398.083 459.613 398.083 459.389 398.325 459.233L398.567 459.095C398.792 458.974 398.792 458.749 398.567 458.611L395.336 456.762C395.077 456.607 395.077 456.382 395.336 456.227L397.271 455.121C397.411 455.052 397.565 455.016 397.721 455.016C397.876 455.016 398.03 455.052 398.17 455.121L401.194 456.849L401.816 457.212L402.265 457.471L402.732 457.73L405.324 459.233C405.565 459.389 405.565 459.648 405.324 459.752Z" fill="#2B303F"/>
<path d="M331.039 483.702L327.998 485.43C327.756 485.568 327.79 485.81 327.998 485.983L330.901 487.711C331.049 487.783 331.211 487.82 331.376 487.82C331.541 487.82 331.703 487.783 331.851 487.711L334.892 485.983C335.134 485.827 335.1 485.585 334.892 485.412L331.989 483.684C331.841 483.611 331.677 483.575 331.512 483.578C331.347 483.581 331.185 483.623 331.039 483.702Z" fill="#2B303F"/>
<path d="M335.307 481.231L332.283 482.959C332.042 483.097 332.059 483.339 332.283 483.512L335.169 485.24C335.32 485.312 335.485 485.349 335.653 485.349C335.82 485.349 335.986 485.312 336.137 485.24L339.178 483.512C339.42 483.356 339.385 483.114 339.178 482.941L336.275 481.213C336.124 481.14 335.957 481.104 335.789 481.107C335.621 481.11 335.456 481.152 335.307 481.231Z" fill="#2B303F"/>
<path d="M339.592 478.76L336.568 480.488C336.309 480.626 336.344 480.868 336.568 481.041L339.454 482.769C339.605 482.841 339.77 482.878 339.938 482.878C340.105 482.878 340.271 482.841 340.422 482.769L343.446 481.041C343.705 480.885 343.67 480.643 343.446 480.47L340.56 478.742C340.409 478.669 340.242 478.633 340.074 478.636C339.906 478.639 339.741 478.681 339.592 478.76Z" fill="#2B303F"/>
<path d="M376.035 457.73L373.011 459.458C372.769 459.596 372.786 459.855 373.011 460.011L375.897 461.739C376.048 461.811 376.213 461.848 376.38 461.848C376.548 461.848 376.713 461.811 376.864 461.739L379.905 460.011C380.147 459.873 380.113 459.613 379.905 459.458L377.002 457.73C376.854 457.65 376.688 457.608 376.519 457.608C376.35 457.608 376.184 457.65 376.035 457.73Z" fill="#2B303F"/>
<path d="M380.32 455.259L377.296 456.987C377.037 457.125 377.071 457.384 377.296 457.54L380.182 459.268C380.333 459.34 380.498 459.377 380.665 459.377C380.833 459.377 380.998 459.34 381.149 459.268L384.173 457.54C384.432 457.402 384.398 457.142 384.173 456.987L381.287 455.259C381.139 455.179 380.973 455.137 380.804 455.137C380.635 455.137 380.468 455.179 380.32 455.259Z" fill="#2B303F"/>
<path d="M384.605 452.736L381.564 454.464C381.322 454.602 381.357 454.861 381.564 455.017L384.467 456.745C384.618 456.817 384.784 456.854 384.951 456.854C385.118 456.854 385.284 456.817 385.435 456.745L388.459 455.017C388.701 454.879 388.683 454.62 388.459 454.464L385.573 452.736C385.424 452.656 385.258 452.614 385.089 452.614C384.92 452.614 384.754 452.656 384.605 452.736Z" fill="#2B303F"/>
<path d="M388.873 450.317L385.849 452.045C385.607 452.183 385.624 452.442 385.849 452.598L388.734 454.326C388.886 454.398 389.051 454.435 389.218 454.435C389.386 454.435 389.551 454.398 389.702 454.326L392.743 452.598C392.985 452.46 392.951 452.2 392.743 452.045L389.84 450.317C389.692 450.237 389.525 450.195 389.357 450.195C389.188 450.195 389.021 450.237 388.873 450.317Z" fill="#2B303F"/>
<path d="M344.984 475.667L340.837 478.051C340.595 478.189 340.629 478.431 340.837 478.604L343.74 480.332C343.891 480.404 344.056 480.442 344.223 480.442C344.391 480.442 344.556 480.404 344.707 480.332L348.837 477.948C349.079 477.809 349.044 477.55 348.837 477.395L345.934 475.667C345.789 475.586 345.625 475.544 345.459 475.544C345.293 475.544 345.129 475.586 344.984 475.667Z" fill="#2B303F"/>
<path d="M371.767 460.201L367.62 462.586C367.378 462.724 367.413 462.966 367.62 463.139L370.523 464.867C370.674 464.939 370.839 464.976 371.007 464.976C371.174 464.976 371.339 464.939 371.49 464.867L375.62 462.482C375.862 462.344 375.845 462.084 375.62 461.929L372.735 460.201C372.586 460.121 372.42 460.079 372.251 460.079C372.082 460.079 371.916 460.121 371.767 460.201Z" fill="#2B303F"/>
<path d="M366.324 463.294L346.176 474.941C345.917 475.079 345.951 475.338 346.176 475.494L349.061 477.222C349.213 477.294 349.378 477.331 349.545 477.331C349.713 477.331 349.878 477.294 350.029 477.222L370.194 465.592C370.436 465.437 370.402 465.195 370.108 465.022L367.222 463.294C367.081 463.229 366.928 463.195 366.773 463.195C366.618 463.195 366.464 463.229 366.324 463.294Z" fill="#2B303F"/>
<path d="M346.867 484.168L343.843 485.896C343.584 486.035 343.618 486.276 343.843 486.449L346.728 488.177C346.878 488.253 347.044 488.293 347.212 488.293C347.38 488.293 347.546 488.253 347.696 488.177L350.737 486.449C350.979 486.311 350.945 486.069 350.737 485.896L347.834 484.168C347.684 484.092 347.519 484.053 347.351 484.053C347.182 484.053 347.017 484.092 346.867 484.168Z" fill="#2B303F"/>
<path d="M351.152 481.697L348.128 483.425C347.886 483.581 347.904 483.823 348.128 483.996L351.014 485.724C351.164 485.799 351.33 485.839 351.498 485.839C351.666 485.839 351.831 485.799 351.981 485.724L355.023 483.996C355.265 483.857 355.23 483.615 355.023 483.443L352.12 481.715C351.97 481.64 351.805 481.599 351.638 481.596C351.47 481.593 351.304 481.628 351.152 481.697Z" fill="#2B303F"/>
<path d="M355.437 479.226L352.413 480.954C352.171 481.092 352.189 481.352 352.413 481.507L355.299 483.235C355.448 483.315 355.614 483.357 355.783 483.357C355.952 483.357 356.118 483.315 356.267 483.235L359.308 481.507C359.55 481.369 359.515 481.11 359.308 480.954L356.405 479.226C356.255 479.15 356.089 479.111 355.921 479.111C355.753 479.111 355.587 479.15 355.437 479.226Z" fill="#2B303F"/>
<path d="M359.74 476.755L356.699 478.483C356.457 478.621 356.492 478.881 356.699 479.036L359.602 480.764C359.75 480.836 359.913 480.873 360.077 480.873C360.242 480.873 360.404 480.836 360.552 480.764L363.593 479.036C363.835 478.881 363.801 478.639 363.593 478.466L360.691 476.738C360.544 476.66 360.379 476.621 360.213 476.624C360.047 476.627 359.884 476.672 359.74 476.755Z" fill="#2B303F"/>
<path d="M364.025 474.267L360.984 475.995C360.742 476.133 360.777 476.375 360.984 476.548L363.887 478.276C364.037 478.352 364.203 478.391 364.371 478.391C364.539 478.391 364.705 478.352 364.855 478.276L367.879 476.548C368.121 476.41 368.103 476.168 367.879 475.995L364.993 474.267C364.843 474.191 364.677 474.151 364.509 474.151C364.341 474.151 364.175 474.191 364.025 474.267Z" fill="#2B303F"/>
<path d="M368.31 471.744L365.269 473.472C365.027 473.628 365.062 473.869 365.269 474.042L368.172 475.77C368.322 475.846 368.488 475.886 368.656 475.886C368.824 475.886 368.99 475.846 369.14 475.77L372.164 474.042C372.406 473.904 372.388 473.662 372.164 473.489L369.278 471.761C369.128 471.686 368.964 471.646 368.796 471.643C368.629 471.64 368.463 471.675 368.31 471.744Z" fill="#2B303F"/>
<path d="M372.596 469.325L369.554 471.053C369.313 471.191 369.347 471.45 369.554 471.606L372.457 473.334C372.606 473.414 372.772 473.456 372.941 473.456C373.11 473.456 373.276 473.414 373.425 473.334L376.449 471.606C376.708 471.468 376.674 471.208 376.449 471.053L373.563 469.325C373.413 469.249 373.248 469.209 373.079 469.209C372.911 469.209 372.746 469.249 372.596 469.325Z" fill="#2B303F"/>
<path d="M376.881 466.836L373.857 468.564C373.598 468.703 373.633 468.945 373.857 469.117L376.743 470.845C376.894 470.918 377.059 470.955 377.227 470.955C377.394 470.955 377.56 470.918 377.711 470.845L380.735 469.117C380.994 468.962 380.959 468.72 380.735 468.547L377.849 466.819C377.698 466.746 377.531 466.709 377.363 466.712C377.195 466.715 377.03 466.758 376.881 466.836Z" fill="#2B303F"/>
<path d="M381.166 464.365L378.143 466.093C377.883 466.232 377.918 466.474 378.143 466.646L381.028 468.374C381.178 468.45 381.344 468.49 381.512 468.49C381.68 468.49 381.846 468.45 381.996 468.374L385.02 466.646C385.279 466.508 385.244 466.266 385.02 466.093L382.134 464.365C381.984 464.29 381.818 464.25 381.65 464.25C381.482 464.25 381.316 464.29 381.166 464.365Z" fill="#2B303F"/>
<path d="M385.452 461.894L382.428 463.622C382.186 463.778 382.203 464.02 382.428 464.193L385.314 465.921C385.464 465.997 385.629 466.036 385.797 466.036C385.966 466.036 386.131 465.997 386.281 465.921L389.322 464.193C389.564 464.054 389.53 463.812 389.322 463.64L386.419 461.912C386.27 461.837 386.105 461.796 385.938 461.793C385.77 461.79 385.604 461.825 385.452 461.894Z" fill="#2B303F"/>
<path d="M389.737 459.423L386.713 461.151C386.471 461.29 386.488 461.549 386.713 461.704L389.599 463.432C389.749 463.508 389.914 463.548 390.083 463.548C390.251 463.548 390.416 463.508 390.566 463.432L393.608 461.704C393.849 461.566 393.815 461.307 393.608 461.151L390.705 459.423C390.556 459.343 390.39 459.301 390.221 459.301C390.052 459.301 389.886 459.343 389.737 459.423Z" fill="#2B303F"/>
<path d="M393.971 456.935L390.929 458.663C390.688 458.801 390.722 459.043 390.929 459.216L393.832 460.944C393.98 461.016 394.143 461.053 394.308 461.053C394.472 461.053 394.635 461.016 394.783 460.944L397.824 459.216C398.066 459.06 398.031 458.819 397.824 458.646L394.921 456.918C394.773 456.845 394.609 456.808 394.444 456.811C394.278 456.814 394.116 456.857 393.971 456.935Z" fill="#2B303F"/>
<path d="M342.582 486.657L336.309 490.268C336.067 490.406 336.102 490.666 336.309 490.821L339.212 492.549C339.359 492.625 339.522 492.664 339.687 492.664C339.853 492.664 340.016 492.625 340.163 492.549L346.435 488.938C346.694 488.782 346.66 488.54 346.435 488.385L343.549 486.657C343.401 486.576 343.234 486.535 343.066 486.535C342.897 486.535 342.73 486.576 342.582 486.657Z" fill="#2B303F"/>
<path d="M340.578 482.993L337.554 484.721C337.295 484.86 337.329 485.101 337.554 485.274L340.439 487.002C340.59 487.074 340.756 487.112 340.923 487.112C341.091 487.112 341.256 487.074 341.407 487.002L344.448 485.274C344.69 485.119 344.656 484.877 344.448 484.704L341.545 482.976C341.394 482.903 341.227 482.866 341.059 482.869C340.891 482.872 340.726 482.915 340.578 482.993Z" fill="#2B303F"/>
<path d="M344.862 480.522L341.838 482.25C341.596 482.406 341.613 482.648 341.838 482.821L344.724 484.549C344.874 484.624 345.039 484.664 345.208 484.664C345.376 484.664 345.541 484.624 345.691 484.549L348.733 482.821C348.974 482.682 348.94 482.44 348.733 482.268L345.83 480.54C345.68 480.465 345.515 480.424 345.348 480.421C345.18 480.418 345.014 480.453 344.862 480.522Z" fill="#2B303F"/>
<path d="M349.148 478.051L346.124 479.779C345.882 479.917 345.9 480.177 346.124 480.332L349.01 482.06C349.159 482.14 349.325 482.182 349.494 482.182C349.663 482.182 349.829 482.14 349.978 482.06L353.019 480.332C353.261 480.194 353.226 479.935 353.019 479.779L350.116 478.051C349.965 477.979 349.799 477.942 349.632 477.942C349.465 477.942 349.299 477.979 349.148 478.051Z" fill="#2B303F"/>
<path d="M353.45 475.58L350.409 477.308C350.167 477.446 350.202 477.706 350.409 477.861L353.312 479.589C353.46 479.661 353.622 479.698 353.787 479.698C353.952 479.698 354.114 479.661 354.262 479.589L357.303 477.861C357.545 477.723 357.511 477.464 357.303 477.308L354.401 475.58C354.255 475.5 354.091 475.458 353.925 475.458C353.759 475.458 353.596 475.5 353.45 475.58Z" fill="#2B303F"/>
<path d="M357.684 473.092L354.642 474.82C354.4 474.958 354.435 475.2 354.642 475.373L357.545 477.101C357.693 477.173 357.856 477.21 358.02 477.21C358.185 477.21 358.348 477.173 358.496 477.101L361.537 475.373C361.779 475.217 361.744 474.975 361.537 474.803L358.634 473.075C358.486 473.001 358.322 472.965 358.157 472.968C357.991 472.971 357.829 473.013 357.684 473.092Z" fill="#2B303F"/>
<path d="M362.02 470.621L358.979 472.349C358.737 472.487 358.772 472.729 358.979 472.902L361.882 474.63C362.032 474.706 362.198 474.745 362.366 474.745C362.534 474.745 362.7 474.706 362.85 474.63L365.874 472.902C366.116 472.764 366.098 472.522 365.874 472.349L362.988 470.621C362.838 470.545 362.672 470.505 362.504 470.505C362.336 470.505 362.17 470.545 362.02 470.621Z" fill="#2B303F"/>
<path d="M366.323 468.15L363.282 469.878C363.04 470.033 363.075 470.275 363.282 470.448L366.185 472.176C366.335 472.252 366.501 472.292 366.669 472.292C366.837 472.292 367.003 472.252 367.153 472.176L370.176 470.448C370.418 470.31 370.401 470.068 370.176 469.895L367.291 468.167C367.141 468.092 366.976 468.052 366.809 468.049C366.642 468.046 366.476 468.08 366.323 468.15Z" fill="#2B303F"/>
<path d="M370.592 465.679L367.551 467.407C367.309 467.545 367.343 467.804 367.551 467.96L370.453 469.688C370.602 469.768 370.768 469.81 370.937 469.81C371.106 469.81 371.272 469.768 371.421 469.688L374.445 467.96C374.687 467.821 374.67 467.562 374.445 467.407L371.559 465.679C371.409 465.603 371.244 465.563 371.076 465.563C370.907 465.563 370.742 465.603 370.592 465.679Z" fill="#2B303F"/>
<path d="M374.963 463.208L371.922 464.936C371.68 465.074 371.714 465.333 371.922 465.489L374.825 467.217C374.976 467.289 375.141 467.326 375.308 467.326C375.476 467.326 375.641 467.289 375.792 467.217L378.816 465.489C379.075 465.35 379.041 465.091 378.816 464.936L375.93 463.208C375.782 463.128 375.616 463.086 375.447 463.086C375.278 463.086 375.111 463.128 374.963 463.208Z" fill="#2B303F"/>
<path d="M379.162 460.719L376.138 462.447C375.879 462.586 375.913 462.828 376.138 463L379.023 464.728C379.174 464.8 379.34 464.838 379.507 464.838C379.675 464.838 379.84 464.8 379.991 464.728L383.015 463C383.274 462.845 383.24 462.603 383.015 462.43L380.129 460.702C379.978 460.629 379.811 460.592 379.643 460.595C379.475 460.598 379.31 460.641 379.162 460.719Z" fill="#2B303F"/>
<path d="M383.448 458.248L380.424 459.976C380.165 460.132 380.199 460.374 380.424 460.547L383.31 462.275C383.459 462.35 383.625 462.39 383.793 462.39C383.961 462.39 384.127 462.35 384.277 462.275L387.301 460.547C387.56 460.408 387.526 460.166 387.301 459.994L384.415 458.266C384.266 458.191 384.101 458.15 383.934 458.147C383.766 458.144 383.6 458.179 383.448 458.248Z" fill="#2B303F"/>
<path d="M393.038 452.736L384.709 457.54C384.45 457.678 384.484 457.937 384.709 458.093L387.595 459.821C387.743 459.901 387.91 459.943 388.078 459.943C388.247 459.943 388.414 459.901 388.562 459.821L396.908 455.017C397.15 454.879 397.116 454.62 396.908 454.464L393.971 452.736C393.826 452.662 393.667 452.623 393.504 452.623C393.342 452.623 393.182 452.662 393.038 452.736Z" fill="#2B303F"/>
<path d="M336.292 485.568L332.162 487.953C331.92 488.091 331.938 488.333 332.162 488.506L335.048 490.234C335.199 490.306 335.364 490.343 335.532 490.343C335.699 490.343 335.865 490.306 336.016 490.234L340.163 487.849C340.405 487.711 340.37 487.452 340.076 487.296L337.191 485.568C337.051 485.499 336.897 485.464 336.741 485.464C336.586 485.464 336.432 485.499 336.292 485.568Z" fill="#2B303F"/>
<path d="M409.833 462.396L348.94 497.56C348.698 497.699 348.733 497.941 348.94 498.113L350.392 498.943C350.542 499.019 350.707 499.058 350.875 499.058C351.044 499.058 351.209 499.019 351.359 498.943L412.235 463.778C412.494 463.64 412.459 463.398 412.235 463.225L410.8 462.396C410.65 462.32 410.485 462.28 410.317 462.28C410.148 462.28 409.983 462.32 409.833 462.396Z" fill="#2B303F"/>
<path d="M338.59 463.968L338.987 464.193L349.51 470.275L368.207 459.475L368.604 459.251L357.684 452.961L338.59 463.968Z" fill="#BFBFBF"/>
<path d="M338.987 464.193L349.51 470.275L368.207 459.475L357.684 453.41L338.987 464.193Z" fill="#E5E5E5"/>
<path d="M308.593 478.155V479.088C308.594 479.761 308.771 480.421 309.108 481.004C309.444 481.586 309.928 482.069 310.511 482.406L347.592 503.816C348.174 504.157 348.836 504.336 349.51 504.334C350.184 504.332 350.845 504.153 351.428 503.816L418.507 465.074C419.091 464.739 419.575 464.256 419.912 463.673C420.249 463.09 420.426 462.429 420.425 461.756V460.823L349.579 501.777L308.593 478.155Z" fill="#E5E5E5"/>
<path d="M350.582 502.347C351.217 502.592 351.9 502.692 352.579 502.638C353.258 502.584 353.916 502.378 354.504 502.036L421.307 463.467C421.886 463.132 422.384 462.673 422.767 462.124C423.149 461.574 423.406 460.947 423.518 460.287L430.828 416.69C430.844 416.443 430.844 416.194 430.828 415.947C430.829 415.347 430.712 414.753 430.484 414.199C430.256 413.644 429.92 413.14 429.497 412.716L360.12 452.736C359.698 452.989 359.334 453.33 359.054 453.735C358.774 454.141 358.584 454.601 358.496 455.086L350.582 502.347Z" fill="#F4F4F4"/>
<path d="M349.511 501.777L349.96 502.036C350.16 502.153 350.368 502.257 350.582 502.347L358.496 455.138C358.584 454.653 358.774 454.193 359.054 453.787C359.334 453.382 359.698 453.041 360.12 452.788L429.549 412.716C429.268 412.442 428.955 412.204 428.616 412.007L359.049 452.166C358.626 452.419 358.263 452.76 357.983 453.165C357.703 453.57 357.512 454.031 357.425 454.516L349.511 501.777Z" fill="#E5E5E5"/>
<path opacity="0.4" d="M698.9 864C736.891 864 767.689 846.214 767.689 824.273C767.689 802.333 736.891 784.547 698.9 784.547C660.908 784.547 630.11 802.333 630.11 824.273C630.11 846.214 660.908 864 698.9 864Z" fill="#D6D8E5"/>
<path d="M754.659 522.357C755.437 529.269 763.627 558.801 761.865 568.927C760.102 579.053 732.162 596.022 732.162 596.022L728.291 578.742L743.842 563.57L739.557 534.764L754.659 522.357Z" fill="#FFCEA9"/>
<path d="M733.043 493.206C735.76 491.943 738.847 491.724 741.715 492.59C744.583 493.457 747.032 495.349 748.594 497.906C752.707 504.714 756.975 528.077 757.372 532.069C757.372 532.069 751.601 540.035 742.944 538.704L733.043 493.206Z" fill="#EDEDED"/>
<path d="M701.111 823.081C695.027 824.768 688.523 823.979 683.019 820.886C678.665 821.025 655.009 810.899 651.795 819.4C648.979 826.848 659.225 833.743 664.703 835.073C676.643 837.959 685.438 843.921 690.276 844.923C693.853 845.683 698.484 846.184 701.335 843.368C704.757 839.998 704.463 827.522 701.111 823.081Z" fill="#024A65"/>
<path d="M690.277 842.867C685.491 841.864 676.644 835.955 664.704 833C660.107 831.894 652.211 826.865 651.416 820.904C650.344 827.816 659.589 833.846 664.704 835.091C676.644 837.976 685.439 843.938 690.277 844.94C693.854 845.7 698.485 846.202 701.336 843.385C702.071 842.567 702.609 841.592 702.908 840.534C701.13 841.88 699.062 842.792 696.869 843.197C694.676 843.602 692.419 843.489 690.277 842.867Z" fill="#1F7A8C"/>
<path d="M739.558 805.853C733.476 807.535 726.976 806.753 721.466 803.675C717.112 803.796 693.456 793.67 690.242 802.172C687.426 809.62 697.673 816.515 703.15 817.845C715.09 820.731 723.885 826.692 728.724 827.712C732.318 828.455 736.931 828.956 739.782 826.139C743.117 822.77 742.824 810.294 739.558 805.853Z" fill="#024A65"/>
<path d="M728.637 825.638C723.851 824.636 715.004 818.726 703.064 815.772C698.468 814.666 690.571 809.654 689.776 803.676C688.705 810.588 697.949 816.601 703.064 817.845C715.004 820.731 723.799 826.693 728.637 827.712C732.231 828.455 736.845 828.956 739.696 826.14C740.431 825.322 740.969 824.346 741.269 823.288C739.492 824.638 737.425 825.553 735.232 825.961C733.038 826.369 730.78 826.259 728.637 825.638Z" fill="#1F7A8C"/>
<path d="M739.938 741.588C738.927 732.798 737.099 724.12 734.478 715.668C734.478 715.668 736.119 693.308 736.931 672.106C737.864 648.052 746.193 626.884 739.61 607.686L665.395 624.188C665.395 624.188 669.887 720.092 670.889 731.704C671.434 740.727 672.542 749.707 674.207 758.592C677.663 777.203 683.106 821.491 683.106 821.491C690.951 826.053 701.249 823.53 701.249 823.53C701.249 823.53 700.696 767.526 700.178 754.116C699.573 737.735 699.072 738.979 699.072 738.979L701.543 698.233L703.15 677.946C703.15 677.946 705.206 692.842 706.606 706.147C707.764 717.742 710.563 728.231 713.69 749.831C716.403 768.563 720.81 806.198 720.81 806.198C728.654 810.778 739.316 806.976 739.316 806.976C739.316 806.976 742.063 757.832 739.938 741.588Z" fill="#022B3A"/>
<path d="M729.19 493.603C723.54 493.88 719.341 495.331 718.632 493.603C718.021 490.689 717.588 487.74 717.336 484.773C717.993 483.132 718.546 481.317 718.546 481.317C725.648 476.945 727.894 469.221 728.827 460.339C730.417 445.064 722.157 431.706 706.9 430.099C692.54 428.613 681.983 438.739 679.166 452.563C677.645 459.475 674.622 472.332 678.717 483.667C680.998 489.957 683.901 494.951 686.873 495.919C689.719 495.846 692.558 495.598 695.374 495.176C695.374 495.176 696.134 499.427 696.67 502.088C697.206 504.749 696.981 506.252 691.573 509.587C686.164 512.922 699.763 519.8 708.662 519.108C717.561 518.417 727.462 513.216 730.192 507.393C733.251 500.982 732.991 493.413 729.19 493.603Z" fill="#FFCEA9"/>
<path d="M720.93 494.45C722.485 498.338 718.511 503.09 707.901 506.46C697.292 509.829 696.324 505.509 696.324 505.509C696.324 505.509 680.773 512.594 675.693 516.136C669.334 520.595 666.5 533.416 665.636 555.241C664.651 580.418 664.565 617.76 665.394 624.205C665.394 624.205 677.3 636.077 692.54 634.833C707.78 633.589 733.423 620.093 739.644 609.673C739.471 587.606 736.879 584.012 740.456 571.294C748.646 542.177 752.949 530.254 748.975 510.9C745.691 494.951 741.095 492.981 734.805 493.137C730.16 493.327 725.528 493.765 720.93 494.45Z" fill="#F4F4F4"/>
<path d="M641.687 576.046C654.197 579.208 657.135 571.311 658.776 564.797C662.751 548.986 664.893 534.712 667.865 525.727C671.321 515.151 675.019 513.475 680.151 511.402C686.199 508.982 691.383 514.08 689.378 527.558C686.994 543.491 683.883 554.671 677.922 573.523C676.367 578.448 672.876 587.192 667.658 591.425C661.196 596.609 651.484 596.419 636.78 592.756C630.507 591.201 623.63 587.451 611.776 581.921C608.597 580.435 606.109 579.45 600.009 576.599C593.91 573.748 587.533 568.996 584.337 564.365C581.14 559.734 580.708 557.453 581.365 556.485C582.177 555.155 583.628 555.448 585.339 557.401C587.806 560.704 590.857 563.527 594.342 565.73C594.342 565.73 590.385 561.652 588.242 559.008C586.326 556.65 584.733 554.047 583.507 551.267C582.384 548.571 584.717 544.908 586.479 546.826C588.242 548.744 589.106 550.714 592.337 554.584C594.034 556.657 595.978 558.514 598.126 560.114C596.12 557.38 594.334 554.491 592.786 551.474C591.403 549.129 590.725 546.435 590.834 543.715C590.92 542.298 592.925 540.622 594.791 543.3C596.519 545.702 597.59 549.469 601.512 553.565C604.364 556.52 606.8 558.23 606.869 557.401C606.938 556.572 605.141 554.964 604.122 551.508C603.102 548.052 604.122 544.406 606.04 544.009C607.958 543.612 607.578 543.715 609.098 546.947C610.619 550.178 612.986 552.563 614.783 557.315C615.763 560.643 617.543 563.68 619.967 566.162C623.008 569.445 629.799 573.057 641.687 576.046Z" fill="#FFCEA9"/>
<path d="M684.782 509.242C676.436 508.015 670.544 511.764 666.846 524.431C663.148 537.097 660.591 547.465 660.591 547.465C663.89 552.235 668.894 555.556 674.57 556.744C684.557 559.164 688.151 554.394 688.151 554.394C688.151 554.394 690.933 541.14 692.661 532.12C694.389 523.1 695.115 510.762 684.782 509.242Z" fill="#EDEDED"/>
<path d="M679.564 450.645C679.564 450.645 666.362 430.6 694.96 426.453C715.574 423.516 728.827 436.821 730.348 451.129C731.817 464.867 723.35 479.123 717.25 484.79C714.278 485.844 707.85 486.518 699.435 482.63C699.093 478.891 698.96 475.135 699.038 471.381C699.038 471.381 709.094 450.282 679.564 450.645Z" fill="#1F7A8C"/>
<path d="M412.7 381.041C429.477 381.041 443.078 367.44 443.078 350.663C443.078 333.886 429.477 320.285 412.7 320.285C395.924 320.285 382.323 333.886 382.323 350.663C382.323 367.44 395.924 381.041 412.7 381.041Z" fill="#024A65"/>
<path d="M412.701 365.04C401.175 365.04 390.013 362.413 382.082 357.817C375.463 353.998 371.714 349.177 371.714 344.615C371.714 340.053 375.515 335.232 382.082 331.413C390.013 326.817 401.089 324.19 412.701 324.19C424.312 324.19 435.371 326.834 443.32 331.413C449.938 335.232 453.687 340.053 453.687 344.615C453.687 349.177 449.903 353.998 443.32 357.817C435.44 362.413 424.209 365.04 412.701 365.04Z" fill="#1F7A8C"/>
<path d="M412.701 359.804C401.175 359.804 390.013 357.178 382.082 352.598C375.463 348.78 371.714 343.958 371.714 339.396C371.714 334.835 375.515 330.013 382.082 326.177C390.013 321.598 401.089 318.972 412.701 318.972C424.312 318.972 435.371 321.598 443.32 326.177C449.938 330.013 453.687 334.817 453.687 339.396C453.687 343.976 449.903 348.78 443.32 352.598C435.44 357.178 424.209 359.804 412.701 359.804Z" fill="#024A65"/>
<path d="M412.701 355.087C397.771 355.087 383.326 351.631 372.958 345.738C364.318 340.779 359.463 334.541 359.463 328.614C359.463 322.687 364.37 316.518 372.958 311.507C383.239 305.562 397.702 302.158 412.701 302.158C427.699 302.158 442.076 305.614 452.443 311.507C461.083 316.449 465.956 322.687 465.956 328.614C465.956 334.541 461.031 340.71 452.443 345.738C442.093 351.683 427.63 355.087 412.701 355.087Z" fill="#1F7A8C"/>
<path d="M412.701 348.313C397.771 348.313 383.326 344.857 372.958 338.965C364.318 334.022 359.463 327.767 359.463 321.857C359.463 315.948 364.37 309.761 372.958 304.733C383.239 298.789 397.702 295.384 412.701 295.384C427.699 295.384 442.076 298.84 452.443 304.733C461.083 309.692 465.956 315.93 465.956 321.857C465.956 327.784 461.031 333.953 452.443 338.965C442.093 344.909 427.63 348.313 412.701 348.313Z" fill="#024A65"/>
<path d="M412.701 342.006C394.489 342.006 376.864 337.859 364.319 330.618C353.865 324.57 347.869 316.967 347.869 309.744C347.869 302.521 353.865 294.918 364.319 288.887C376.864 281.647 394.489 277.482 412.701 277.482C430.914 277.482 448.522 281.647 461.084 288.887C471.538 294.918 477.534 302.521 477.534 309.744C477.534 316.967 471.538 324.57 461.084 330.618C448.539 337.859 430.897 342.006 412.701 342.006Z" fill="#1F7A8C"/>
<path d="M412.701 333.746C394.489 333.746 376.864 329.599 364.319 322.358C353.865 316.328 347.869 308.707 347.869 301.484C347.869 294.261 353.865 286.658 364.319 280.627C376.864 273.387 394.489 269.24 412.701 269.24C430.914 269.24 448.522 273.387 461.084 280.627C471.538 286.658 477.534 294.278 477.534 301.501C477.534 308.724 471.538 316.328 461.084 322.358C448.539 329.599 430.897 333.746 412.701 333.746Z" fill="#024A65"/>
<path d="M412.701 325.227C391.793 325.227 371.559 320.475 357.148 312.146C345.139 305.234 338.262 296.49 338.262 288.196C338.262 279.901 345.173 271.175 357.148 264.228C371.542 255.917 391.793 251.165 412.684 251.165C433.575 251.165 453.844 255.917 468.237 264.246C480.246 271.158 487.124 279.901 487.124 288.196C487.124 296.49 480.212 305.217 468.237 312.146C453.844 320.475 433.592 325.227 412.701 325.227Z" fill="#1F7A8C"/>
<path d="M412.701 315.757C391.793 315.757 371.559 310.988 357.148 302.676C345.139 295.764 338.262 287.021 338.262 278.726C338.262 270.432 345.173 261.688 357.148 254.759C371.542 246.447 391.793 241.678 412.684 241.678C433.575 241.678 453.844 246.447 468.237 254.759C480.246 261.671 487.124 270.432 487.124 278.726C487.124 287.021 480.212 295.747 468.237 302.676C453.844 311.04 433.592 315.757 412.701 315.757Z" fill="#024A65"/>
<path d="M412.701 308.707C458.928 308.707 496.403 287.068 496.403 260.375C496.403 233.682 458.928 212.043 412.701 212.043C366.474 212.043 329 233.682 329 260.375C329 287.068 366.474 308.707 412.701 308.707Z" fill="#FFDF57"/>
<path d="M391.344 141.281H383.931V256.522H391.344V141.281Z" fill="#D8AA44"/>
<path d="M442.094 141.281H434.681V256.522H442.094V141.281Z" fill="#D8AA44"/>
<path d="M412.493 148.781L401.625 138.828L388.285 147.761L383.931 141.299L402.35 129.203L412.908 138.862L425.557 129.047L442.093 141.299L436.927 147.226L425.539 138.672L412.493 148.781Z" fill="#D8AA44"/>
<path opacity="0.69" d="M496.281 262.898C496.419 252.046 498.285 220.009 523.773 175.859C553.925 123.621 522.494 0 412.476 0C302.458 0 271.027 123.621 301.18 175.859C323.211 214.03 328.014 247.899 329.017 263.382" fill="#FFDF57"/>
<path opacity="0.2" d="M354.451 577.394L349.648 572.901C349.038 572.018 348.305 571.226 347.471 570.551C347.106 570.246 346.719 569.968 346.313 569.722L340.092 565.574L333.301 562.568C332.886 562.375 332.459 562.208 332.023 562.067C331.023 561.733 329.982 561.536 328.93 561.479L322.467 559.371C322.104 559.371 322.312 560.028 322.467 560.304L323.089 560.563C323.867 560.857 323.21 560.753 324.022 561.324L327.737 562.274C330.104 562.185 332.445 562.785 334.476 564.002L339.401 566.473L344.136 569.324C346.216 570.468 347.875 572.249 348.87 574.405L351.376 576.426C352.153 577.152 351.704 576.841 352.862 577.014L353.501 577.567C353.968 577.688 354.659 577.705 354.451 577.394Z" fill="black"/>
<path opacity="0.1" d="M340.94 567.89C341.324 567.298 341.838 566.802 342.443 566.438C343.322 565.899 344.354 565.662 345.381 565.764C346.592 565.889 347.767 566.253 348.836 566.836H348.957L350.685 567.769C351.135 568.011 351.549 568.287 351.964 568.564L352.759 569.151C353.951 570.102 353.606 571.968 352.551 573.454C351.967 574.284 351.295 575.049 350.547 575.735C349.889 576.306 349.097 576.702 348.246 576.886C347.394 577.071 346.51 577.037 345.674 576.789C344.899 576.546 344.152 576.221 343.445 575.821C342.791 575.439 342.172 575 341.596 574.508C340.888 573.846 340.398 572.983 340.195 572.034C339.991 571.086 340.082 570.098 340.456 569.203C340.569 568.749 340.731 568.309 340.94 567.89ZM326.684 559.25C327.617 557.816 329.207 556.727 330.555 557.176L331.419 557.505C331.856 557.676 332.283 557.872 332.697 558.092L334.27 558.904H334.374C335.361 559.425 336.218 560.164 336.879 561.064C337.15 561.43 337.346 561.846 337.456 562.288C337.565 562.73 337.587 563.189 337.518 563.639C337.416 564.307 337.155 564.941 336.758 565.488C336.435 565.878 336.07 566.232 335.67 566.542C334.945 567.248 334.049 567.751 333.07 568.003C332.091 568.255 331.063 568.246 330.088 567.976C329.393 567.756 328.722 567.466 328.084 567.112C327.467 566.732 326.888 566.292 326.356 565.799C325.803 565.284 325.42 564.614 325.256 563.876C325.093 563.139 325.157 562.369 325.44 561.669C325.764 560.825 326.181 560.019 326.684 559.267V559.25Z" fill="black"/>
<path d="M324.852 561.358L328.55 561.012C330.892 560.781 333.249 561.25 335.324 562.36L355.731 572.607L356.923 570.879L334.079 560.805C332.706 560.163 331.222 559.793 329.708 559.716L322.45 559.302C322.371 559.288 322.289 559.298 322.215 559.332C322.142 559.365 322.081 559.42 322.039 559.49C321.998 559.559 321.979 559.64 321.984 559.72C321.99 559.801 322.02 559.878 322.07 559.941L322.26 560.2C322.559 560.597 322.954 560.911 323.407 561.113C323.86 561.316 324.358 561.4 324.852 561.358Z" fill="#2B303F"/>
<path d="M351.255 576.15L349.717 572.694C348.725 570.538 347.073 568.752 345 567.596L326.355 556.433L327.41 554.826L347.125 567.942C348.436 568.772 349.564 569.86 350.443 571.139L354.676 577.325C354.884 577.636 354.573 578.033 354.158 577.964H353.795C353.253 577.899 352.737 577.699 352.293 577.382C351.849 577.065 351.492 576.641 351.255 576.15Z" fill="#2B303F"/>
<path opacity="0.3" d="M345.725 565.056C346.936 565.174 348.111 565.533 349.181 566.11H349.285L351.013 567.026C351.462 567.285 351.877 567.544 352.292 567.821C352.706 568.097 352.827 568.218 353.086 568.426C354.261 569.359 353.916 571.242 352.879 572.711C352.299 573.55 351.62 574.316 350.857 574.992C350.208 575.572 349.42 575.975 348.57 576.162C347.719 576.35 346.835 576.316 346.002 576.063C345.229 575.806 344.483 575.477 343.773 575.078C343.111 574.708 342.491 574.268 341.924 573.765C341.212 573.109 340.721 572.248 340.517 571.302C340.313 570.355 340.406 569.369 340.783 568.477C340.912 567.994 341.104 567.529 341.354 567.095C341.743 566.507 342.256 566.012 342.857 565.644C343.725 565.144 344.731 564.938 345.725 565.056Z" fill="url(#paint0_linear_60_283)"/>
<path d="M326.857 554.463L325.958 555.88C325.883 555.963 325.841 556.071 325.841 556.183C325.841 556.295 325.883 556.402 325.958 556.485C326.112 556.623 326.216 556.808 326.254 557.011C326.291 557.215 326.26 557.425 326.165 557.608L324.679 560.719C324.245 561.6 324.108 562.598 324.288 563.564C324.469 564.53 324.958 565.411 325.682 566.076C326.938 567.195 328.424 568.027 330.036 568.512C331.236 568.879 332.514 568.912 333.732 568.607C334.949 568.303 336.061 567.672 336.948 566.784L338.33 565.384C338.636 565.087 338.82 564.687 338.848 564.261C338.875 564.072 338.947 563.893 339.056 563.737C339.166 563.581 339.311 563.453 339.479 563.364C339.648 563.274 339.835 563.226 340.026 563.223C340.216 563.22 340.405 563.262 340.576 563.345L340.922 563.518L341.268 563.725C341.408 563.827 341.52 563.963 341.594 564.12C341.667 564.277 341.7 564.45 341.688 564.623C341.675 564.796 341.619 564.963 341.525 565.108C341.43 565.254 341.3 565.372 341.147 565.453C340.759 565.66 340.449 565.987 340.265 566.387L339.488 568.115C338.998 569.214 338.876 570.442 339.14 571.616C339.405 572.79 340.042 573.847 340.957 574.629C342.277 575.793 343.824 576.67 345.501 577.204C346.576 577.55 347.726 577.59 348.822 577.318C349.918 577.047 350.916 576.474 351.704 575.666L354.296 572.936C354.469 572.763 354.686 572.639 354.923 572.578C355.16 572.517 355.409 572.522 355.644 572.59C355.769 572.633 355.904 572.636 356.031 572.599C356.158 572.562 356.27 572.486 356.352 572.383L357.406 570.931C357.516 570.8 357.576 570.635 357.576 570.465C357.576 570.294 357.516 570.129 357.406 569.998C355.757 568.358 353.855 566.993 351.773 565.955L350.045 565.021C348.767 564.326 347.363 563.891 345.916 563.743L344.637 563.604C344.352 563.618 344.072 563.519 343.859 563.328C343.733 563.149 343.567 563.002 343.376 562.896L341.959 562.136L340.542 561.358C340.338 561.254 340.114 561.195 339.885 561.185C339.721 561.181 339.56 561.14 339.413 561.065C339.267 560.99 339.139 560.884 339.039 560.753L338.347 559.82C337.549 558.751 336.514 557.882 335.323 557.28L333.751 556.451C331.892 555.348 329.858 554.571 327.738 554.152C327.577 554.118 327.409 554.129 327.254 554.184C327.098 554.239 326.961 554.336 326.857 554.463ZM341.285 567.199C341.674 566.611 342.187 566.116 342.788 565.747C343.667 565.209 344.701 564.978 345.726 565.091C346.936 565.209 348.111 565.567 349.182 566.145H349.285L351.013 567.06C351.462 567.32 351.877 567.579 352.292 567.855C352.707 568.132 352.827 568.253 353.087 568.46C354.262 569.393 353.916 571.277 352.879 572.746C352.3 573.584 351.621 574.35 350.858 575.027C350.208 575.606 349.42 576.009 348.57 576.197C347.72 576.385 346.835 576.35 346.002 576.098C345.23 575.841 344.483 575.511 343.773 575.113C343.111 574.743 342.492 574.303 341.924 573.8C341.213 573.143 340.721 572.283 340.517 571.336C340.313 570.39 340.406 569.404 340.784 568.512C340.896 568.055 341.064 567.614 341.285 567.199ZM327.012 558.559C327.962 557.142 329.535 556.053 330.9 556.502C331.193 556.591 331.482 556.695 331.764 556.813C332.196 556.986 332.628 557.194 333.043 557.401L334.615 558.23H334.719C335.699 558.762 336.554 559.499 337.224 560.39C337.494 560.76 337.688 561.179 337.795 561.624C337.902 562.069 337.919 562.531 337.846 562.982C337.747 563.646 337.486 564.275 337.086 564.814C336.768 565.214 336.402 565.574 335.997 565.885C335.272 566.59 334.376 567.092 333.397 567.344C332.418 567.595 331.391 567.587 330.416 567.32C329.724 567.097 329.058 566.802 328.429 566.438C327.807 566.072 327.227 565.637 326.701 565.142C326.149 564.623 325.766 563.95 325.603 563.21C325.44 562.47 325.503 561.698 325.785 560.995C326.111 560.149 326.522 559.339 327.012 558.576V558.559Z" fill="#2B303F"/>
<path d="M335.86 566.162C335.137 566.871 334.241 567.376 333.261 567.628C332.282 567.88 331.253 567.869 330.278 567.596C329.595 567.395 328.935 567.123 328.308 566.784C327.682 566.423 327.102 565.988 326.581 565.488C326.028 564.973 325.645 564.303 325.481 563.565C325.318 562.828 325.382 562.058 325.665 561.358C326.005 560.484 326.439 559.65 326.961 558.87C326.483 559.598 326.083 560.374 325.768 561.185C325.486 561.888 325.423 562.66 325.586 563.4C325.75 564.14 326.132 564.813 326.684 565.332C327.21 565.827 327.79 566.262 328.412 566.628C329.041 566.992 329.708 567.287 330.399 567.51C331.374 567.777 332.402 567.786 333.38 567.534C334.359 567.282 335.256 566.78 335.981 566.076C336.381 565.765 336.746 565.412 337.069 565.021L336.948 565.056C336.633 565.469 336.267 565.84 335.86 566.162Z" fill="#1F232D"/>
<path d="M350.633 575.32C349.981 575.897 349.193 576.297 348.343 576.481C347.493 576.666 346.609 576.629 345.777 576.374C345.002 576.131 344.255 575.806 343.548 575.407C342.894 575.025 342.276 574.585 341.699 574.093C340.991 573.431 340.501 572.568 340.298 571.62C340.094 570.671 340.185 569.683 340.559 568.788C340.696 568.313 340.887 567.855 341.129 567.423L341.267 567.233C341.03 567.659 340.845 568.112 340.714 568.581C340.337 569.473 340.244 570.459 340.448 571.405C340.652 572.352 341.143 573.212 341.855 573.869C342.422 574.372 343.042 574.812 343.704 575.182C344.414 575.58 345.16 575.91 345.933 576.167C346.766 576.42 347.65 576.454 348.501 576.266C349.351 576.078 350.139 575.675 350.788 575.096C351.49 574.469 352.122 573.768 352.672 573.005C352.089 573.857 351.404 574.634 350.633 575.32Z" fill="#1F232D"/>
<path opacity="0.3" d="M337.224 560.46C336.554 559.568 335.699 558.831 334.719 558.3H334.615L333.043 557.47C332.628 557.263 332.196 557.055 331.764 556.883C331.482 556.764 331.193 556.66 330.9 556.572C329.535 556.122 327.963 557.211 327.012 558.628C326.494 559.41 326.06 560.244 325.716 561.116C325.434 561.819 325.371 562.591 325.534 563.331C325.697 564.071 326.08 564.744 326.632 565.263C327.158 565.758 327.738 566.193 328.36 566.559C328.989 566.923 329.655 567.218 330.347 567.441C331.322 567.708 332.349 567.716 333.328 567.465C334.307 567.213 335.203 566.711 335.928 566.006C336.333 565.694 336.699 565.335 337.017 564.935C337.417 564.396 337.678 563.767 337.777 563.103C337.867 562.648 337.865 562.179 337.77 561.725C337.675 561.271 337.489 560.84 337.224 560.46Z" fill="url(#paint1_linear_60_283)"/>
<defs>
<linearGradient id="paint0_linear_60_283" x1="347.073" y1="565.056" x2="347.073" y2="576.392" gradientUnits="userSpaceOnUse">
<stop offset="0.01" stop-color="white"/>
<stop offset="0.88" stop-color="white" stop-opacity="0"/>
</linearGradient>
<linearGradient id="paint1_linear_60_283" x1="331.678" y1="556.416" x2="331.678" y2="567.631" gradientUnits="userSpaceOnUse">
<stop offset="0.01" stop-color="white"/>
<stop offset="0.88" stop-color="white" stop-opacity="0"/>
</linearGradient>
</defs>
</svg>
